<?xml version="1.0" encoding="UTF-8" standalone="no"?>
<!DOCTYPE svg PUBLIC "-//W3C//DTD SVG 1.1//EN"
 "http://www.w3.org/Graphics/SVG/1.1/DTD/svg11.dtd">
<!-- Generated by graphviz version 2.40.1 (20161225.0304)
 -->
<!-- Pages: 1 -->
<svg width="630pt" height="764pt"
 viewBox="0.00 0.00 630.00 764.00" xmlns="http://www.w3.org/2000/svg" xmlns:xlink="http://www.w3.org/1999/xlink">
<g id="graph0" class="graph" transform="scale(1 1) rotate(0) translate(4 760)">
<polygon fill="#ffffff" stroke="transparent" points="-4,4 -4,-760 626,-760 626,4 -4,4"/>
<!-- _ -->
<g id="node1" class="node">
<title>_</title>
<g id="a_node1"><a xlink:title="_ &#45; Identity">
<ellipse fill="none" stroke="#000000" cx="226" cy="-378" rx="27" ry="18"/>
<text text-anchor="middle" x="226" y="-374.3" font-family="Times,serif" font-size="14.00" fill="#000000">_</text>
</a>
</g>
</g>
<!-- y -->
<g id="node2" class="node">
<title>y</title>
<g id="a_node2"><a xlink:title="y &#45; Create array">
<ellipse fill="none" stroke="#000000" cx="118" cy="-18" rx="27" ry="18"/>
<text text-anchor="middle" x="118" y="-14.3" font-family="Times,serif" font-size="14.00" fill="#000000">y</text>
</a>
</g>
</g>
<!-- m -->
<g id="node3" class="node">
<title>m</title>
<g id="a_node3"><a xlink:title="m &#45; Member">
<ellipse fill="none" stroke="#000000" cx="298" cy="-378" rx="27" ry="18"/>
<text text-anchor="middle" x="298" y="-374.3" font-family="Times,serif" font-size="14.00" fill="#000000">m</text>
</a>
</g>
</g>
<!-- x -->
<g id="node4" class="node">
<title>x</title>
<g id="a_node4"><a xlink:title="x &#45; Extract">
<ellipse fill="none" stroke="#000000" cx="334" cy="-522" rx="27" ry="18"/>
<text text-anchor="middle" x="334" y="-518.3" font-family="Times,serif" font-size="14.00" fill="#000000">x</text>
</a>
</g>
</g>
<!-- q -->
<g id="node5" class="node">
<title>q</title>
<g id="a_node5"><a xlink:title="q &#45; Dequeue">
<ellipse fill="none" stroke="#000000" cx="595" cy="-738" rx="27" ry="18"/>
<text text-anchor="middle" x="595" y="-734.3" font-family="Times,serif" font-size="14.00" fill="#000000">q</text>
</a>
</g>
</g>
<!-- e -->
<g id="node6" class="node">
<title>e</title>
<g id="a_node6"><a xlink:title="e &#45; Compare equal">
<polygon fill="none" stroke="#000000" points="73,-108 19,-108 19,-72 73,-72 73,-108"/>
<text text-anchor="middle" x="46" y="-86.3" font-family="Times,serif" font-size="14.00" fill="#000000">e</text>
</a>
</g>
</g>
<!-- a -->
<g id="node7" class="node">
<title>a</title>
<g id="a_node7"><a xlink:title="a &#45; Add">
<polygon fill="none" stroke="#000000" points="109,-180 55,-180 55,-144 109,-144 109,-180"/>
<text text-anchor="middle" x="82" y="-158.3" font-family="Times,serif" font-size="14.00" fill="#000000">a</text>
</a>
</g>
</g>
<!-- a&#45;&gt;e -->
<g id="edge2" class="edge">
<title>a&#45;&gt;e</title>
<path fill="none" stroke="#000000" d="M72.9157,-143.8314C68.9385,-135.8771 64.1845,-126.369 59.7861,-117.5723"/>
<polygon fill="#000000" stroke="#000000" points="62.8093,-115.7923 55.2066,-108.4133 56.5483,-118.9228 62.8093,-115.7923"/>
</g>
<!-- l -->
<g id="node8" class="node">
<title>l</title>
<g id="a_node8"><a xlink:title="l &#45; Compare less">
<polygon fill="none" stroke="#000000" points="145,-108 91,-108 91,-72 145,-72 145,-108"/>
<text text-anchor="middle" x="118" y="-86.3" font-family="Times,serif" font-size="14.00" fill="#000000">l</text>
</a>
</g>
</g>
<!-- a&#45;&gt;l -->
<g id="edge1" class="edge">
<title>a&#45;&gt;l</title>
<path fill="none" stroke="#000000" d="M91.0843,-143.8314C95.0615,-135.8771 99.8155,-126.369 104.2139,-117.5723"/>
<polygon fill="#000000" stroke="#000000" points="107.4517,-118.9228 108.7934,-108.4133 101.1907,-115.7923 107.4517,-118.9228"/>
</g>
<!-- l&#45;&gt;y -->
<g id="edge3" class="edge">
<title>l&#45;&gt;y</title>
<path fill="none" stroke="#000000" d="M118,-71.8314C118,-64.131 118,-54.9743 118,-46.4166"/>
<polygon fill="#000000" stroke="#000000" points="121.5001,-46.4132 118,-36.4133 114.5001,-46.4133 121.5001,-46.4132"/>
</g>
<!-- b -->
<g id="node9" class="node">
<title>b</title>
<g id="a_node9"><a xlink:title="b &#45; Subtract">
<polygon fill="none" stroke="#000000" points="54,-468 0,-468 0,-432 54,-432 54,-468"/>
<text text-anchor="middle" x="27" y="-446.3" font-family="Times,serif" font-size="14.00" fill="#000000">b</text>
</a>
</g>
</g>
<!-- b&#45;&gt;a -->
<g id="edge4" class="edge">
<title>b&#45;&gt;a</title>
<path fill="none" stroke="#000000" d="M28.1664,-431.8713C30.3173,-401.7631 35.6637,-339.6469 46,-288 52.8669,-253.6884 64.4776,-215.1234 72.6529,-189.8017"/>
<polygon fill="#000000" stroke="#000000" points="76.0324,-190.7279 75.8151,-180.1353 69.3793,-188.5515 76.0324,-190.7279"/>
</g>
<!-- $ -->
<g id="node10" class="node">
<title>$</title>
<g id="a_node10"><a xlink:title="$ &#45; Wrap">
<ellipse fill="none" stroke="#000000" cx="226" cy="-522" rx="27" ry="18"/>
<text text-anchor="middle" x="226" y="-518.3" font-family="Times,serif" font-size="14.00" fill="#000000">$</text>
</a>
</g>
</g>
<!-- i -->
<g id="node15" class="node">
<title>i</title>
<g id="a_node15"><a xlink:title="i &#45; If/else">
<ellipse fill="none" stroke="#000000" cx="226" cy="-450" rx="27" ry="18"/>
<text text-anchor="middle" x="226" y="-446.3" font-family="Times,serif" font-size="14.00" fill="#000000">i</text>
</a>
</g>
</g>
<!-- $&#45;&gt;i -->
<g id="edge5" class="edge">
<title>$&#45;&gt;i</title>
<path fill="none" stroke="#000000" d="M226,-503.8314C226,-496.131 226,-486.9743 226,-478.4166"/>
<polygon fill="#000000" stroke="#000000" points="229.5001,-478.4132 226,-468.4133 222.5001,-478.4133 229.5001,-478.4132"/>
</g>
<!-- z -->
<g id="node11" class="node">
<title>z</title>
<g id="a_node11"><a xlink:title="z &#45; Zero">
<ellipse fill="none" stroke="#000000" cx="145" cy="-234" rx="27" ry="18"/>
<text text-anchor="middle" x="145" y="-230.3" font-family="Times,serif" font-size="14.00" fill="#000000">z</text>
</a>
</g>
</g>
<!-- z&#45;&gt;a -->
<g id="edge6" class="edge">
<title>z&#45;&gt;a</title>
<path fill="none" stroke="#000000" d="M131.3299,-218.3771C123.486,-209.4125 113.4426,-197.9344 104.4677,-187.6774"/>
<polygon fill="#000000" stroke="#000000" points="107.0862,-185.3548 97.8671,-180.1338 101.8181,-189.9643 107.0862,-185.3548"/>
</g>
<!-- d -->
<g id="node12" class="node">
<title>d</title>
<g id="a_node12"><a xlink:title="d &#45; Double">
<ellipse fill="none" stroke="#000000" cx="82" cy="-306" rx="27" ry="18"/>
<text text-anchor="middle" x="82" y="-302.3" font-family="Times,serif" font-size="14.00" fill="#000000">d</text>
</a>
</g>
</g>
<!-- d&#45;&gt;a -->
<g id="edge7" class="edge">
<title>d&#45;&gt;a</title>
<path fill="none" stroke="#000000" d="M82,-287.7623C82,-263.201 82,-219.2474 82,-190.3541"/>
<polygon fill="#000000" stroke="#000000" points="85.5001,-190.0896 82,-180.0896 78.5001,-190.0897 85.5001,-190.0896"/>
</g>
<!-- n -->
<g id="node13" class="node">
<title>n</title>
<g id="a_node13"><a xlink:title="n &#45; Logical negation">
<ellipse fill="none" stroke="#000000" cx="154" cy="-306" rx="27" ry="18"/>
<text text-anchor="middle" x="154" y="-302.3" font-family="Times,serif" font-size="14.00" fill="#000000">n</text>
</a>
</g>
</g>
<!-- n&#45;&gt;z -->
<g id="edge8" class="edge">
<title>n&#45;&gt;z</title>
<path fill="none" stroke="#000000" d="M151.7289,-287.8314C150.7664,-280.131 149.6218,-270.9743 148.5521,-262.4166"/>
<polygon fill="#000000" stroke="#000000" points="152.0151,-261.9019 147.3017,-252.4133 145.0691,-262.7702 152.0151,-261.9019"/>
</g>
<!-- o -->
<g id="node14" class="node">
<title>o</title>
<g id="a_node14"><a xlink:title="o &#45; Logical OR">
<ellipse fill="none" stroke="#000000" cx="154" cy="-378" rx="27" ry="18"/>
<text text-anchor="middle" x="154" y="-374.3" font-family="Times,serif" font-size="14.00" fill="#000000">o</text>
</a>
</g>
</g>
<!-- o&#45;&gt;n -->
<g id="edge9" class="edge">
<title>o&#45;&gt;n</title>
<path fill="none" stroke="#000000" d="M154,-359.8314C154,-352.131 154,-342.9743 154,-334.4166"/>
<polygon fill="#000000" stroke="#000000" points="157.5001,-334.4132 154,-324.4133 150.5001,-334.4133 157.5001,-334.4132"/>
</g>
<!-- i&#45;&gt;_ -->
<g id="edge10" class="edge">
<title>i&#45;&gt;_</title>
<path fill="none" stroke="#000000" d="M226,-431.8314C226,-424.131 226,-414.9743 226,-406.4166"/>
<polygon fill="#000000" stroke="#000000" points="229.5001,-406.4132 226,-396.4133 222.5001,-406.4133 229.5001,-406.4132"/>
</g>
<!-- i&#45;&gt;m -->
<g id="edge11" class="edge">
<title>i&#45;&gt;m</title>
<path fill="none" stroke="#000000" d="M241.2693,-434.7307C251.197,-424.803 264.3153,-411.6847 275.4363,-400.5637"/>
<polygon fill="#000000" stroke="#000000" points="278.1564,-402.7933 282.7527,-393.2473 273.2067,-397.8436 278.1564,-402.7933"/>
</g>
<!-- i&#45;&gt;o -->
<g id="edge12" class="edge">
<title>i&#45;&gt;o</title>
<path fill="none" stroke="#000000" d="M210.7307,-434.7307C200.803,-424.803 187.6847,-411.6847 176.5637,-400.5637"/>
<polygon fill="#000000" stroke="#000000" points="178.7933,-397.8436 169.2473,-393.2473 173.8436,-402.7933 178.7933,-397.8436"/>
</g>
<!-- w -->
<g id="node16" class="node">
<title>w</title>
<g id="a_node16"><a xlink:title="w &#45; While">
<ellipse fill="none" stroke="#000000" cx="154" cy="-594" rx="27" ry="18"/>
<text text-anchor="middle" x="154" y="-590.3" font-family="Times,serif" font-size="14.00" fill="#000000">w</text>
</a>
</g>
</g>
<!-- w&#45;&gt;$ -->
<g id="edge14" class="edge">
<title>w&#45;&gt;$</title>
<path fill="none" stroke="#000000" d="M169.2693,-578.7307C179.197,-568.803 192.3153,-555.6847 203.4363,-544.5637"/>
<polygon fill="#000000" stroke="#000000" points="206.1564,-546.7933 210.7527,-537.2473 201.2067,-541.8436 206.1564,-546.7933"/>
</g>
<!-- w&#45;&gt;w -->
<g id="edge13" class="edge">
<title>w&#45;&gt;w</title>
<path fill="none" stroke="#000000" d="M173.895,-606.4321C186.688,-609.6753 199,-605.5313 199,-594 199,-585.6218 192.5006,-581.1433 184.0395,-580.5644"/>
<polygon fill="#000000" stroke="#000000" points="183.5019,-577.1004 173.895,-581.5679 184.191,-584.0665 183.5019,-577.1004"/>
</g>
<!-- c -->
<g id="node17" class="node">
<title>c</title>
<g id="a_node17"><a xlink:title="c &#45; Count">
<ellipse fill="none" stroke="#000000" cx="244" cy="-594" rx="27" ry="18"/>
<text text-anchor="middle" x="244" y="-590.3" font-family="Times,serif" font-size="14.00" fill="#000000">c</text>
</a>
</g>
</g>
<!-- c&#45;&gt;$ -->
<g id="edge15" class="edge">
<title>c&#45;&gt;$</title>
<path fill="none" stroke="#000000" d="M239.5506,-576.2022C237.5602,-568.2406 235.1668,-558.6671 232.9489,-549.7957"/>
<polygon fill="#000000" stroke="#000000" points="236.2816,-548.6951 230.4606,-539.8425 229.4906,-550.3929 236.2816,-548.6951"/>
</g>
<!-- c&#45;&gt;c -->
<g id="edge16" class="edge">
<title>c&#45;&gt;c</title>
<path fill="none" stroke="#000000" d="M263.895,-606.4321C276.688,-609.6753 289,-605.5313 289,-594 289,-585.6218 282.5006,-581.1433 274.0395,-580.5644"/>
<polygon fill="#000000" stroke="#000000" points="273.5019,-577.1004 263.895,-581.5679 274.191,-584.0665 273.5019,-577.1004"/>
</g>
<!-- k -->
<g id="node18" class="node">
<title>k</title>
<g id="a_node18"><a xlink:title="k &#45; If/else not empty">
<ellipse fill="none" stroke="#000000" cx="334" cy="-594" rx="27" ry="18"/>
<text text-anchor="middle" x="334" y="-590.3" font-family="Times,serif" font-size="14.00" fill="#000000">k</text>
</a>
</g>
</g>
<!-- k&#45;&gt;x -->
<g id="edge18" class="edge">
<title>k&#45;&gt;x</title>
<path fill="none" stroke="#000000" d="M334,-575.8314C334,-568.131 334,-558.9743 334,-550.4166"/>
<polygon fill="#000000" stroke="#000000" points="337.5001,-550.4132 334,-540.4133 330.5001,-550.4133 337.5001,-550.4132"/>
</g>
<!-- k&#45;&gt;$ -->
<g id="edge17" class="edge">
<title>k&#45;&gt;$</title>
<path fill="none" stroke="#000000" d="M314.6918,-581.1278C297.6445,-569.763 272.5981,-553.0654 253.4656,-540.3104"/>
<polygon fill="#000000" stroke="#000000" points="255.4031,-537.3956 245.1411,-534.7607 251.5201,-543.2199 255.4031,-537.3956"/>
</g>
<!-- t -->
<g id="node19" class="node">
<title>t</title>
<g id="a_node19"><a xlink:title="t &#45; Concatenate">
<ellipse fill="none" stroke="#000000" cx="127" cy="-666" rx="27" ry="18"/>
<text text-anchor="middle" x="127" y="-662.3" font-family="Times,serif" font-size="14.00" fill="#000000">t</text>
</a>
</g>
</g>
<!-- t&#45;&gt;k -->
<g id="edge19" class="edge">
<title>t&#45;&gt;k</title>
<path fill="none" stroke="#000000" d="M147.9996,-654.6077C152.8434,-652.2321 158.0338,-649.8814 163,-648 221.0695,-626.0015 239.9305,-633.9985 298,-612 299.8623,-611.2945 301.7562,-610.523 303.6515,-609.7089"/>
<polygon fill="#000000" stroke="#000000" points="305.3886,-612.762 313.0004,-605.3923 302.4542,-606.4067 305.3886,-612.762"/>
</g>
<!-- g -->
<g id="node20" class="node">
<title>g</title>
<g id="a_node20"><a xlink:title="g &#45; Compose">
<ellipse fill="none" stroke="#000000" cx="199" cy="-666" rx="27" ry="18"/>
<text text-anchor="middle" x="199" y="-662.3" font-family="Times,serif" font-size="14.00" fill="#000000">g</text>
</a>
</g>
</g>
<!-- g&#45;&gt;k -->
<g id="edge20" class="edge">
<title>g&#45;&gt;k</title>
<path fill="none" stroke="#000000" d="M220.0938,-654.75C242.5496,-642.7735 278.2866,-623.7138 303.7401,-610.1386"/>
<polygon fill="#000000" stroke="#000000" points="305.4324,-613.2028 312.6088,-605.4086 302.1382,-607.0263 305.4324,-613.2028"/>
</g>
<!-- g&#45;&gt;g -->
<g id="edge21" class="edge">
<title>g&#45;&gt;g</title>
<path fill="none" stroke="#000000" d="M218.895,-678.4321C231.688,-681.6753 244,-677.5313 244,-666 244,-657.6218 237.5006,-653.1433 229.0395,-652.5644"/>
<polygon fill="#000000" stroke="#000000" points="228.5019,-649.1004 218.895,-653.5679 229.191,-656.0665 228.5019,-649.1004"/>
</g>
<!-- v -->
<g id="node21" class="node">
<title>v</title>
<g id="a_node21"><a xlink:title="v &#45; Reverse">
<ellipse fill="none" stroke="#000000" cx="289" cy="-666" rx="27" ry="18"/>
<text text-anchor="middle" x="289" y="-662.3" font-family="Times,serif" font-size="14.00" fill="#000000">v</text>
</a>
</g>
</g>
<!-- v&#45;&gt;k -->
<g id="edge22" class="edge">
<title>v&#45;&gt;k</title>
<path fill="none" stroke="#000000" d="M299.437,-649.3008C304.9235,-640.5224 311.7686,-629.5703 317.9163,-619.7339"/>
<polygon fill="#000000" stroke="#000000" points="320.9751,-621.4436 323.3071,-611.1086 315.0391,-617.7336 320.9751,-621.4436"/>
</g>
<!-- v&#45;&gt;v -->
<g id="edge23" class="edge">
<title>v&#45;&gt;v</title>
<path fill="none" stroke="#000000" d="M308.895,-678.4321C321.688,-681.6753 334,-677.5313 334,-666 334,-657.6218 327.5006,-653.1433 319.0395,-652.5644"/>
<polygon fill="#000000" stroke="#000000" points="318.5019,-649.1004 308.895,-653.5679 319.191,-656.0665 318.5019,-649.1004"/>
</g>
<!-- f -->
<g id="node22" class="node">
<title>f</title>
<g id="a_node22"><a xlink:title="f &#45; Transform">
<ellipse fill="none" stroke="#000000" cx="379" cy="-666" rx="27" ry="18"/>
<text text-anchor="middle" x="379" y="-662.3" font-family="Times,serif" font-size="14.00" fill="#000000">f</text>
</a>
</g>
</g>
<!-- f&#45;&gt;k -->
<g id="edge24" class="edge">
<title>f&#45;&gt;k</title>
<path fill="none" stroke="#000000" d="M368.563,-649.3008C363.0765,-640.5224 356.2314,-629.5703 350.0837,-619.7339"/>
<polygon fill="#000000" stroke="#000000" points="352.9609,-617.7336 344.6929,-611.1086 347.0249,-621.4436 352.9609,-617.7336"/>
</g>
<!-- f&#45;&gt;f -->
<g id="edge25" class="edge">
<title>f&#45;&gt;f</title>
<path fill="none" stroke="#000000" d="M398.895,-678.4321C411.688,-681.6753 424,-677.5313 424,-666 424,-657.6218 417.5006,-653.1433 409.0395,-652.5644"/>
<polygon fill="#000000" stroke="#000000" points="408.5019,-649.1004 398.895,-653.5679 409.191,-656.0665 408.5019,-649.1004"/>
</g>
<!-- p -->
<g id="node23" class="node">
<title>p</title>
<g id="a_node23"><a xlink:title="p &#45; Pipe">
<ellipse fill="none" stroke="#000000" cx="244" cy="-738" rx="27" ry="18"/>
<text text-anchor="middle" x="244" y="-734.3" font-family="Times,serif" font-size="14.00" fill="#000000">p</text>
</a>
</g>
</g>
<!-- p&#45;&gt;g -->
<g id="edge26" class="edge">
<title>p&#45;&gt;g</title>
<path fill="none" stroke="#000000" d="M233.563,-721.3008C228.0765,-712.5224 221.2314,-701.5703 215.0837,-691.7339"/>
<polygon fill="#000000" stroke="#000000" points="217.9609,-689.7336 209.6929,-683.1086 212.0249,-693.4436 217.9609,-689.7336"/>
</g>
<!-- p&#45;&gt;v -->
<g id="edge27" class="edge">
<title>p&#45;&gt;v</title>
<path fill="none" stroke="#000000" d="M254.437,-721.3008C259.9235,-712.5224 266.7686,-701.5703 272.9163,-691.7339"/>
<polygon fill="#000000" stroke="#000000" points="275.9751,-693.4436 278.3071,-683.1086 270.0391,-689.7336 275.9751,-693.4436"/>
</g>
<!-- u -->
<g id="node24" class="node">
<title>u</title>
<g id="a_node24"><a xlink:title="u &#45; Reduce">
<ellipse fill="none" stroke="#000000" cx="469" cy="-666" rx="27" ry="18"/>
<text text-anchor="middle" x="469" y="-662.3" font-family="Times,serif" font-size="14.00" fill="#000000">u</text>
</a>
</g>
</g>
<!-- u&#45;&gt;k -->
<g id="edge28" class="edge">
<title>u&#45;&gt;k</title>
<path fill="none" stroke="#000000" d="M447.9063,-654.75C425.4504,-642.7735 389.7134,-623.7138 364.2599,-610.1386"/>
<polygon fill="#000000" stroke="#000000" points="365.8618,-607.0263 355.3912,-605.4086 362.5676,-613.2028 365.8618,-607.0263"/>
</g>
<!-- u&#45;&gt;u -->
<g id="edge29" class="edge">
<title>u&#45;&gt;u</title>
<path fill="none" stroke="#000000" d="M488.895,-678.4321C501.688,-681.6753 514,-677.5313 514,-666 514,-657.6218 507.5006,-653.1433 499.0395,-652.5644"/>
<polygon fill="#000000" stroke="#000000" points="498.5019,-649.1004 488.895,-653.5679 499.191,-656.0665 498.5019,-649.1004"/>
</g>
<!-- s -->
<g id="node25" class="node">
<title>s</title>
<g id="a_node25"><a xlink:title="s &#45; String">
<ellipse fill="none" stroke="#000000" cx="433" cy="-738" rx="27" ry="18"/>
<text text-anchor="middle" x="433" y="-734.3" font-family="Times,serif" font-size="14.00" fill="#000000">s</text>
</a>
</g>
</g>
<!-- s&#45;&gt;u -->
<g id="edge30" class="edge">
<title>s&#45;&gt;u</title>
<path fill="none" stroke="#000000" d="M441.7146,-720.5708C445.9597,-712.0807 451.1536,-701.6929 455.8663,-692.2674"/>
<polygon fill="#000000" stroke="#000000" points="459.024,-693.7782 460.3657,-683.2687 452.763,-690.6477 459.024,-693.7782"/>
</g>
<!-- j -->
<g id="node26" class="node">
<title>j</title>
<g id="a_node26"><a xlink:title="j &#45; Create object">
<ellipse fill="none" stroke="#000000" cx="505" cy="-738" rx="27" ry="18"/>
<text text-anchor="middle" x="505" y="-734.3" font-family="Times,serif" font-size="14.00" fill="#000000">j</text>
</a>
</g>
</g>
<!-- j&#45;&gt;u -->
<g id="edge31" class="edge">
<title>j&#45;&gt;u</title>
<path fill="none" stroke="#000000" d="M496.2854,-720.5708C492.0403,-712.0807 486.8464,-701.6929 482.1337,-692.2674"/>
<polygon fill="#000000" stroke="#000000" points="485.237,-690.6477 477.6343,-683.2687 478.976,-693.7782 485.237,-690.6477"/>
</g>
<!-- j&#45;&gt;j -->
<g id="edge32" class="edge">
<title>j&#45;&gt;j</title>
<path fill="none" stroke="#000000" d="M524.895,-750.4321C537.688,-753.6753 550,-749.5313 550,-738 550,-729.6218 543.5006,-725.1433 535.0395,-724.5644"/>
<polygon fill="#000000" stroke="#000000" points="534.5019,-721.1004 524.895,-725.5679 535.191,-728.0665 534.5019,-721.1004"/>
</g>
<!-- r -->
<g id="node27" class="node">
<title>r</title>
<g id="a_node27"><a xlink:title="r &#45; Curry">
<ellipse fill="none" stroke="#000000" cx="64" cy="-594" rx="27" ry="18"/>
<text text-anchor="middle" x="64" y="-590.3" font-family="Times,serif" font-size="14.00" fill="#000000">r</text>
</a>
</g>
</g>
<!-- r&#45;&gt;b -->
<g id="edge36" class="edge">
<title>r&#45;&gt;b</title>
<path fill="none" stroke="#000000" d="M59.3887,-576.0535C53.074,-551.4774 41.6717,-507.1008 34.2195,-478.0974"/>
<polygon fill="#000000" stroke="#000000" points="37.5479,-476.9871 31.6694,-468.1727 30.7682,-478.7291 37.5479,-476.9871"/>
</g>
<!-- r&#45;&gt;$ -->
<g id="edge34" class="edge">
<title>r&#45;&gt;$</title>
<path fill="none" stroke="#000000" d="M86.5254,-583.9887C114.4956,-571.5575 162.3843,-550.2736 194.1162,-536.1706"/>
<polygon fill="#000000" stroke="#000000" points="195.6887,-539.3019 203.4054,-532.0421 192.8457,-532.9052 195.6887,-539.3019"/>
</g>
<!-- r&#45;&gt;d -->
<g id="edge33" class="edge">
<title>r&#45;&gt;d</title>
<path fill="none" stroke="#000000" d="M65.126,-575.9843C68.1691,-527.2939 76.5752,-392.7961 80.2464,-334.0573"/>
<polygon fill="#000000" stroke="#000000" points="83.7438,-334.2078 80.8744,-324.0089 76.7574,-333.771 83.7438,-334.2078"/>
</g>
<!-- r&#45;&gt;r -->
<g id="edge35" class="edge">
<title>r&#45;&gt;r</title>
<path fill="none" stroke="#000000" d="M83.895,-606.4321C96.688,-609.6753 109,-605.5313 109,-594 109,-585.6218 102.5006,-581.1433 94.0395,-580.5644"/>
<polygon fill="#000000" stroke="#000000" points="93.5019,-577.1004 83.895,-581.5679 94.191,-584.0665 93.5019,-577.1004"/>
</g>
<!-- h -->
<g id="node28" class="node">
<title>h</title>
<g id="a_node28"><a xlink:title="h &#45; Switch">
<ellipse fill="none" stroke="#000000" cx="559" cy="-666" rx="27" ry="18"/>
<text text-anchor="middle" x="559" y="-662.3" font-family="Times,serif" font-size="14.00" fill="#000000">h</text>
</a>
</g>
</g>
<!-- h&#45;&gt;k -->
<g id="edge37" class="edge">
<title>h&#45;&gt;k</title>
<path fill="none" stroke="#000000" d="M537.9754,-654.6728C533.1329,-652.2938 527.9494,-649.9252 523,-648 471.1083,-627.815 408.5891,-611.4244 370.068,-602.1908"/>
<polygon fill="#000000" stroke="#000000" points="370.4052,-598.6741 359.8682,-599.779 368.7944,-605.4862 370.4052,-598.6741"/>
</g>
<!-- h&#45;&gt;h -->
<g id="edge38" class="edge">
<title>h&#45;&gt;h</title>
<path fill="none" stroke="#000000" d="M578.895,-678.4321C591.688,-681.6753 604,-677.5313 604,-666 604,-657.6218 597.5006,-653.1433 589.0395,-652.5644"/>
<polygon fill="#000000" stroke="#000000" points="588.5019,-649.1004 578.895,-653.5679 589.191,-656.0665 588.5019,-649.1004"/>
</g>
</g>
<style>.node {
    pointer-events: all;
    cursor: default;
}

.node ellipse,
.node polygon {
    fill: transparent;
    -webkit-transition: fill 0.4s;
    -o-transition: fill 0.4s;
    transition: fill 0.4s;
}

.node.selected ellipse,
.node.selected polygon {
    -webkit-transition-duration: 0.2s;
    -o-transition-duration: 0.2s;
    transition-duration: 0.2s;
}

.node.selected.blue ellipse,
.node.selected.blue polygon {
    fill: #84b6c4 !important;
}

.node.selected.red ellipse,
.node.selected.red polygon {
    fill: #ff3856 !important;
}</style>
		<script id="graph-dependencies-script">
			var dependencies = new Map([["_", new Set([])],
["y", new Set([])],
["m", new Set([])],
["x", new Set([])],
["q", new Set([])],
["e", new Set([])],
["a", new Set(["l","e","y"])],
["l", new Set(["y"])],
["b", new Set(["l","e","a","y"])],
["$", new Set(["i","e","_","m","z","o","y","l","a","n"])],
["z", new Set(["l","a","y","e"])],
["d", new Set(["e","a","l","y"])],
["n", new Set(["e","z","l","a","y"])],
["o", new Set(["l","a","n","y","e","z"])],
["i", new Set(["_","m","z","o","y","l","a","e","n"])],
["w", new Set(["i","w","$","_","m","z","o","y","l","a","e","n"])],
["c", new Set(["z","i","$","e","c","a","l","y","_","m","o","n"])],
["k", new Set(["_","i","$","e","x","m","z","o","y","l","a","n"])],
["t", new Set(["y","k","$","_","i","e","x","m","z","o","l","a","n"])],
["g", new Set(["k","g","$","_","i","e","x","m","z","o","y","l","a","n"])],
["v", new Set(["y","k","$","v","_","i","e","x","m","z","o","l","a","n"])],
["f", new Set(["y","k","$","f","_","i","e","x","m","z","o","l","a","n"])],
["p", new Set(["g","v","k","$","_","i","e","x","m","z","o","y","l","a","n"])],
["u", new Set(["k","$","u","_","i","e","x","m","z","o","y","l","a","n"])],
["s", new Set(["u","a","y","k","$","_","i","e","x","m","z","o","l","n"])],
["j", new Set(["k","$","u","j","_","i","e","x","m","z","o","y","l","a","n"])],
["r", new Set(["d","i","$","l","r","b","e","a","y","_","m","z","o","n"])],
["h", new Set(["i","$","k","h","_","m","z","o","y","l","a","e","n","x"])]]);
			var inverseDependencies = new Map([["_", new Set(["i","k","$","w","c","r","h","t","g","v","f","u","j","p","s"])],
["y", new Set(["l","i","t","v","f","s","a","b","z","o","r","d","c","n","$","w","k","h","g","u","j","p"])],
["m", new Set(["i","$","w","c","k","r","h","t","g","v","f","u","j","p","s"])],
["x", new Set(["k","t","g","v","f","u","j","h","p","s"])],
["q", new Set([])],
["e", new Set(["a","b","$","d","n","c","k","z","o","s","r","i","w","h","t","g","v","f","u","j","p"])],
["a", new Set(["b","z","d","o","c","s","r","n","i","$","w","k","h","t","g","v","f","u","j","p"])],
["l", new Set(["a","b","z","o","r","d","c","s","n","i","$","w","k","h","t","g","v","f","u","j","p"])],
["b", new Set(["r"])],
["$", new Set(["w","c","k","t","g","v","f","u","j","r","h","p","s"])],
["i", new Set(["$","w","c","k","r","h","t","g","v","f","u","j","p","s"])],
["z", new Set(["n","i","c","o","$","w","k","r","h","t","g","v","f","u","j","p","s"])],
["d", new Set(["r"])],
["n", new Set(["o","i","$","w","c","k","r","h","t","g","v","f","u","j","p","s"])],
["o", new Set(["i","$","w","c","k","r","h","t","g","v","f","u","j","p","s"])],
["w", new Set(["w"])],
["c", new Set(["c"])],
["k", new Set(["t","g","v","f","u","j","h","p","s"])],
["t", new Set([])],
["g", new Set(["g","p"])],
["v", new Set(["v","p"])],
["f", new Set(["f"])],
["p", new Set([])],
["u", new Set(["u","s","j"])],
["s", new Set([])],
["j", new Set(["j"])],
["r", new Set(["r"])],
["h", new Set(["h"])]]);
			var scriptElement = document.getElementById('graph-dependencies-script');
var nodeCollection = scriptElement.parentElement.querySelectorAll('.node');
var addClass = function (element, cls) {
	cls.split(/\s+/).forEach(function (c) {
		var currentClass = element.getAttribute('class');
		if (currentClass.indexOf(c) === -1) {
			element.setAttribute('class', currentClass + ' ' + c);
		}
	});
};
var removeClass = function (element, cls) {
	cls.split(/\s+/).forEach(function (c) {
		element.setAttribute('class', (element.getAttribute('class') || '').replace(new RegExp('\\s*' + c, 'g'), ''));
	});
};
var getNodeName = function (nodeElement) {
	return nodeElement.querySelector('text').innerHTML;
};
var getNodeByName = function (fnName) {
	var result = null;
	[].some.call(nodeCollection, function (nodeElement, i) {
		if (getNodeName(nodeElement) === fnName) {
			result = nodeElement;
		}

		return result !== null;
	});
	return result;
};
var highlightColors = {
	children: 'blue',
	parents: 'red'
};
var highlight = function (root, nodes, color) {
	if (root === false) {
		currentlyHighlighted.nodes.forEach(function (nodeElement) {
			removeClass(nodeElement, 'selected ' + Object.keys(highlightColors).map(function (key) {
				return highlightColors[key];
			}).join(' '));
		});
		currentlyHighlighted = null;
	} else {
		nodes.forEach(function (nodeElement) {
			addClass(nodeElement, 'selected ' + color);
		});
		currentlyHighlighted = {
			root: root,
			nodes: nodes
		};
	}
};
var isShiftPressed = false;
var currentlyHighlighted = null;
var nodeRelations = new Map();

document.onkeydown = function(e) {
	if (e.code === 'ShiftLeft') {
		isShiftPressed = true;
		if (currentlyHighlighted !== null) {
			var root = currentlyHighlighted.root;
			highlight(false);
			highlight(root, nodeRelations.get(root).inverseDependencies, highlightColors.parents);
		}
	}
};

document.onkeyup = function(e) {
	if (e.code === 'ShiftLeft') {
		isShiftPressed = false;
		if (currentlyHighlighted !== null) {
			var root = currentlyHighlighted.root;
			highlight(false);
			highlight(root, nodeRelations.get(root).dependencies, highlightColors.children);
		}
	}
};

[].forEach.call(nodeCollection, function (nodeElement) {
	var nodeName = getNodeName(nodeElement);
	var nodeDependencies = new Set([nodeElement]);
	var inverseNodeDependencies = new Set([nodeElement]);

	dependencies.get(nodeName).forEach(function (name) {
		nodeDependencies.add(getNodeByName(name));
	});
	inverseDependencies.get(nodeName).forEach(function (name) {
		inverseNodeDependencies.add(getNodeByName(name));
	});

	nodeRelations.set(nodeElement, {
		dependencies: nodeDependencies,
		inverseDependencies: inverseNodeDependencies
	});

	nodeElement.onmouseenter = function () {
		if (isShiftPressed) {
			highlight(nodeElement, inverseNodeDependencies, highlightColors.parents);
		} else {
			highlight(nodeElement, nodeDependencies, highlightColors.children);
		}

	};
	nodeElement.onmouseleave = function () {
		highlight(false);
	};
});
		</script>
		</svg>
