<?xml version="1.0" encoding="UTF-8" standalone="no"?>
<!DOCTYPE svg PUBLIC "-//W3C//DTD SVG 1.1//EN"
 "http://www.w3.org/Graphics/SVG/1.1/DTD/svg11.dtd">
<!-- Generated by graphviz version 2.40.1 (20161225.0304)
 -->
<!-- Pages: 1 -->
<svg width="719pt" height="764pt"
 viewBox="0.00 0.00 719.00 764.00" xmlns="http://www.w3.org/2000/svg" xmlns:xlink="http://www.w3.org/1999/xlink">
<g id="graph0" class="graph" transform="scale(1 1) rotate(0) translate(4 760)">
<polygon fill="#ffffff" stroke="transparent" points="-4,4 -4,-760 715,-760 715,4 -4,4"/>
<!-- _ -->
<g id="node1" class="node">
<title>_</title>
<g id="a_node1"><a xlink:title="_ &#45; Identity">
<ellipse fill="none" stroke="#000000" cx="135" cy="-378" rx="27" ry="18"/>
<text text-anchor="middle" x="135" y="-374.3" font-family="Times,serif" font-size="14.00" fill="#000000">_</text>
</a>
</g>
</g>
<!-- y -->
<g id="node2" class="node">
<title>y</title>
<g id="a_node2"><a xlink:title="y &#45; Create array">
<ellipse fill="none" stroke="#000000" cx="370" cy="-18" rx="27" ry="18"/>
<text text-anchor="middle" x="370" y="-14.3" font-family="Times,serif" font-size="14.00" fill="#000000">y</text>
</a>
</g>
</g>
<!-- x -->
<g id="node3" class="node">
<title>x</title>
<g id="a_node3"><a xlink:title="x &#45; Extract">
<ellipse fill="none" stroke="#000000" cx="279" cy="-378" rx="27" ry="18"/>
<text text-anchor="middle" x="279" y="-374.3" font-family="Times,serif" font-size="14.00" fill="#000000">x</text>
</a>
</g>
</g>
<!-- q -->
<g id="node4" class="node">
<title>q</title>
<g id="a_node4"><a xlink:title="q &#45; Dequeue">
<ellipse fill="none" stroke="#000000" cx="684" cy="-738" rx="27" ry="18"/>
<text text-anchor="middle" x="684" y="-734.3" font-family="Times,serif" font-size="14.00" fill="#000000">q</text>
</a>
</g>
</g>
<!-- e -->
<g id="node5" class="node">
<title>e</title>
<g id="a_node5"><a xlink:title="e &#45; Compare equal">
<polygon fill="none" stroke="#000000" points="325,-108 271,-108 271,-72 325,-72 325,-108"/>
<text text-anchor="middle" x="298" y="-86.3" font-family="Times,serif" font-size="14.00" fill="#000000">e</text>
</a>
</g>
</g>
<!-- a -->
<g id="node6" class="node">
<title>a</title>
<g id="a_node6"><a xlink:title="a &#45; Add">
<polygon fill="none" stroke="#000000" points="361,-180 307,-180 307,-144 361,-144 361,-180"/>
<text text-anchor="middle" x="334" y="-158.3" font-family="Times,serif" font-size="14.00" fill="#000000">a</text>
</a>
</g>
</g>
<!-- a&#45;&gt;e -->
<g id="edge2" class="edge">
<title>a&#45;&gt;e</title>
<path fill="none" stroke="#000000" d="M324.9157,-143.8314C320.9385,-135.8771 316.1845,-126.369 311.7861,-117.5723"/>
<polygon fill="#000000" stroke="#000000" points="314.8093,-115.7923 307.2066,-108.4133 308.5483,-118.9228 314.8093,-115.7923"/>
</g>
<!-- l -->
<g id="node7" class="node">
<title>l</title>
<g id="a_node7"><a xlink:title="l &#45; Compare less">
<polygon fill="none" stroke="#000000" points="397,-108 343,-108 343,-72 397,-72 397,-108"/>
<text text-anchor="middle" x="370" y="-86.3" font-family="Times,serif" font-size="14.00" fill="#000000">l</text>
</a>
</g>
</g>
<!-- a&#45;&gt;l -->
<g id="edge1" class="edge">
<title>a&#45;&gt;l</title>
<path fill="none" stroke="#000000" d="M343.0843,-143.8314C347.0615,-135.8771 351.8155,-126.369 356.2139,-117.5723"/>
<polygon fill="#000000" stroke="#000000" points="359.4517,-118.9228 360.7934,-108.4133 353.1907,-115.7923 359.4517,-118.9228"/>
</g>
<!-- l&#45;&gt;y -->
<g id="edge3" class="edge">
<title>l&#45;&gt;y</title>
<path fill="none" stroke="#000000" d="M370,-71.8314C370,-64.131 370,-54.9743 370,-46.4166"/>
<polygon fill="#000000" stroke="#000000" points="373.5001,-46.4132 370,-36.4133 366.5001,-46.4133 373.5001,-46.4132"/>
</g>
<!-- b -->
<g id="node8" class="node">
<title>b</title>
<g id="a_node8"><a xlink:title="b &#45; Subtract">
<polygon fill="none" stroke="#000000" points="416,-468 362,-468 362,-432 416,-432 416,-468"/>
<text text-anchor="middle" x="389" y="-446.3" font-family="Times,serif" font-size="14.00" fill="#000000">b</text>
</a>
</g>
</g>
<!-- b&#45;&gt;a -->
<g id="edge4" class="edge">
<title>b&#45;&gt;a</title>
<path fill="none" stroke="#000000" d="M387.8336,-431.8713C385.6827,-401.7631 380.3363,-339.6469 370,-288 363.1331,-253.6884 351.5224,-215.1234 343.3471,-189.8017"/>
<polygon fill="#000000" stroke="#000000" points="346.6207,-188.5515 340.1849,-180.1353 339.9676,-190.7279 346.6207,-188.5515"/>
</g>
<!-- $ -->
<g id="node9" class="node">
<title>$</title>
<g id="a_node9"><a xlink:title="$ &#45; Wrap">
<ellipse fill="none" stroke="#000000" cx="207" cy="-522" rx="27" ry="18"/>
<text text-anchor="middle" x="207" y="-518.3" font-family="Times,serif" font-size="14.00" fill="#000000">$</text>
</a>
</g>
</g>
<!-- i -->
<g id="node14" class="node">
<title>i</title>
<g id="a_node14"><a xlink:title="i &#45; If/else">
<ellipse fill="none" stroke="#000000" cx="207" cy="-450" rx="27" ry="18"/>
<text text-anchor="middle" x="207" y="-446.3" font-family="Times,serif" font-size="14.00" fill="#000000">i</text>
</a>
</g>
</g>
<!-- $&#45;&gt;i -->
<g id="edge5" class="edge">
<title>$&#45;&gt;i</title>
<path fill="none" stroke="#000000" d="M207,-503.8314C207,-496.131 207,-486.9743 207,-478.4166"/>
<polygon fill="#000000" stroke="#000000" points="210.5001,-478.4132 207,-468.4133 203.5001,-478.4133 210.5001,-478.4132"/>
</g>
<!-- z -->
<g id="node10" class="node">
<title>z</title>
<g id="a_node10"><a xlink:title="z &#45; Zero">
<ellipse fill="none" stroke="#000000" cx="257" cy="-234" rx="27" ry="18"/>
<text text-anchor="middle" x="257" y="-230.3" font-family="Times,serif" font-size="14.00" fill="#000000">z</text>
</a>
</g>
</g>
<!-- z&#45;&gt;a -->
<g id="edge6" class="edge">
<title>z&#45;&gt;a</title>
<path fill="none" stroke="#000000" d="M272.9544,-219.0816C282.7612,-209.9116 295.5812,-197.9241 306.9399,-187.3029"/>
<polygon fill="#000000" stroke="#000000" points="309.6015,-189.606 314.5152,-180.2195 304.8205,-184.493 309.6015,-189.606"/>
</g>
<!-- d -->
<g id="node11" class="node">
<title>d</title>
<g id="a_node11"><a xlink:title="d &#45; Double">
<ellipse fill="none" stroke="#000000" cx="334" cy="-306" rx="27" ry="18"/>
<text text-anchor="middle" x="334" y="-302.3" font-family="Times,serif" font-size="14.00" fill="#000000">d</text>
</a>
</g>
</g>
<!-- d&#45;&gt;a -->
<g id="edge7" class="edge">
<title>d&#45;&gt;a</title>
<path fill="none" stroke="#000000" d="M334,-287.7623C334,-263.201 334,-219.2474 334,-190.3541"/>
<polygon fill="#000000" stroke="#000000" points="337.5001,-190.0896 334,-180.0896 330.5001,-190.0897 337.5001,-190.0896"/>
</g>
<!-- n -->
<g id="node12" class="node">
<title>n</title>
<g id="a_node12"><a xlink:title="n &#45; Logical negation">
<ellipse fill="none" stroke="#000000" cx="235" cy="-306" rx="27" ry="18"/>
<text text-anchor="middle" x="235" y="-302.3" font-family="Times,serif" font-size="14.00" fill="#000000">n</text>
</a>
</g>
</g>
<!-- n&#45;&gt;z -->
<g id="edge8" class="edge">
<title>n&#45;&gt;z</title>
<path fill="none" stroke="#000000" d="M240.4382,-288.2022C242.8974,-280.1541 245.8598,-270.4588 248.5952,-261.5067"/>
<polygon fill="#000000" stroke="#000000" points="251.9731,-262.4289 251.5481,-251.8425 245.2786,-260.3833 251.9731,-262.4289"/>
</g>
<!-- o -->
<g id="node13" class="node">
<title>o</title>
<g id="a_node13"><a xlink:title="o &#45; Logical OR">
<ellipse fill="none" stroke="#000000" cx="207" cy="-378" rx="27" ry="18"/>
<text text-anchor="middle" x="207" y="-374.3" font-family="Times,serif" font-size="14.00" fill="#000000">o</text>
</a>
</g>
</g>
<!-- o&#45;&gt;n -->
<g id="edge9" class="edge">
<title>o&#45;&gt;n</title>
<path fill="none" stroke="#000000" d="M213.778,-360.5708C216.9872,-352.3187 220.8935,-342.2738 224.4758,-333.0623"/>
<polygon fill="#000000" stroke="#000000" points="227.8248,-334.1069 228.1874,-323.5182 221.3008,-331.5697 227.8248,-334.1069"/>
</g>
<!-- i&#45;&gt;_ -->
<g id="edge10" class="edge">
<title>i&#45;&gt;_</title>
<path fill="none" stroke="#000000" d="M191.7307,-434.7307C181.803,-424.803 168.6847,-411.6847 157.5637,-400.5637"/>
<polygon fill="#000000" stroke="#000000" points="159.7933,-397.8436 150.2473,-393.2473 154.8436,-402.7933 159.7933,-397.8436"/>
</g>
<!-- i&#45;&gt;x -->
<g id="edge11" class="edge">
<title>i&#45;&gt;x</title>
<path fill="none" stroke="#000000" d="M222.2693,-434.7307C232.197,-424.803 245.3153,-411.6847 256.4363,-400.5637"/>
<polygon fill="#000000" stroke="#000000" points="259.1564,-402.7933 263.7527,-393.2473 254.2067,-397.8436 259.1564,-402.7933"/>
</g>
<!-- i&#45;&gt;o -->
<g id="edge12" class="edge">
<title>i&#45;&gt;o</title>
<path fill="none" stroke="#000000" d="M207,-431.8314C207,-424.131 207,-414.9743 207,-406.4166"/>
<polygon fill="#000000" stroke="#000000" points="210.5001,-406.4132 207,-396.4133 203.5001,-406.4133 210.5001,-406.4132"/>
</g>
<!-- w -->
<g id="node15" class="node">
<title>w</title>
<g id="a_node15"><a xlink:title="w &#45; While">
<ellipse fill="none" stroke="#000000" cx="27" cy="-594" rx="27" ry="18"/>
<text text-anchor="middle" x="27" y="-590.3" font-family="Times,serif" font-size="14.00" fill="#000000">w</text>
</a>
</g>
</g>
<!-- w&#45;&gt;$ -->
<g id="edge13" class="edge">
<title>w&#45;&gt;$</title>
<path fill="none" stroke="#000000" d="M50.1634,-584.7347C81.6687,-572.1325 138.2073,-549.5171 174.1018,-535.1593"/>
<polygon fill="#000000" stroke="#000000" points="175.6556,-538.3075 183.6404,-531.3438 173.0558,-531.8081 175.6556,-538.3075"/>
</g>
<!-- w&#45;&gt;w -->
<g id="edge14" class="edge">
<title>w&#45;&gt;w</title>
<path fill="none" stroke="#000000" d="M46.895,-606.4321C59.688,-609.6753 72,-605.5313 72,-594 72,-585.6218 65.5006,-581.1433 57.0395,-580.5644"/>
<polygon fill="#000000" stroke="#000000" points="56.5019,-577.1004 46.895,-581.5679 57.191,-584.0665 56.5019,-577.1004"/>
</g>
<!-- c -->
<g id="node16" class="node">
<title>c</title>
<g id="a_node16"><a xlink:title="c &#45; Count">
<ellipse fill="none" stroke="#000000" cx="117" cy="-594" rx="27" ry="18"/>
<text text-anchor="middle" x="117" y="-590.3" font-family="Times,serif" font-size="14.00" fill="#000000">c</text>
</a>
</g>
</g>
<!-- c&#45;&gt;$ -->
<g id="edge15" class="edge">
<title>c&#45;&gt;$</title>
<path fill="none" stroke="#000000" d="M134.3529,-580.1177C147.7997,-569.3602 166.6239,-554.3009 181.741,-542.2072"/>
<polygon fill="#000000" stroke="#000000" points="184.0781,-544.8197 189.7004,-535.8397 179.7052,-539.3536 184.0781,-544.8197"/>
</g>
<!-- c&#45;&gt;c -->
<g id="edge16" class="edge">
<title>c&#45;&gt;c</title>
<path fill="none" stroke="#000000" d="M136.895,-606.4321C149.688,-609.6753 162,-605.5313 162,-594 162,-585.6218 155.5006,-581.1433 147.0395,-580.5644"/>
<polygon fill="#000000" stroke="#000000" points="146.5019,-577.1004 136.895,-581.5679 147.191,-584.0665 146.5019,-577.1004"/>
</g>
<!-- k -->
<g id="node17" class="node">
<title>k</title>
<g id="a_node17"><a xlink:title="k &#45; If/else not empty">
<ellipse fill="none" stroke="#000000" cx="297" cy="-594" rx="27" ry="18"/>
<text text-anchor="middle" x="297" y="-590.3" font-family="Times,serif" font-size="14.00" fill="#000000">k</text>
</a>
</g>
</g>
<!-- k&#45;&gt;$ -->
<g id="edge17" class="edge">
<title>k&#45;&gt;$</title>
<path fill="none" stroke="#000000" d="M279.6471,-580.1177C266.2003,-569.3602 247.3761,-554.3009 232.259,-542.2072"/>
<polygon fill="#000000" stroke="#000000" points="234.2948,-539.3536 224.2996,-535.8397 229.9219,-544.8197 234.2948,-539.3536"/>
</g>
<!-- t -->
<g id="node18" class="node">
<title>t</title>
<g id="a_node18"><a xlink:title="t &#45; Concatenate">
<ellipse fill="none" stroke="#000000" cx="180" cy="-666" rx="27" ry="18"/>
<text text-anchor="middle" x="180" y="-662.3" font-family="Times,serif" font-size="14.00" fill="#000000">t</text>
</a>
</g>
</g>
<!-- t&#45;&gt;k -->
<g id="edge18" class="edge">
<title>t&#45;&gt;k</title>
<path fill="none" stroke="#000000" d="M199.8475,-653.7862C218.673,-642.2013 247.1646,-624.6679 268.4321,-611.5803"/>
<polygon fill="#000000" stroke="#000000" points="270.3729,-614.4956 277.0552,-606.2737 266.7042,-608.5339 270.3729,-614.4956"/>
</g>
<!-- g -->
<g id="node19" class="node">
<title>g</title>
<g id="a_node19"><a xlink:title="g &#45; Compose">
<ellipse fill="none" stroke="#000000" cx="342" cy="-666" rx="27" ry="18"/>
<text text-anchor="middle" x="342" y="-662.3" font-family="Times,serif" font-size="14.00" fill="#000000">g</text>
</a>
</g>
</g>
<!-- g&#45;&gt;k -->
<g id="edge19" class="edge">
<title>g&#45;&gt;k</title>
<path fill="none" stroke="#000000" d="M331.563,-649.3008C326.0765,-640.5224 319.2314,-629.5703 313.0837,-619.7339"/>
<polygon fill="#000000" stroke="#000000" points="315.9609,-617.7336 307.6929,-611.1086 310.0249,-621.4436 315.9609,-617.7336"/>
</g>
<!-- g&#45;&gt;g -->
<g id="edge20" class="edge">
<title>g&#45;&gt;g</title>
<path fill="none" stroke="#000000" d="M361.895,-678.4321C374.688,-681.6753 387,-677.5313 387,-666 387,-657.6218 380.5006,-653.1433 372.0395,-652.5644"/>
<polygon fill="#000000" stroke="#000000" points="371.5019,-649.1004 361.895,-653.5679 372.191,-656.0665 371.5019,-649.1004"/>
</g>
<!-- v -->
<g id="node20" class="node">
<title>v</title>
<g id="a_node20"><a xlink:title="v &#45; Reverse">
<ellipse fill="none" stroke="#000000" cx="207" cy="-594" rx="27" ry="18"/>
<text text-anchor="middle" x="207" y="-590.3" font-family="Times,serif" font-size="14.00" fill="#000000">v</text>
</a>
</g>
</g>
<!-- v&#45;&gt;$ -->
<g id="edge21" class="edge">
<title>v&#45;&gt;$</title>
<path fill="none" stroke="#000000" d="M207,-575.8314C207,-568.131 207,-558.9743 207,-550.4166"/>
<polygon fill="#000000" stroke="#000000" points="210.5001,-550.4132 207,-540.4133 203.5001,-550.4133 210.5001,-550.4132"/>
</g>
<!-- v&#45;&gt;v -->
<g id="edge22" class="edge">
<title>v&#45;&gt;v</title>
<path fill="none" stroke="#000000" d="M226.895,-606.4321C239.688,-609.6753 252,-605.5313 252,-594 252,-585.6218 245.5006,-581.1433 237.0395,-580.5644"/>
<polygon fill="#000000" stroke="#000000" points="236.5019,-577.1004 226.895,-581.5679 237.191,-584.0665 236.5019,-577.1004"/>
</g>
<!-- m -->
<g id="node21" class="node">
<title>m</title>
<g id="a_node21"><a xlink:title="m &#45; Map">
<ellipse fill="none" stroke="#000000" cx="252" cy="-666" rx="27" ry="18"/>
<text text-anchor="middle" x="252" y="-662.3" font-family="Times,serif" font-size="14.00" fill="#000000">m</text>
</a>
</g>
</g>
<!-- m&#45;&gt;k -->
<g id="edge23" class="edge">
<title>m&#45;&gt;k</title>
<path fill="none" stroke="#000000" d="M262.437,-649.3008C267.9235,-640.5224 274.7686,-629.5703 280.9163,-619.7339"/>
<polygon fill="#000000" stroke="#000000" points="283.9751,-621.4436 286.3071,-611.1086 278.0391,-617.7336 283.9751,-621.4436"/>
</g>
<!-- m&#45;&gt;m -->
<g id="edge24" class="edge">
<title>m&#45;&gt;m</title>
<path fill="none" stroke="#000000" d="M271.895,-678.4321C284.688,-681.6753 297,-677.5313 297,-666 297,-657.6218 290.5006,-653.1433 282.0395,-652.5644"/>
<polygon fill="#000000" stroke="#000000" points="281.5019,-649.1004 271.895,-653.5679 282.191,-656.0665 281.5019,-649.1004"/>
</g>
<!-- p -->
<g id="node22" class="node">
<title>p</title>
<g id="a_node22"><a xlink:title="p &#45; Pipe">
<ellipse fill="none" stroke="#000000" cx="233" cy="-738" rx="27" ry="18"/>
<text text-anchor="middle" x="233" y="-734.3" font-family="Times,serif" font-size="14.00" fill="#000000">p</text>
</a>
</g>
</g>
<!-- p&#45;&gt;g -->
<g id="edge25" class="edge">
<title>p&#45;&gt;g</title>
<path fill="none" stroke="#000000" d="M252.2361,-725.2936C269.408,-713.9507 294.7651,-697.201 314.1527,-684.3946"/>
<polygon fill="#000000" stroke="#000000" points="316.1746,-687.2536 322.5896,-678.8216 312.3165,-681.4128 316.1746,-687.2536"/>
</g>
<!-- p&#45;&gt;v -->
<g id="edge26" class="edge">
<title>p&#45;&gt;v</title>
<path fill="none" stroke="#000000" d="M207.9588,-730.5117C186.7054,-722.6783 157.5645,-708.0962 144,-684 136.1512,-670.0574 137.3143,-662.5362 144,-648 150.9449,-632.9002 164.4262,-620.4426 177.1416,-611.3126"/>
<polygon fill="#000000" stroke="#000000" points="179.3898,-614.0185 185.7324,-605.5319 175.4819,-608.2109 179.3898,-614.0185"/>
</g>
<!-- r -->
<g id="node23" class="node">
<title>r</title>
<g id="a_node23"><a xlink:title="r &#45; Reduce">
<ellipse fill="none" stroke="#000000" cx="522" cy="-666" rx="27" ry="18"/>
<text text-anchor="middle" x="522" y="-662.3" font-family="Times,serif" font-size="14.00" fill="#000000">r</text>
</a>
</g>
</g>
<!-- r&#45;&gt;k -->
<g id="edge27" class="edge">
<title>r&#45;&gt;k</title>
<path fill="none" stroke="#000000" d="M501.0408,-654.4987C496.1949,-652.1288 490.9935,-649.8079 486,-648 420.3155,-624.2189 398.6845,-635.7811 333,-612 331.1275,-611.322 329.2257,-610.5719 327.3243,-609.7742"/>
<polygon fill="#000000" stroke="#000000" points="328.5099,-606.468 317.9592,-605.5013 325.6042,-612.8365 328.5099,-606.468"/>
</g>
<!-- r&#45;&gt;r -->
<g id="edge28" class="edge">
<title>r&#45;&gt;r</title>
<path fill="none" stroke="#000000" d="M541.895,-678.4321C554.688,-681.6753 567,-677.5313 567,-666 567,-657.6218 560.5006,-653.1433 552.0395,-652.5644"/>
<polygon fill="#000000" stroke="#000000" points="551.5019,-649.1004 541.895,-653.5679 552.191,-656.0665 551.5019,-649.1004"/>
</g>
<!-- s -->
<g id="node24" class="node">
<title>s</title>
<g id="a_node24"><a xlink:title="s &#45; String">
<ellipse fill="none" stroke="#000000" cx="450" cy="-738" rx="27" ry="18"/>
<text text-anchor="middle" x="450" y="-734.3" font-family="Times,serif" font-size="14.00" fill="#000000">s</text>
</a>
</g>
</g>
<!-- s&#45;&gt;r -->
<g id="edge29" class="edge">
<title>s&#45;&gt;r</title>
<path fill="none" stroke="#000000" d="M465.2693,-722.7307C475.197,-712.803 488.3153,-699.6847 499.4363,-688.5637"/>
<polygon fill="#000000" stroke="#000000" points="502.1564,-690.7933 506.7527,-681.2473 497.2067,-685.8436 502.1564,-690.7933"/>
</g>
<!-- j -->
<g id="node25" class="node">
<title>j</title>
<g id="a_node25"><a xlink:title="j &#45; Create object">
<ellipse fill="none" stroke="#000000" cx="522" cy="-738" rx="27" ry="18"/>
<text text-anchor="middle" x="522" y="-734.3" font-family="Times,serif" font-size="14.00" fill="#000000">j</text>
</a>
</g>
</g>
<!-- j&#45;&gt;r -->
<g id="edge30" class="edge">
<title>j&#45;&gt;r</title>
<path fill="none" stroke="#000000" d="M522,-719.8314C522,-712.131 522,-702.9743 522,-694.4166"/>
<polygon fill="#000000" stroke="#000000" points="525.5001,-694.4132 522,-684.4133 518.5001,-694.4133 525.5001,-694.4132"/>
</g>
<!-- j&#45;&gt;j -->
<g id="edge31" class="edge">
<title>j&#45;&gt;j</title>
<path fill="none" stroke="#000000" d="M541.895,-750.4321C554.688,-753.6753 567,-749.5313 567,-738 567,-729.6218 560.5006,-725.1433 552.0395,-724.5644"/>
<polygon fill="#000000" stroke="#000000" points="551.5019,-721.1004 541.895,-725.5679 552.191,-728.0665 551.5019,-721.1004"/>
</g>
<!-- u -->
<g id="node26" class="node">
<title>u</title>
<g id="a_node26"><a xlink:title="u &#45; Curry">
<ellipse fill="none" stroke="#000000" cx="369" cy="-594" rx="27" ry="18"/>
<text text-anchor="middle" x="369" y="-590.3" font-family="Times,serif" font-size="14.00" fill="#000000">u</text>
</a>
</g>
</g>
<!-- u&#45;&gt;b -->
<g id="edge35" class="edge">
<title>u&#45;&gt;b</title>
<path fill="none" stroke="#000000" d="M371.4926,-576.0535C374.9059,-551.4774 381.0693,-507.1008 385.0976,-478.0974"/>
<polygon fill="#000000" stroke="#000000" points="388.567,-478.5592 386.476,-468.1727 381.6335,-477.5961 388.567,-478.5592"/>
</g>
<!-- u&#45;&gt;$ -->
<g id="edge33" class="edge">
<title>u&#45;&gt;$</title>
<path fill="none" stroke="#000000" d="M347.398,-582.9415C342.678,-580.5975 337.6909,-578.1756 333,-576 301.7415,-561.5023 265.5386,-546.1312 239.982,-535.5116"/>
<polygon fill="#000000" stroke="#000000" points="240.9822,-532.1377 230.4038,-531.5469 238.3049,-538.6055 240.9822,-532.1377"/>
</g>
<!-- u&#45;&gt;d -->
<g id="edge32" class="edge">
<title>u&#45;&gt;d</title>
<path fill="none" stroke="#000000" d="M366.6674,-576.0624C363.503,-551.6315 357.7049,-506.5229 353,-468 347.2632,-421.0274 340.9199,-366.3497 337.2065,-334.0417"/>
<polygon fill="#000000" stroke="#000000" points="340.6699,-333.5219 336.0526,-323.9861 333.7155,-334.3199 340.6699,-333.5219"/>
</g>
<!-- u&#45;&gt;u -->
<g id="edge34" class="edge">
<title>u&#45;&gt;u</title>
<path fill="none" stroke="#000000" d="M388.895,-606.4321C401.688,-609.6753 414,-605.5313 414,-594 414,-585.6218 407.5006,-581.1433 399.0395,-580.5644"/>
<polygon fill="#000000" stroke="#000000" points="398.5019,-577.1004 388.895,-581.5679 399.191,-584.0665 398.5019,-577.1004"/>
</g>
<!-- h -->
<g id="node27" class="node">
<title>h</title>
<g id="a_node27"><a xlink:title="h &#45; Switch">
<ellipse fill="none" stroke="#000000" cx="432" cy="-666" rx="27" ry="18"/>
<text text-anchor="middle" x="432" y="-662.3" font-family="Times,serif" font-size="14.00" fill="#000000">h</text>
</a>
</g>
</g>
<!-- h&#45;&gt;k -->
<g id="edge36" class="edge">
<title>h&#45;&gt;k</title>
<path fill="none" stroke="#000000" d="M410.9063,-654.75C388.4504,-642.7735 352.7134,-623.7138 327.2599,-610.1386"/>
<polygon fill="#000000" stroke="#000000" points="328.8618,-607.0263 318.3912,-605.4086 325.5676,-613.2028 328.8618,-607.0263"/>
</g>
<!-- h&#45;&gt;h -->
<g id="edge37" class="edge">
<title>h&#45;&gt;h</title>
<path fill="none" stroke="#000000" d="M451.895,-678.4321C464.688,-681.6753 477,-677.5313 477,-666 477,-657.6218 470.5006,-653.1433 462.0395,-652.5644"/>
<polygon fill="#000000" stroke="#000000" points="461.5019,-649.1004 451.895,-653.5679 462.191,-656.0665 461.5019,-649.1004"/>
</g>
<!-- f -->
<g id="node28" class="node">
<title>f</title>
<g id="a_node28"><a xlink:title="f &#45; Filter">
<ellipse fill="none" stroke="#000000" cx="612" cy="-738" rx="27" ry="18"/>
<text text-anchor="middle" x="612" y="-734.3" font-family="Times,serif" font-size="14.00" fill="#000000">f</text>
</a>
</g>
</g>
<!-- f&#45;&gt;r -->
<g id="edge38" class="edge">
<title>f&#45;&gt;r</title>
<path fill="none" stroke="#000000" d="M594.6471,-724.1177C581.2003,-713.3602 562.3761,-698.3009 547.259,-686.2072"/>
<polygon fill="#000000" stroke="#000000" points="549.2948,-683.3536 539.2996,-679.8397 544.9219,-688.8197 549.2948,-683.3536"/>
</g>
</g>
<style>.node {
    pointer-events: all;
    cursor: default;
}

.node ellipse,
.node polygon {
    fill: transparent;
    -webkit-transition: fill 0.4s;
    -o-transition: fill 0.4s;
    transition: fill 0.4s;
}

.node.selected ellipse,
.node.selected polygon {
    -webkit-transition-duration: 0.2s;
    -o-transition-duration: 0.2s;
    transition-duration: 0.2s;
}

.node.selected.blue ellipse,
.node.selected.blue polygon {
    fill: #84b6c4 !important;
}

.node.selected.red ellipse,
.node.selected.red polygon {
    fill: #ff3856 !important;
}</style>
		<script id="graph-dependencies-script">
			var dependencies = new Map([["_", new Set([])],
["y", new Set([])],
["x", new Set([])],
["q", new Set([])],
["e", new Set([])],
["a", new Set(["l","e","y"])],
["l", new Set(["y"])],
["b", new Set(["l","e","a","y"])],
["$", new Set(["i","e","_","x","z","o","y","l","a","n"])],
["z", new Set(["l","a","y","e"])],
["d", new Set(["e","a","l","y"])],
["n", new Set(["e","z","l","a","y"])],
["o", new Set(["l","a","n","y","e","z"])],
["i", new Set(["_","x","z","o","y","l","a","e","n"])],
["w", new Set(["z","i","$","w","l","a","y","e","_","x","o","n"])],
["c", new Set(["z","i","$","e","c","a","l","y","_","x","o","n"])],
["k", new Set(["_","i","$","e","x","z","o","y","l","a","n"])],
["t", new Set(["y","k","$","_","i","e","x","z","o","l","a","n"])],
["g", new Set(["k","g","$","_","i","e","x","z","o","y","l","a","n"])],
["v", new Set(["i","$","e","y","v","_","x","z","o","l","a","n"])],
["m", new Set(["y","k","$","m","_","i","e","x","z","o","l","a","n"])],
["p", new Set(["g","v","k","$","_","i","e","x","z","o","y","l","a","n"])],
["r", new Set(["k","$","r","_","i","e","x","z","o","y","l","a","n"])],
["s", new Set(["r","a","y","k","$","_","i","e","x","z","o","l","n"])],
["j", new Set(["k","$","r","_","j","i","e","x","z","o","y","l","a","n"])],
["u", new Set(["d","i","$","l","u","b","e","a","y","_","x","z","o","n"])],
["h", new Set(["i","$","k","h","_","x","z","o","y","l","a","e","n"])],
["f", new Set(["r","i","$","y","k","_","e","x","z","o","l","a","n"])]]);
			var inverseDependencies = new Map([["_", new Set(["i","k","j","$","w","c","v","u","h","f","t","g","m","r","p","s"])],
["y", new Set(["l","i","t","v","m","s","f","a","b","z","o","u","d","c","n","w","k","$","h","g","r","j","p"])],
["x", new Set(["i","k","$","w","c","v","u","h","f","t","g","m","r","j","p","s"])],
["q", new Set([])],
["e", new Set(["a","b","$","d","n","c","k","v","z","o","s","u","i","w","h","f","t","g","m","r","j","p"])],
["a", new Set(["b","z","d","o","c","s","u","n","i","w","k","$","v","h","f","t","g","m","r","j","p"])],
["l", new Set(["a","b","z","o","u","d","c","s","n","i","w","k","$","v","h","f","t","g","m","r","j","p"])],
["b", new Set(["u"])],
["$", new Set(["w","c","k","t","g","v","m","r","j","u","h","f","p","s"])],
["i", new Set(["$","w","c","k","v","u","h","f","t","g","m","r","j","p","s"])],
["z", new Set(["n","i","w","c","k","o","$","v","u","h","f","t","g","m","r","j","p","s"])],
["d", new Set(["u"])],
["n", new Set(["o","i","$","w","c","k","v","u","h","f","t","g","m","r","j","p","s"])],
["o", new Set(["i","$","w","c","k","v","u","h","f","t","g","m","r","j","p","s"])],
["w", new Set(["w"])],
["c", new Set(["c"])],
["k", new Set(["t","g","m","r","j","h","p","s","f"])],
["t", new Set([])],
["g", new Set(["g","p"])],
["v", new Set(["v","p"])],
["m", new Set(["m"])],
["p", new Set([])],
["r", new Set(["r","s","j","f"])],
["s", new Set([])],
["j", new Set(["j"])],
["u", new Set(["u"])],
["h", new Set(["h"])],
["f", new Set([])]]);
			var scriptElement = document.getElementById('graph-dependencies-script');
var nodeCollection = scriptElement.parentElement.querySelectorAll('.node');
var addClass = function (element, cls) {
	cls.split(/\s+/).forEach(function (c) {
		var currentClass = element.getAttribute('class');
		if (currentClass.indexOf(c) === -1) {
			element.setAttribute('class', currentClass + ' ' + c);
		}
	});
};
var removeClass = function (element, cls) {
	cls.split(/\s+/).forEach(function (c) {
		element.setAttribute('class', (element.getAttribute('class') || '').replace(new RegExp('\\s*' + c, 'g'), ''));
	});
};
var getNodeName = function (nodeElement) {
	return nodeElement.querySelector('text').innerHTML;
};
var getNodeByName = function (fnName) {
	var result = null;
	[].some.call(nodeCollection, function (nodeElement, i) {
		if (getNodeName(nodeElement) === fnName) {
			result = nodeElement;
		}

		return result !== null;
	});
	return result;
};
var highlightColors = {
	children: 'blue',
	parents: 'red'
};
var highlight = function (root, nodes, color) {
	if (root === false) {
		currentlyHighlighted.nodes.forEach(function (nodeElement) {
			removeClass(nodeElement, 'selected ' + Object.keys(highlightColors).map(function (key) {
				return highlightColors[key];
			}).join(' '));
		});
		currentlyHighlighted = null;
	} else {
		nodes.forEach(function (nodeElement) {
			addClass(nodeElement, 'selected ' + color);
		});
		currentlyHighlighted = {
			root: root,
			nodes: nodes
		};
	}
};
var isShiftPressed = false;
var currentlyHighlighted = null;
var nodeRelations = new Map();

document.onkeydown = function(e) {
	if (e.code === 'ShiftLeft') {
		isShiftPressed = true;
		if (currentlyHighlighted !== null) {
			var root = currentlyHighlighted.root;
			highlight(false);
			highlight(root, nodeRelations.get(root).inverseDependencies, highlightColors.parents);
		}
	}
};

document.onkeyup = function(e) {
	if (e.code === 'ShiftLeft') {
		isShiftPressed = false;
		if (currentlyHighlighted !== null) {
			var root = currentlyHighlighted.root;
			highlight(false);
			highlight(root, nodeRelations.get(root).dependencies, highlightColors.children);
		}
	}
};

[].forEach.call(nodeCollection, function (nodeElement) {
	var nodeName = getNodeName(nodeElement);
	var nodeDependencies = new Set([nodeElement]);
	var inverseNodeDependencies = new Set([nodeElement]);

	dependencies.get(nodeName).forEach(function (name) {
		nodeDependencies.add(getNodeByName(name));
	});
	inverseDependencies.get(nodeName).forEach(function (name) {
		inverseNodeDependencies.add(getNodeByName(name));
	});

	nodeRelations.set(nodeElement, {
		dependencies: nodeDependencies,
		inverseDependencies: inverseNodeDependencies
	});

	nodeElement.onmouseenter = function () {
		if (isShiftPressed) {
			highlight(nodeElement, inverseNodeDependencies, highlightColors.parents);
		} else {
			highlight(nodeElement, nodeDependencies, highlightColors.children);
		}

	};
	nodeElement.onmouseleave = function () {
		highlight(false);
	};
});
		</script>
		</svg>
