<?xml version="1.0" encoding="UTF-8" standalone="no"?>
<!DOCTYPE svg PUBLIC "-//W3C//DTD SVG 1.1//EN"
 "http://www.w3.org/Graphics/SVG/1.1/DTD/svg11.dtd">
<!-- Generated by graphviz version 2.40.1 (20161225.0304)
 -->
<!-- Pages: 1 -->
<svg width="653pt" height="764pt"
 viewBox="0.00 0.00 653.00 764.00" xmlns="http://www.w3.org/2000/svg" xmlns:xlink="http://www.w3.org/1999/xlink">
<g id="graph0" class="graph" transform="scale(1 1) rotate(0) translate(4 760)">
<polygon fill="#ffffff" stroke="transparent" points="-4,4 -4,-760 649,-760 649,4 -4,4"/>
<!-- _ -->
<g id="node1" class="node">
<title>_</title>
<g id="a_node1"><a xlink:title="_ &#45; Identity">
<ellipse fill="none" stroke="#000000" cx="209" cy="-378" rx="27" ry="18"/>
<text text-anchor="middle" x="209" y="-374.3" font-family="Times,serif" font-size="14.00" fill="#000000">_</text>
</a>
</g>
</g>
<!-- y -->
<g id="node2" class="node">
<title>y</title>
<g id="a_node2"><a xlink:title="y &#45; Create array">
<ellipse fill="none" stroke="#000000" cx="118" cy="-18" rx="27" ry="18"/>
<text text-anchor="middle" x="118" y="-14.3" font-family="Times,serif" font-size="14.00" fill="#000000">y</text>
</a>
</g>
</g>
<!-- x -->
<g id="node3" class="node">
<title>x</title>
<g id="a_node3"><a xlink:title="x &#45; Extract">
<ellipse fill="none" stroke="#000000" cx="281" cy="-378" rx="27" ry="18"/>
<text text-anchor="middle" x="281" y="-374.3" font-family="Times,serif" font-size="14.00" fill="#000000">x</text>
</a>
</g>
</g>
<!-- q -->
<g id="node4" class="node">
<title>q</title>
<g id="a_node4"><a xlink:title="q &#45; Dequeue">
<ellipse fill="none" stroke="#000000" cx="618" cy="-738" rx="27" ry="18"/>
<text text-anchor="middle" x="618" y="-734.3" font-family="Times,serif" font-size="14.00" fill="#000000">q</text>
</a>
</g>
</g>
<!-- e -->
<g id="node5" class="node">
<title>e</title>
<g id="a_node5"><a xlink:title="e &#45; Compare equal">
<polygon fill="none" stroke="#000000" points="73,-108 19,-108 19,-72 73,-72 73,-108"/>
<text text-anchor="middle" x="46" y="-86.3" font-family="Times,serif" font-size="14.00" fill="#000000">e</text>
</a>
</g>
</g>
<!-- a -->
<g id="node6" class="node">
<title>a</title>
<g id="a_node6"><a xlink:title="a &#45; Add">
<polygon fill="none" stroke="#000000" points="109,-180 55,-180 55,-144 109,-144 109,-180"/>
<text text-anchor="middle" x="82" y="-158.3" font-family="Times,serif" font-size="14.00" fill="#000000">a</text>
</a>
</g>
</g>
<!-- a&#45;&gt;e -->
<g id="edge2" class="edge">
<title>a&#45;&gt;e</title>
<path fill="none" stroke="#000000" d="M72.9157,-143.8314C68.9385,-135.8771 64.1845,-126.369 59.7861,-117.5723"/>
<polygon fill="#000000" stroke="#000000" points="62.8093,-115.7923 55.2066,-108.4133 56.5483,-118.9228 62.8093,-115.7923"/>
</g>
<!-- l -->
<g id="node7" class="node">
<title>l</title>
<g id="a_node7"><a xlink:title="l &#45; Compare less">
<polygon fill="none" stroke="#000000" points="145,-108 91,-108 91,-72 145,-72 145,-108"/>
<text text-anchor="middle" x="118" y="-86.3" font-family="Times,serif" font-size="14.00" fill="#000000">l</text>
</a>
</g>
</g>
<!-- a&#45;&gt;l -->
<g id="edge1" class="edge">
<title>a&#45;&gt;l</title>
<path fill="none" stroke="#000000" d="M91.0843,-143.8314C95.0615,-135.8771 99.8155,-126.369 104.2139,-117.5723"/>
<polygon fill="#000000" stroke="#000000" points="107.4517,-118.9228 108.7934,-108.4133 101.1907,-115.7923 107.4517,-118.9228"/>
</g>
<!-- l&#45;&gt;y -->
<g id="edge3" class="edge">
<title>l&#45;&gt;y</title>
<path fill="none" stroke="#000000" d="M118,-71.8314C118,-64.131 118,-54.9743 118,-46.4166"/>
<polygon fill="#000000" stroke="#000000" points="121.5001,-46.4132 118,-36.4133 114.5001,-46.4133 121.5001,-46.4132"/>
</g>
<!-- b -->
<g id="node8" class="node">
<title>b</title>
<g id="a_node8"><a xlink:title="b &#45; Subtract">
<polygon fill="none" stroke="#000000" points="109,-468 55,-468 55,-432 109,-432 109,-468"/>
<text text-anchor="middle" x="82" y="-446.3" font-family="Times,serif" font-size="14.00" fill="#000000">b</text>
</a>
</g>
</g>
<!-- b&#45;&gt;a -->
<g id="edge4" class="edge">
<title>b&#45;&gt;a</title>
<path fill="none" stroke="#000000" d="M82,-431.9843C82,-383.2939 82,-248.7961 82,-190.0573"/>
<polygon fill="#000000" stroke="#000000" points="85.5001,-190.0088 82,-180.0089 78.5001,-190.0089 85.5001,-190.0088"/>
</g>
<!-- $ -->
<g id="node9" class="node">
<title>$</title>
<g id="a_node9"><a xlink:title="$ &#45; Wrap">
<ellipse fill="none" stroke="#000000" cx="209" cy="-522" rx="27" ry="18"/>
<text text-anchor="middle" x="209" y="-518.3" font-family="Times,serif" font-size="14.00" fill="#000000">$</text>
</a>
</g>
</g>
<!-- i -->
<g id="node14" class="node">
<title>i</title>
<g id="a_node14"><a xlink:title="i &#45; If/else">
<ellipse fill="none" stroke="#000000" cx="209" cy="-450" rx="27" ry="18"/>
<text text-anchor="middle" x="209" y="-446.3" font-family="Times,serif" font-size="14.00" fill="#000000">i</text>
</a>
</g>
</g>
<!-- $&#45;&gt;i -->
<g id="edge5" class="edge">
<title>$&#45;&gt;i</title>
<path fill="none" stroke="#000000" d="M209,-503.8314C209,-496.131 209,-486.9743 209,-478.4166"/>
<polygon fill="#000000" stroke="#000000" points="212.5001,-478.4132 209,-468.4133 205.5001,-478.4133 212.5001,-478.4132"/>
</g>
<!-- z -->
<g id="node10" class="node">
<title>z</title>
<g id="a_node10"><a xlink:title="z &#45; Zero">
<ellipse fill="none" stroke="#000000" cx="137" cy="-234" rx="27" ry="18"/>
<text text-anchor="middle" x="137" y="-230.3" font-family="Times,serif" font-size="14.00" fill="#000000">z</text>
</a>
</g>
</g>
<!-- z&#45;&gt;a -->
<g id="edge6" class="edge">
<title>z&#45;&gt;a</title>
<path fill="none" stroke="#000000" d="M124.5196,-217.6621C117.8342,-208.9102 109.4404,-197.922 101.8806,-188.0255"/>
<polygon fill="#000000" stroke="#000000" points="104.6341,-185.8644 95.7823,-180.0423 99.0714,-190.1137 104.6341,-185.8644"/>
</g>
<!-- d -->
<g id="node11" class="node">
<title>d</title>
<g id="a_node11"><a xlink:title="d &#45; Double">
<ellipse fill="none" stroke="#000000" cx="27" cy="-306" rx="27" ry="18"/>
<text text-anchor="middle" x="27" y="-302.3" font-family="Times,serif" font-size="14.00" fill="#000000">d</text>
</a>
</g>
</g>
<!-- d&#45;&gt;a -->
<g id="edge7" class="edge">
<title>d&#45;&gt;a</title>
<path fill="none" stroke="#000000" d="M33.7441,-288.3428C43.1354,-263.7545 60.2478,-218.9511 71.3668,-189.8397"/>
<polygon fill="#000000" stroke="#000000" points="74.7288,-190.8466 75.0272,-180.256 68.1895,-188.3489 74.7288,-190.8466"/>
</g>
<!-- n -->
<g id="node12" class="node">
<title>n</title>
<g id="a_node12"><a xlink:title="n &#45; Logical negation">
<ellipse fill="none" stroke="#000000" cx="137" cy="-306" rx="27" ry="18"/>
<text text-anchor="middle" x="137" y="-302.3" font-family="Times,serif" font-size="14.00" fill="#000000">n</text>
</a>
</g>
</g>
<!-- n&#45;&gt;z -->
<g id="edge8" class="edge">
<title>n&#45;&gt;z</title>
<path fill="none" stroke="#000000" d="M137,-287.8314C137,-280.131 137,-270.9743 137,-262.4166"/>
<polygon fill="#000000" stroke="#000000" points="140.5001,-262.4132 137,-252.4133 133.5001,-262.4133 140.5001,-262.4132"/>
</g>
<!-- o -->
<g id="node13" class="node">
<title>o</title>
<g id="a_node13"><a xlink:title="o &#45; Logical OR">
<ellipse fill="none" stroke="#000000" cx="137" cy="-378" rx="27" ry="18"/>
<text text-anchor="middle" x="137" y="-374.3" font-family="Times,serif" font-size="14.00" fill="#000000">o</text>
</a>
</g>
</g>
<!-- o&#45;&gt;n -->
<g id="edge9" class="edge">
<title>o&#45;&gt;n</title>
<path fill="none" stroke="#000000" d="M137,-359.8314C137,-352.131 137,-342.9743 137,-334.4166"/>
<polygon fill="#000000" stroke="#000000" points="140.5001,-334.4132 137,-324.4133 133.5001,-334.4133 140.5001,-334.4132"/>
</g>
<!-- i&#45;&gt;_ -->
<g id="edge10" class="edge">
<title>i&#45;&gt;_</title>
<path fill="none" stroke="#000000" d="M209,-431.8314C209,-424.131 209,-414.9743 209,-406.4166"/>
<polygon fill="#000000" stroke="#000000" points="212.5001,-406.4132 209,-396.4133 205.5001,-406.4133 212.5001,-406.4132"/>
</g>
<!-- i&#45;&gt;x -->
<g id="edge11" class="edge">
<title>i&#45;&gt;x</title>
<path fill="none" stroke="#000000" d="M224.2693,-434.7307C234.197,-424.803 247.3153,-411.6847 258.4363,-400.5637"/>
<polygon fill="#000000" stroke="#000000" points="261.1564,-402.7933 265.7527,-393.2473 256.2067,-397.8436 261.1564,-402.7933"/>
</g>
<!-- i&#45;&gt;o -->
<g id="edge12" class="edge">
<title>i&#45;&gt;o</title>
<path fill="none" stroke="#000000" d="M193.7307,-434.7307C183.803,-424.803 170.6847,-411.6847 159.5637,-400.5637"/>
<polygon fill="#000000" stroke="#000000" points="161.7933,-397.8436 152.2473,-393.2473 156.8436,-402.7933 161.7933,-397.8436"/>
</g>
<!-- w -->
<g id="node15" class="node">
<title>w</title>
<g id="a_node15"><a xlink:title="w &#45; While">
<ellipse fill="none" stroke="#000000" cx="141" cy="-594" rx="27" ry="18"/>
<text text-anchor="middle" x="141" y="-590.3" font-family="Times,serif" font-size="14.00" fill="#000000">w</text>
</a>
</g>
</g>
<!-- w&#45;&gt;$ -->
<g id="edge14" class="edge">
<title>w&#45;&gt;$</title>
<path fill="none" stroke="#000000" d="M155.4211,-578.7307C164.7972,-568.803 177.1867,-555.6847 187.6899,-544.5637"/>
<polygon fill="#000000" stroke="#000000" points="190.278,-546.9207 194.5997,-537.2473 185.1889,-542.1143 190.278,-546.9207"/>
</g>
<!-- w&#45;&gt;w -->
<g id="edge13" class="edge">
<title>w&#45;&gt;w</title>
<path fill="none" stroke="#000000" d="M160.895,-606.4321C173.688,-609.6753 186,-605.5313 186,-594 186,-585.6218 179.5006,-581.1433 171.0395,-580.5644"/>
<polygon fill="#000000" stroke="#000000" points="170.5019,-577.1004 160.895,-581.5679 171.191,-584.0665 170.5019,-577.1004"/>
</g>
<!-- c -->
<g id="node16" class="node">
<title>c</title>
<g id="a_node16"><a xlink:title="c &#45; Count">
<ellipse fill="none" stroke="#000000" cx="231" cy="-594" rx="27" ry="18"/>
<text text-anchor="middle" x="231" y="-590.3" font-family="Times,serif" font-size="14.00" fill="#000000">c</text>
</a>
</g>
</g>
<!-- c&#45;&gt;$ -->
<g id="edge15" class="edge">
<title>c&#45;&gt;$</title>
<path fill="none" stroke="#000000" d="M225.5618,-576.2022C223.1026,-568.1541 220.1402,-558.4588 217.4048,-549.5067"/>
<polygon fill="#000000" stroke="#000000" points="220.7214,-548.3833 214.4519,-539.8425 214.0269,-550.4289 220.7214,-548.3833"/>
</g>
<!-- c&#45;&gt;c -->
<g id="edge16" class="edge">
<title>c&#45;&gt;c</title>
<path fill="none" stroke="#000000" d="M250.895,-606.4321C263.688,-609.6753 276,-605.5313 276,-594 276,-585.6218 269.5006,-581.1433 261.0395,-580.5644"/>
<polygon fill="#000000" stroke="#000000" points="260.5019,-577.1004 250.895,-581.5679 261.191,-584.0665 260.5019,-577.1004"/>
</g>
<!-- k -->
<g id="node17" class="node">
<title>k</title>
<g id="a_node17"><a xlink:title="k &#45; If/else not empty">
<ellipse fill="none" stroke="#000000" cx="321" cy="-594" rx="27" ry="18"/>
<text text-anchor="middle" x="321" y="-590.3" font-family="Times,serif" font-size="14.00" fill="#000000">k</text>
</a>
</g>
</g>
<!-- k&#45;&gt;$ -->
<g id="edge17" class="edge">
<title>k&#45;&gt;$</title>
<path fill="none" stroke="#000000" d="M301.4911,-581.4586C283.6933,-570.0171 257.1855,-552.9764 237.1047,-540.0673"/>
<polygon fill="#000000" stroke="#000000" points="238.9656,-537.1028 228.6611,-534.6393 235.1803,-542.9911 238.9656,-537.1028"/>
</g>
<!-- t -->
<g id="node18" class="node">
<title>t</title>
<g id="a_node18"><a xlink:title="t &#45; Concatenate">
<ellipse fill="none" stroke="#000000" cx="114" cy="-666" rx="27" ry="18"/>
<text text-anchor="middle" x="114" y="-662.3" font-family="Times,serif" font-size="14.00" fill="#000000">t</text>
</a>
</g>
</g>
<!-- t&#45;&gt;k -->
<g id="edge18" class="edge">
<title>t&#45;&gt;k</title>
<path fill="none" stroke="#000000" d="M134.9996,-654.6077C139.8434,-652.2321 145.0338,-649.8814 150,-648 208.0695,-626.0015 226.9305,-633.9985 285,-612 286.8623,-611.2945 288.7562,-610.523 290.6515,-609.7089"/>
<polygon fill="#000000" stroke="#000000" points="292.3886,-612.762 300.0004,-605.3923 289.4542,-606.4067 292.3886,-612.762"/>
</g>
<!-- g -->
<g id="node19" class="node">
<title>g</title>
<g id="a_node19"><a xlink:title="g &#45; Compose">
<ellipse fill="none" stroke="#000000" cx="186" cy="-666" rx="27" ry="18"/>
<text text-anchor="middle" x="186" y="-662.3" font-family="Times,serif" font-size="14.00" fill="#000000">g</text>
</a>
</g>
</g>
<!-- g&#45;&gt;k -->
<g id="edge19" class="edge">
<title>g&#45;&gt;k</title>
<path fill="none" stroke="#000000" d="M207.0938,-654.75C229.5496,-642.7735 265.2866,-623.7138 290.7401,-610.1386"/>
<polygon fill="#000000" stroke="#000000" points="292.4324,-613.2028 299.6088,-605.4086 289.1382,-607.0263 292.4324,-613.2028"/>
</g>
<!-- g&#45;&gt;g -->
<g id="edge20" class="edge">
<title>g&#45;&gt;g</title>
<path fill="none" stroke="#000000" d="M205.895,-678.4321C218.688,-681.6753 231,-677.5313 231,-666 231,-657.6218 224.5006,-653.1433 216.0395,-652.5644"/>
<polygon fill="#000000" stroke="#000000" points="215.5019,-649.1004 205.895,-653.5679 216.191,-656.0665 215.5019,-649.1004"/>
</g>
<!-- v -->
<g id="node20" class="node">
<title>v</title>
<g id="a_node20"><a xlink:title="v &#45; Reverse">
<ellipse fill="none" stroke="#000000" cx="276" cy="-666" rx="27" ry="18"/>
<text text-anchor="middle" x="276" y="-662.3" font-family="Times,serif" font-size="14.00" fill="#000000">v</text>
</a>
</g>
</g>
<!-- v&#45;&gt;k -->
<g id="edge21" class="edge">
<title>v&#45;&gt;k</title>
<path fill="none" stroke="#000000" d="M286.437,-649.3008C291.9235,-640.5224 298.7686,-629.5703 304.9163,-619.7339"/>
<polygon fill="#000000" stroke="#000000" points="307.9751,-621.4436 310.3071,-611.1086 302.0391,-617.7336 307.9751,-621.4436"/>
</g>
<!-- v&#45;&gt;v -->
<g id="edge22" class="edge">
<title>v&#45;&gt;v</title>
<path fill="none" stroke="#000000" d="M295.895,-678.4321C308.688,-681.6753 321,-677.5313 321,-666 321,-657.6218 314.5006,-653.1433 306.0395,-652.5644"/>
<polygon fill="#000000" stroke="#000000" points="305.5019,-649.1004 295.895,-653.5679 306.191,-656.0665 305.5019,-649.1004"/>
</g>
<!-- m -->
<g id="node21" class="node">
<title>m</title>
<g id="a_node21"><a xlink:title="m &#45; Map">
<ellipse fill="none" stroke="#000000" cx="366" cy="-666" rx="27" ry="18"/>
<text text-anchor="middle" x="366" y="-662.3" font-family="Times,serif" font-size="14.00" fill="#000000">m</text>
</a>
</g>
</g>
<!-- m&#45;&gt;k -->
<g id="edge23" class="edge">
<title>m&#45;&gt;k</title>
<path fill="none" stroke="#000000" d="M355.563,-649.3008C350.0765,-640.5224 343.2314,-629.5703 337.0837,-619.7339"/>
<polygon fill="#000000" stroke="#000000" points="339.9609,-617.7336 331.6929,-611.1086 334.0249,-621.4436 339.9609,-617.7336"/>
</g>
<!-- m&#45;&gt;m -->
<g id="edge24" class="edge">
<title>m&#45;&gt;m</title>
<path fill="none" stroke="#000000" d="M385.895,-678.4321C398.688,-681.6753 411,-677.5313 411,-666 411,-657.6218 404.5006,-653.1433 396.0395,-652.5644"/>
<polygon fill="#000000" stroke="#000000" points="395.5019,-649.1004 385.895,-653.5679 396.191,-656.0665 395.5019,-649.1004"/>
</g>
<!-- p -->
<g id="node22" class="node">
<title>p</title>
<g id="a_node22"><a xlink:title="p &#45; Pipe">
<ellipse fill="none" stroke="#000000" cx="231" cy="-738" rx="27" ry="18"/>
<text text-anchor="middle" x="231" y="-734.3" font-family="Times,serif" font-size="14.00" fill="#000000">p</text>
</a>
</g>
</g>
<!-- p&#45;&gt;g -->
<g id="edge25" class="edge">
<title>p&#45;&gt;g</title>
<path fill="none" stroke="#000000" d="M220.563,-721.3008C215.0765,-712.5224 208.2314,-701.5703 202.0837,-691.7339"/>
<polygon fill="#000000" stroke="#000000" points="204.9609,-689.7336 196.6929,-683.1086 199.0249,-693.4436 204.9609,-689.7336"/>
</g>
<!-- p&#45;&gt;v -->
<g id="edge26" class="edge">
<title>p&#45;&gt;v</title>
<path fill="none" stroke="#000000" d="M241.437,-721.3008C246.9235,-712.5224 253.7686,-701.5703 259.9163,-691.7339"/>
<polygon fill="#000000" stroke="#000000" points="262.9751,-693.4436 265.3071,-683.1086 257.0391,-689.7336 262.9751,-693.4436"/>
</g>
<!-- r -->
<g id="node23" class="node">
<title>r</title>
<g id="a_node23"><a xlink:title="r &#45; Reduce">
<ellipse fill="none" stroke="#000000" cx="456" cy="-666" rx="27" ry="18"/>
<text text-anchor="middle" x="456" y="-662.3" font-family="Times,serif" font-size="14.00" fill="#000000">r</text>
</a>
</g>
</g>
<!-- r&#45;&gt;k -->
<g id="edge27" class="edge">
<title>r&#45;&gt;k</title>
<path fill="none" stroke="#000000" d="M434.9063,-654.75C412.4504,-642.7735 376.7134,-623.7138 351.2599,-610.1386"/>
<polygon fill="#000000" stroke="#000000" points="352.8618,-607.0263 342.3912,-605.4086 349.5676,-613.2028 352.8618,-607.0263"/>
</g>
<!-- r&#45;&gt;r -->
<g id="edge28" class="edge">
<title>r&#45;&gt;r</title>
<path fill="none" stroke="#000000" d="M475.895,-678.4321C488.688,-681.6753 501,-677.5313 501,-666 501,-657.6218 494.5006,-653.1433 486.0395,-652.5644"/>
<polygon fill="#000000" stroke="#000000" points="485.5019,-649.1004 475.895,-653.5679 486.191,-656.0665 485.5019,-649.1004"/>
</g>
<!-- s -->
<g id="node24" class="node">
<title>s</title>
<g id="a_node24"><a xlink:title="s &#45; String">
<ellipse fill="none" stroke="#000000" cx="384" cy="-738" rx="27" ry="18"/>
<text text-anchor="middle" x="384" y="-734.3" font-family="Times,serif" font-size="14.00" fill="#000000">s</text>
</a>
</g>
</g>
<!-- s&#45;&gt;r -->
<g id="edge29" class="edge">
<title>s&#45;&gt;r</title>
<path fill="none" stroke="#000000" d="M399.2693,-722.7307C409.197,-712.803 422.3153,-699.6847 433.4363,-688.5637"/>
<polygon fill="#000000" stroke="#000000" points="436.1564,-690.7933 440.7527,-681.2473 431.2067,-685.8436 436.1564,-690.7933"/>
</g>
<!-- j -->
<g id="node25" class="node">
<title>j</title>
<g id="a_node25"><a xlink:title="j &#45; Create object">
<ellipse fill="none" stroke="#000000" cx="456" cy="-738" rx="27" ry="18"/>
<text text-anchor="middle" x="456" y="-734.3" font-family="Times,serif" font-size="14.00" fill="#000000">j</text>
</a>
</g>
</g>
<!-- j&#45;&gt;r -->
<g id="edge30" class="edge">
<title>j&#45;&gt;r</title>
<path fill="none" stroke="#000000" d="M456,-719.8314C456,-712.131 456,-702.9743 456,-694.4166"/>
<polygon fill="#000000" stroke="#000000" points="459.5001,-694.4132 456,-684.4133 452.5001,-694.4133 459.5001,-694.4132"/>
</g>
<!-- j&#45;&gt;j -->
<g id="edge31" class="edge">
<title>j&#45;&gt;j</title>
<path fill="none" stroke="#000000" d="M475.895,-750.4321C488.688,-753.6753 501,-749.5313 501,-738 501,-729.6218 494.5006,-725.1433 486.0395,-724.5644"/>
<polygon fill="#000000" stroke="#000000" points="485.5019,-721.1004 475.895,-725.5679 486.191,-728.0665 485.5019,-721.1004"/>
</g>
<!-- u -->
<g id="node26" class="node">
<title>u</title>
<g id="a_node26"><a xlink:title="u &#45; Curry">
<ellipse fill="none" stroke="#000000" cx="51" cy="-594" rx="27" ry="18"/>
<text text-anchor="middle" x="51" y="-590.3" font-family="Times,serif" font-size="14.00" fill="#000000">u</text>
</a>
</g>
</g>
<!-- u&#45;&gt;b -->
<g id="edge35" class="edge">
<title>u&#45;&gt;b</title>
<path fill="none" stroke="#000000" d="M54.8635,-576.0535C60.1542,-551.4774 69.7075,-507.1008 75.9512,-478.0974"/>
<polygon fill="#000000" stroke="#000000" points="79.4048,-478.6854 78.0878,-468.1727 72.5616,-477.2121 79.4048,-478.6854"/>
</g>
<!-- u&#45;&gt;$ -->
<g id="edge33" class="edge">
<title>u&#45;&gt;$</title>
<path fill="none" stroke="#000000" d="M73.3024,-583.8369C100.3977,-571.4897 146.2998,-550.5722 177.1216,-536.5269"/>
<polygon fill="#000000" stroke="#000000" points="178.9074,-539.5594 186.5558,-532.2278 176.0047,-533.1896 178.9074,-539.5594"/>
</g>
<!-- u&#45;&gt;d -->
<g id="edge32" class="edge">
<title>u&#45;&gt;d</title>
<path fill="none" stroke="#000000" d="M49.4987,-575.9843C45.4412,-527.2939 34.233,-392.7961 29.3381,-334.0573"/>
<polygon fill="#000000" stroke="#000000" points="32.8192,-333.6836 28.5007,-324.0089 25.8434,-334.265 32.8192,-333.6836"/>
</g>
<!-- u&#45;&gt;u -->
<g id="edge34" class="edge">
<title>u&#45;&gt;u</title>
<path fill="none" stroke="#000000" d="M70.895,-606.4321C83.688,-609.6753 96,-605.5313 96,-594 96,-585.6218 89.5006,-581.1433 81.0395,-580.5644"/>
<polygon fill="#000000" stroke="#000000" points="80.5019,-577.1004 70.895,-581.5679 81.191,-584.0665 80.5019,-577.1004"/>
</g>
<!-- h -->
<g id="node27" class="node">
<title>h</title>
<g id="a_node27"><a xlink:title="h &#45; Switch">
<ellipse fill="none" stroke="#000000" cx="546" cy="-666" rx="27" ry="18"/>
<text text-anchor="middle" x="546" y="-662.3" font-family="Times,serif" font-size="14.00" fill="#000000">h</text>
</a>
</g>
</g>
<!-- h&#45;&gt;k -->
<g id="edge36" class="edge">
<title>h&#45;&gt;k</title>
<path fill="none" stroke="#000000" d="M524.9754,-654.6728C520.1329,-652.2938 514.9494,-649.9252 510,-648 458.1083,-627.815 395.5891,-611.4244 357.068,-602.1908"/>
<polygon fill="#000000" stroke="#000000" points="357.4052,-598.6741 346.8682,-599.779 355.7944,-605.4862 357.4052,-598.6741"/>
</g>
<!-- h&#45;&gt;h -->
<g id="edge37" class="edge">
<title>h&#45;&gt;h</title>
<path fill="none" stroke="#000000" d="M565.895,-678.4321C578.688,-681.6753 591,-677.5313 591,-666 591,-657.6218 584.5006,-653.1433 576.0395,-652.5644"/>
<polygon fill="#000000" stroke="#000000" points="575.5019,-649.1004 565.895,-653.5679 576.191,-656.0665 575.5019,-649.1004"/>
</g>
<!-- f -->
<g id="node28" class="node">
<title>f</title>
<g id="a_node28"><a xlink:title="f &#45; Filter">
<ellipse fill="none" stroke="#000000" cx="546" cy="-738" rx="27" ry="18"/>
<text text-anchor="middle" x="546" y="-734.3" font-family="Times,serif" font-size="14.00" fill="#000000">f</text>
</a>
</g>
</g>
<!-- f&#45;&gt;r -->
<g id="edge38" class="edge">
<title>f&#45;&gt;r</title>
<path fill="none" stroke="#000000" d="M528.6471,-724.1177C515.2003,-713.3602 496.3761,-698.3009 481.259,-686.2072"/>
<polygon fill="#000000" stroke="#000000" points="483.2948,-683.3536 473.2996,-679.8397 478.9219,-688.8197 483.2948,-683.3536"/>
</g>
</g>
<style>.node {
    pointer-events: all;
    cursor: default;
}

.node ellipse,
.node polygon {
    fill: transparent;
    -webkit-transition: fill 0.4s;
    -o-transition: fill 0.4s;
    transition: fill 0.4s;
}

.node.selected ellipse,
.node.selected polygon {
    -webkit-transition-duration: 0.2s;
    -o-transition-duration: 0.2s;
    transition-duration: 0.2s;
}

.node.selected.blue ellipse,
.node.selected.blue polygon {
    fill: #84b6c4 !important;
}

.node.selected.red ellipse,
.node.selected.red polygon {
    fill: #ff3856 !important;
}</style>
		<script id="graph-dependencies-script">
			var dependencies = new Map([["_", new Set([])],
["y", new Set([])],
["x", new Set([])],
["q", new Set([])],
["e", new Set([])],
["a", new Set(["l","e","y"])],
["l", new Set(["y"])],
["b", new Set(["l","e","a","y"])],
["$", new Set(["i","e","_","x","z","o","y","l","a","n"])],
["z", new Set(["l","a","y","e"])],
["d", new Set(["e","a","l","y"])],
["n", new Set(["e","z","l","a","y"])],
["o", new Set(["l","a","n","y","e","z"])],
["i", new Set(["_","x","z","o","y","l","a","e","n"])],
["w", new Set(["i","w","$","_","x","z","o","y","l","a","e","n"])],
["c", new Set(["z","i","$","e","c","a","l","y","_","x","o","n"])],
["k", new Set(["_","i","$","e","x","z","o","y","l","a","n"])],
["t", new Set(["y","k","$","_","i","e","x","z","o","l","a","n"])],
["g", new Set(["k","g","$","_","i","e","x","z","o","y","l","a","n"])],
["v", new Set(["y","k","$","v","_","i","e","x","z","o","l","a","n"])],
["m", new Set(["y","k","$","m","_","i","e","x","z","o","l","a","n"])],
["p", new Set(["g","v","k","$","_","i","e","x","z","o","y","l","a","n"])],
["r", new Set(["k","$","r","_","i","e","x","z","o","y","l","a","n"])],
["s", new Set(["r","a","y","k","$","_","i","e","x","z","o","l","n"])],
["j", new Set(["k","$","r","_","j","i","e","x","z","o","y","l","a","n"])],
["u", new Set(["d","i","$","l","u","b","e","a","y","_","x","z","o","n"])],
["h", new Set(["i","$","k","h","_","x","z","o","y","l","a","e","n"])],
["f", new Set(["r","i","$","y","k","_","e","x","z","o","l","a","n"])]]);
			var inverseDependencies = new Map([["_", new Set(["i","k","j","$","w","c","u","h","f","t","g","v","m","r","p","s"])],
["y", new Set(["l","i","t","v","m","s","f","a","b","z","o","u","d","c","n","k","$","w","h","g","r","j","p"])],
["x", new Set(["i","k","$","w","c","u","h","f","t","g","v","m","r","j","p","s"])],
["q", new Set([])],
["e", new Set(["a","b","$","d","n","c","k","z","o","s","u","i","w","h","f","t","g","v","m","r","j","p"])],
["a", new Set(["b","z","d","o","c","s","u","n","i","k","$","w","h","f","t","g","v","m","r","j","p"])],
["l", new Set(["a","b","z","o","u","d","c","s","n","i","k","$","w","h","f","t","g","v","m","r","j","p"])],
["b", new Set(["u"])],
["$", new Set(["w","c","k","t","g","v","m","r","j","u","h","f","p","s"])],
["i", new Set(["$","w","c","k","u","h","f","t","g","v","m","r","j","p","s"])],
["z", new Set(["n","i","c","k","o","$","w","u","h","f","t","g","v","m","r","j","p","s"])],
["d", new Set(["u"])],
["n", new Set(["o","i","$","w","c","k","u","h","f","t","g","v","m","r","j","p","s"])],
["o", new Set(["i","$","w","c","k","u","h","f","t","g","v","m","r","j","p","s"])],
["w", new Set(["w"])],
["c", new Set(["c"])],
["k", new Set(["t","g","v","m","r","j","h","p","s","f"])],
["t", new Set([])],
["g", new Set(["g","p"])],
["v", new Set(["v","p"])],
["m", new Set(["m"])],
["p", new Set([])],
["r", new Set(["r","s","j","f"])],
["s", new Set([])],
["j", new Set(["j"])],
["u", new Set(["u"])],
["h", new Set(["h"])],
["f", new Set([])]]);
			var scriptElement = document.getElementById('graph-dependencies-script');
var nodeCollection = scriptElement.parentElement.querySelectorAll('.node');
var addClass = function (element, cls) {
	cls.split(/\s+/).forEach(function (c) {
		var currentClass = element.getAttribute('class');
		if (currentClass.indexOf(c) === -1) {
			element.setAttribute('class', currentClass + ' ' + c);
		}
	});
};
var removeClass = function (element, cls) {
	cls.split(/\s+/).forEach(function (c) {
		element.setAttribute('class', (element.getAttribute('class') || '').replace(new RegExp('\\s*' + c, 'g'), ''));
	});
};
var getNodeName = function (nodeElement) {
	return nodeElement.querySelector('text').innerHTML;
};
var getNodeByName = function (fnName) {
	var result = null;
	[].some.call(nodeCollection, function (nodeElement, i) {
		if (getNodeName(nodeElement) === fnName) {
			result = nodeElement;
		}

		return result !== null;
	});
	return result;
};
var highlightColors = {
	children: 'blue',
	parents: 'red'
};
var highlight = function (root, nodes, color) {
	if (root === false) {
		currentlyHighlighted.nodes.forEach(function (nodeElement) {
			removeClass(nodeElement, 'selected ' + Object.keys(highlightColors).map(function (key) {
				return highlightColors[key];
			}).join(' '));
		});
		currentlyHighlighted = null;
	} else {
		nodes.forEach(function (nodeElement) {
			addClass(nodeElement, 'selected ' + color);
		});
		currentlyHighlighted = {
			root: root,
			nodes: nodes
		};
	}
};
var isShiftPressed = false;
var currentlyHighlighted = null;
var nodeRelations = new Map();

document.onkeydown = function(e) {
	if (e.code === 'ShiftLeft') {
		isShiftPressed = true;
		if (currentlyHighlighted !== null) {
			var root = currentlyHighlighted.root;
			highlight(false);
			highlight(root, nodeRelations.get(root).inverseDependencies, highlightColors.parents);
		}
	}
};

document.onkeyup = function(e) {
	if (e.code === 'ShiftLeft') {
		isShiftPressed = false;
		if (currentlyHighlighted !== null) {
			var root = currentlyHighlighted.root;
			highlight(false);
			highlight(root, nodeRelations.get(root).dependencies, highlightColors.children);
		}
	}
};

[].forEach.call(nodeCollection, function (nodeElement) {
	var nodeName = getNodeName(nodeElement);
	var nodeDependencies = new Set([nodeElement]);
	var inverseNodeDependencies = new Set([nodeElement]);

	dependencies.get(nodeName).forEach(function (name) {
		nodeDependencies.add(getNodeByName(name));
	});
	inverseDependencies.get(nodeName).forEach(function (name) {
		inverseNodeDependencies.add(getNodeByName(name));
	});

	nodeRelations.set(nodeElement, {
		dependencies: nodeDependencies,
		inverseDependencies: inverseNodeDependencies
	});

	nodeElement.onmouseenter = function () {
		if (isShiftPressed) {
			highlight(nodeElement, inverseNodeDependencies, highlightColors.parents);
		} else {
			highlight(nodeElement, nodeDependencies, highlightColors.children);
		}

	};
	nodeElement.onmouseleave = function () {
		highlight(false);
	};
});
		</script>
		</svg>
