<?xml version="1.0" encoding="UTF-8" standalone="no"?>
<!DOCTYPE svg PUBLIC "-//W3C//DTD SVG 1.1//EN"
 "http://www.w3.org/Graphics/SVG/1.1/DTD/svg11.dtd">
<!-- Generated by graphviz version 2.40.1 (20161225.0304)
 -->
<!-- Pages: 1 -->
<svg width="584pt" height="620pt"
 viewBox="0.00 0.00 584.00 620.00" xmlns="http://www.w3.org/2000/svg" xmlns:xlink="http://www.w3.org/1999/xlink">
<g id="graph0" class="graph" transform="scale(1 1) rotate(0) translate(4 616)">
<polygon fill="#ffffff" stroke="transparent" points="-4,4 -4,-616 580,-616 580,4 -4,4"/>
<!-- _ -->
<g id="node1" class="node">
<title>_</title>
<g id="a_node1"><a xlink:title="_ &#45; Identity">
<ellipse fill="none" stroke="#000000" cx="251" cy="-234" rx="27" ry="18"/>
<text text-anchor="middle" x="251" y="-230.3" font-family="Times,serif" font-size="14.00" fill="#000000">_</text>
</a>
</g>
</g>
<!-- y -->
<g id="node2" class="node">
<title>y</title>
<g id="a_node2"><a xlink:title="y &#45; Create array">
<ellipse fill="none" stroke="#000000" cx="179" cy="-234" rx="27" ry="18"/>
<text text-anchor="middle" x="179" y="-230.3" font-family="Times,serif" font-size="14.00" fill="#000000">y</text>
</a>
</g>
</g>
<!-- m -->
<g id="node3" class="node">
<title>m</title>
<g id="a_node3"><a xlink:title="m &#45; Member">
<ellipse fill="none" stroke="#000000" cx="323" cy="-234" rx="27" ry="18"/>
<text text-anchor="middle" x="323" y="-230.3" font-family="Times,serif" font-size="14.00" fill="#000000">m</text>
</a>
</g>
</g>
<!-- e -->
<g id="node4" class="node">
<title>e</title>
<g id="a_node4"><a xlink:title="e &#45; Compare equal">
<polygon fill="none" stroke="#000000" points="477,-108 423,-108 423,-72 477,-72 477,-108"/>
<text text-anchor="middle" x="450" y="-86.3" font-family="Times,serif" font-size="14.00" fill="#000000">e</text>
</a>
</g>
</g>
<!-- x -->
<g id="node5" class="node">
<title>x</title>
<g id="a_node5"><a xlink:title="x &#45; Extract">
<ellipse fill="none" stroke="#000000" cx="207" cy="-378" rx="27" ry="18"/>
<text text-anchor="middle" x="207" y="-374.3" font-family="Times,serif" font-size="14.00" fill="#000000">x</text>
</a>
</g>
</g>
<!-- t -->
<g id="node6" class="node">
<title>t</title>
<g id="a_node6"><a xlink:title="t &#45; Concatenate">
<ellipse fill="none" stroke="#000000" cx="179" cy="-306" rx="27" ry="18"/>
<text text-anchor="middle" x="179" y="-302.3" font-family="Times,serif" font-size="14.00" fill="#000000">t</text>
</a>
</g>
</g>
<!-- t&#45;&gt;y -->
<g id="edge1" class="edge">
<title>t&#45;&gt;y</title>
<path fill="none" stroke="#000000" d="M179,-287.8314C179,-280.131 179,-270.9743 179,-262.4166"/>
<polygon fill="#000000" stroke="#000000" points="182.5001,-262.4132 179,-252.4133 175.5001,-262.4133 182.5001,-262.4132"/>
</g>
<!-- q -->
<g id="node7" class="node">
<title>q</title>
<g id="a_node7"><a xlink:title="q &#45; Dequeue">
<ellipse fill="none" stroke="#000000" cx="387" cy="-594" rx="27" ry="18"/>
<text text-anchor="middle" x="387" y="-590.3" font-family="Times,serif" font-size="14.00" fill="#000000">q</text>
</a>
</g>
</g>
<!-- $ -->
<g id="node8" class="node">
<title>$</title>
<g id="a_node8"><a xlink:title="$ &#45; Wrap">
<ellipse fill="none" stroke="#000000" cx="288" cy="-378" rx="27" ry="18"/>
<text text-anchor="middle" x="288" y="-374.3" font-family="Times,serif" font-size="14.00" fill="#000000">$</text>
</a>
</g>
</g>
<!-- i -->
<g id="node12" class="node">
<title>i</title>
<g id="a_node12"><a xlink:title="i &#45; If/else">
<ellipse fill="none" stroke="#000000" cx="288" cy="-306" rx="27" ry="18"/>
<text text-anchor="middle" x="288" y="-302.3" font-family="Times,serif" font-size="14.00" fill="#000000">i</text>
</a>
</g>
</g>
<!-- $&#45;&gt;i -->
<g id="edge2" class="edge">
<title>$&#45;&gt;i</title>
<path fill="none" stroke="#000000" d="M288,-359.8314C288,-352.131 288,-342.9743 288,-334.4166"/>
<polygon fill="#000000" stroke="#000000" points="291.5001,-334.4132 288,-324.4133 284.5001,-334.4133 291.5001,-334.4132"/>
</g>
<!-- n -->
<g id="node9" class="node">
<title>n</title>
<g id="a_node9"><a xlink:title="n &#45; Logical NOR">
<polygon fill="none" stroke="#000000" points="549,-36 495,-36 495,0 549,0 549,-36"/>
<text text-anchor="middle" x="522" y="-14.3" font-family="Times,serif" font-size="14.00" fill="#000000">n</text>
</a>
</g>
</g>
<!-- o -->
<g id="node10" class="node">
<title>o</title>
<g id="a_node10"><a xlink:title="o &#45; Logical OR">
<ellipse fill="none" stroke="#000000" cx="522" cy="-90" rx="27" ry="18"/>
<text text-anchor="middle" x="522" y="-86.3" font-family="Times,serif" font-size="14.00" fill="#000000">o</text>
</a>
</g>
</g>
<!-- o&#45;&gt;n -->
<g id="edge3" class="edge">
<title>o&#45;&gt;n</title>
<path fill="none" stroke="#000000" d="M522,-71.8314C522,-64.131 522,-54.9743 522,-46.4166"/>
<polygon fill="#000000" stroke="#000000" points="525.5001,-46.4132 522,-36.4133 518.5001,-46.4133 525.5001,-46.4132"/>
</g>
<!-- z -->
<g id="node11" class="node">
<title>z</title>
<g id="a_node11"><a xlink:title="z &#45; Zero">
<ellipse fill="none" stroke="#000000" cx="395" cy="-234" rx="27" ry="18"/>
<text text-anchor="middle" x="395" y="-230.3" font-family="Times,serif" font-size="14.00" fill="#000000">z</text>
</a>
</g>
</g>
<!-- s -->
<g id="node14" class="node">
<title>s</title>
<g id="a_node14"><a xlink:title="s &#45; Subtract">
<polygon fill="none" stroke="#000000" points="477,-180 423,-180 423,-144 477,-144 477,-180"/>
<text text-anchor="middle" x="450" y="-158.3" font-family="Times,serif" font-size="14.00" fill="#000000">s</text>
</a>
</g>
</g>
<!-- z&#45;&gt;s -->
<g id="edge4" class="edge">
<title>z&#45;&gt;s</title>
<path fill="none" stroke="#000000" d="M407.4804,-217.6621C414.1658,-208.9102 422.5596,-197.922 430.1194,-188.0255"/>
<polygon fill="#000000" stroke="#000000" points="432.9286,-190.1137 436.2177,-180.0423 427.3659,-185.8644 432.9286,-190.1137"/>
</g>
<!-- i&#45;&gt;_ -->
<g id="edge5" class="edge">
<title>i&#45;&gt;_</title>
<path fill="none" stroke="#000000" d="M279.2315,-288.937C274.8721,-280.4537 269.5047,-270.0092 264.6247,-260.513"/>
<polygon fill="#000000" stroke="#000000" points="267.6463,-258.7352 259.9626,-251.4407 261.4203,-261.9348 267.6463,-258.7352"/>
</g>
<!-- i&#45;&gt;y -->
<g id="edge8" class="edge">
<title>i&#45;&gt;y</title>
<path fill="none" stroke="#000000" d="M268.7639,-293.2936C251.592,-281.9507 226.2349,-265.201 206.8473,-252.3946"/>
<polygon fill="#000000" stroke="#000000" points="208.6835,-249.4128 198.4104,-246.8216 204.8254,-255.2536 208.6835,-249.4128"/>
</g>
<!-- i&#45;&gt;m -->
<g id="edge6" class="edge">
<title>i&#45;&gt;m</title>
<path fill="none" stroke="#000000" d="M296.4725,-288.5708C300.5997,-280.0807 305.6493,-269.6929 310.2311,-260.2674"/>
<polygon fill="#000000" stroke="#000000" points="313.3813,-261.7926 314.6055,-251.2687 307.0857,-258.7322 313.3813,-261.7926"/>
</g>
<!-- i&#45;&gt;z -->
<g id="edge7" class="edge">
<title>i&#45;&gt;z</title>
<path fill="none" stroke="#000000" d="M307.1295,-293.1278C323.839,-281.884 348.3057,-265.4204 367.1812,-252.7192"/>
<polygon fill="#000000" stroke="#000000" points="369.3328,-255.4901 375.6754,-247.0035 365.4248,-249.6824 369.3328,-255.4901"/>
</g>
<!-- w -->
<g id="node13" class="node">
<title>w</title>
<g id="a_node13"><a xlink:title="w &#45; While">
<ellipse fill="none" stroke="#000000" cx="279" cy="-450" rx="27" ry="18"/>
<text text-anchor="middle" x="279" y="-446.3" font-family="Times,serif" font-size="14.00" fill="#000000">w</text>
</a>
</g>
</g>
<!-- w&#45;&gt;$ -->
<g id="edge10" class="edge">
<title>w&#45;&gt;$</title>
<path fill="none" stroke="#000000" d="M281.2711,-431.8314C282.2336,-424.131 283.3782,-414.9743 284.4479,-406.4166"/>
<polygon fill="#000000" stroke="#000000" points="287.9309,-406.7702 285.6983,-396.4133 280.9849,-405.9019 287.9309,-406.7702"/>
</g>
<!-- w&#45;&gt;w -->
<g id="edge9" class="edge">
<title>w&#45;&gt;w</title>
<path fill="none" stroke="#000000" d="M298.895,-462.4321C311.688,-465.6753 324,-461.5313 324,-450 324,-441.6218 317.5006,-437.1433 309.0395,-436.5644"/>
<polygon fill="#000000" stroke="#000000" points="308.5019,-433.1004 298.895,-437.5679 309.191,-440.0665 308.5019,-433.1004"/>
</g>
<!-- s&#45;&gt;e -->
<g id="edge12" class="edge">
<title>s&#45;&gt;e</title>
<path fill="none" stroke="#000000" d="M450,-143.8314C450,-136.131 450,-126.9743 450,-118.4166"/>
<polygon fill="#000000" stroke="#000000" points="453.5001,-118.4132 450,-108.4133 446.5001,-118.4133 453.5001,-118.4132"/>
</g>
<!-- s&#45;&gt;o -->
<g id="edge11" class="edge">
<title>s&#45;&gt;o</title>
<path fill="none" stroke="#000000" d="M468.1686,-143.8314C477.7294,-134.2706 489.5349,-122.4651 499.6519,-112.3481"/>
<polygon fill="#000000" stroke="#000000" points="502.3979,-114.5519 506.9941,-105.0059 497.4481,-109.6021 502.3979,-114.5519"/>
</g>
<!-- a -->
<g id="node15" class="node">
<title>a</title>
<g id="a_node15"><a xlink:title="a &#45; Add">
<ellipse fill="none" stroke="#000000" cx="450" cy="-306" rx="27" ry="18"/>
<text text-anchor="middle" x="450" y="-302.3" font-family="Times,serif" font-size="14.00" fill="#000000">a</text>
</a>
</g>
</g>
<!-- a&#45;&gt;s -->
<g id="edge13" class="edge">
<title>a&#45;&gt;s</title>
<path fill="none" stroke="#000000" d="M450,-287.7623C450,-263.201 450,-219.2474 450,-190.3541"/>
<polygon fill="#000000" stroke="#000000" points="453.5001,-190.0896 450,-180.0896 446.5001,-190.0897 453.5001,-190.0896"/>
</g>
<!-- d -->
<g id="node16" class="node">
<title>d</title>
<g id="a_node16"><a xlink:title="d &#45; Double">
<ellipse fill="none" stroke="#000000" cx="450" cy="-378" rx="27" ry="18"/>
<text text-anchor="middle" x="450" y="-374.3" font-family="Times,serif" font-size="14.00" fill="#000000">d</text>
</a>
</g>
</g>
<!-- d&#45;&gt;a -->
<g id="edge14" class="edge">
<title>d&#45;&gt;a</title>
<path fill="none" stroke="#000000" d="M450,-359.8314C450,-352.131 450,-342.9743 450,-334.4166"/>
<polygon fill="#000000" stroke="#000000" points="453.5001,-334.4132 450,-324.4133 446.5001,-334.4133 453.5001,-334.4132"/>
</g>
<!-- c -->
<g id="node17" class="node">
<title>c</title>
<g id="a_node17"><a xlink:title="c &#45; Count">
<ellipse fill="none" stroke="#000000" cx="369" cy="-450" rx="27" ry="18"/>
<text text-anchor="middle" x="369" y="-446.3" font-family="Times,serif" font-size="14.00" fill="#000000">c</text>
</a>
</g>
</g>
<!-- c&#45;&gt;$ -->
<g id="edge15" class="edge">
<title>c&#45;&gt;$</title>
<path fill="none" stroke="#000000" d="M352.6084,-435.4297C340.9707,-425.0851 325.1572,-411.0286 312.0881,-399.4116"/>
<polygon fill="#000000" stroke="#000000" points="314.1666,-396.5763 304.3672,-392.5486 309.516,-401.8082 314.1666,-396.5763"/>
</g>
<!-- c&#45;&gt;a -->
<g id="edge17" class="edge">
<title>c&#45;&gt;a</title>
<path fill="none" stroke="#000000" d="M376.8429,-432.7478C385.3722,-414.3809 399.7077,-384.6283 414,-360 419.5988,-350.3522 426.2512,-340.0906 432.3049,-331.1328"/>
<polygon fill="#000000" stroke="#000000" points="435.3314,-332.9079 438.0978,-322.6806 429.5574,-328.9504 435.3314,-332.9079"/>
</g>
<!-- c&#45;&gt;c -->
<g id="edge16" class="edge">
<title>c&#45;&gt;c</title>
<path fill="none" stroke="#000000" d="M388.895,-462.4321C401.688,-465.6753 414,-461.5313 414,-450 414,-441.6218 407.5006,-437.1433 399.0395,-436.5644"/>
<polygon fill="#000000" stroke="#000000" points="398.5019,-433.1004 388.895,-437.5679 399.191,-440.0665 398.5019,-433.1004"/>
</g>
<!-- l -->
<g id="node18" class="node">
<title>l</title>
<g id="a_node18"><a xlink:title="l &#45; Compare less">
<polygon fill="none" stroke="#000000" points="549,-396 495,-396 495,-360 549,-360 549,-396"/>
<text text-anchor="middle" x="522" y="-374.3" font-family="Times,serif" font-size="14.00" fill="#000000">l</text>
</a>
</g>
</g>
<!-- l&#45;&gt;o -->
<g id="edge18" class="edge">
<title>l&#45;&gt;o</title>
<path fill="none" stroke="#000000" d="M522,-359.9843C522,-311.2939 522,-176.7961 522,-118.0573"/>
<polygon fill="#000000" stroke="#000000" points="525.5001,-118.0088 522,-108.0089 518.5001,-118.0089 525.5001,-118.0088"/>
</g>
<!-- b -->
<g id="node19" class="node">
<title>b</title>
<g id="a_node19"><a xlink:title="b &#45; Compare bigger">
<ellipse fill="none" stroke="#000000" cx="549" cy="-450" rx="27" ry="18"/>
<text text-anchor="middle" x="549" y="-446.3" font-family="Times,serif" font-size="14.00" fill="#000000">b</text>
</a>
</g>
</g>
<!-- b&#45;&gt;l -->
<g id="edge19" class="edge">
<title>b&#45;&gt;l</title>
<path fill="none" stroke="#000000" d="M542.3258,-432.2022C539.3305,-424.2146 535.7267,-414.6045 532.3908,-405.7087"/>
<polygon fill="#000000" stroke="#000000" points="535.5734,-404.2275 528.7849,-396.0931 529.0191,-406.6854 535.5734,-404.2275"/>
</g>
<!-- k -->
<g id="node20" class="node">
<title>k</title>
<g id="a_node20"><a xlink:title="k &#45; If/else not empty">
<ellipse fill="none" stroke="#000000" cx="207" cy="-450" rx="27" ry="18"/>
<text text-anchor="middle" x="207" y="-446.3" font-family="Times,serif" font-size="14.00" fill="#000000">k</text>
</a>
</g>
</g>
<!-- k&#45;&gt;x -->
<g id="edge21" class="edge">
<title>k&#45;&gt;x</title>
<path fill="none" stroke="#000000" d="M207,-431.8314C207,-424.131 207,-414.9743 207,-406.4166"/>
<polygon fill="#000000" stroke="#000000" points="210.5001,-406.4132 207,-396.4133 203.5001,-406.4133 210.5001,-406.4132"/>
</g>
<!-- k&#45;&gt;$ -->
<g id="edge20" class="edge">
<title>k&#45;&gt;$</title>
<path fill="none" stroke="#000000" d="M223.3916,-435.4297C235.0293,-425.0851 250.8428,-411.0286 263.9119,-399.4116"/>
<polygon fill="#000000" stroke="#000000" points="266.484,-401.8082 271.6328,-392.5486 261.8334,-396.5763 266.484,-401.8082"/>
</g>
<!-- g -->
<g id="node21" class="node">
<title>g</title>
<g id="a_node21"><a xlink:title="g &#45; Compose">
<ellipse fill="none" stroke="#000000" cx="117" cy="-522" rx="27" ry="18"/>
<text text-anchor="middle" x="117" y="-518.3" font-family="Times,serif" font-size="14.00" fill="#000000">g</text>
</a>
</g>
</g>
<!-- g&#45;&gt;k -->
<g id="edge22" class="edge">
<title>g&#45;&gt;k</title>
<path fill="none" stroke="#000000" d="M134.3529,-508.1177C147.7997,-497.3602 166.6239,-482.3009 181.741,-470.2072"/>
<polygon fill="#000000" stroke="#000000" points="184.0781,-472.8197 189.7004,-463.8397 179.7052,-467.3536 184.0781,-472.8197"/>
</g>
<!-- g&#45;&gt;g -->
<g id="edge23" class="edge">
<title>g&#45;&gt;g</title>
<path fill="none" stroke="#000000" d="M136.895,-534.4321C149.688,-537.6753 162,-533.5313 162,-522 162,-513.6218 155.5006,-509.1433 147.0395,-508.5644"/>
<polygon fill="#000000" stroke="#000000" points="146.5019,-505.1004 136.895,-509.5679 147.191,-512.0665 146.5019,-505.1004"/>
</g>
<!-- v -->
<g id="node22" class="node">
<title>v</title>
<g id="a_node22"><a xlink:title="v &#45; Reverse">
<ellipse fill="none" stroke="#000000" cx="27" cy="-522" rx="27" ry="18"/>
<text text-anchor="middle" x="27" y="-518.3" font-family="Times,serif" font-size="14.00" fill="#000000">v</text>
</a>
</g>
</g>
<!-- v&#45;&gt;k -->
<g id="edge24" class="edge">
<title>v&#45;&gt;k</title>
<path fill="none" stroke="#000000" d="M50.1634,-512.7347C81.6687,-500.1325 138.2073,-477.5171 174.1018,-463.1593"/>
<polygon fill="#000000" stroke="#000000" points="175.6556,-466.3075 183.6404,-459.3438 173.0558,-459.8081 175.6556,-466.3075"/>
</g>
<!-- v&#45;&gt;v -->
<g id="edge25" class="edge">
<title>v&#45;&gt;v</title>
<path fill="none" stroke="#000000" d="M46.895,-534.4321C59.688,-537.6753 72,-533.5313 72,-522 72,-513.6218 65.5006,-509.1433 57.0395,-508.5644"/>
<polygon fill="#000000" stroke="#000000" points="56.5019,-505.1004 46.895,-509.5679 57.191,-512.0665 56.5019,-505.1004"/>
</g>
<!-- f -->
<g id="node23" class="node">
<title>f</title>
<g id="a_node23"><a xlink:title="f &#45; Transform">
<ellipse fill="none" stroke="#000000" cx="207" cy="-522" rx="27" ry="18"/>
<text text-anchor="middle" x="207" y="-518.3" font-family="Times,serif" font-size="14.00" fill="#000000">f</text>
</a>
</g>
</g>
<!-- f&#45;&gt;k -->
<g id="edge26" class="edge">
<title>f&#45;&gt;k</title>
<path fill="none" stroke="#000000" d="M207,-503.8314C207,-496.131 207,-486.9743 207,-478.4166"/>
<polygon fill="#000000" stroke="#000000" points="210.5001,-478.4132 207,-468.4133 203.5001,-478.4133 210.5001,-478.4132"/>
</g>
<!-- f&#45;&gt;f -->
<g id="edge27" class="edge">
<title>f&#45;&gt;f</title>
<path fill="none" stroke="#000000" d="M226.895,-534.4321C239.688,-537.6753 252,-533.5313 252,-522 252,-513.6218 245.5006,-509.1433 237.0395,-508.5644"/>
<polygon fill="#000000" stroke="#000000" points="236.5019,-505.1004 226.895,-509.5679 237.191,-512.0665 236.5019,-505.1004"/>
</g>
<!-- p -->
<g id="node24" class="node">
<title>p</title>
<g id="a_node24"><a xlink:title="p &#45; Pipe">
<ellipse fill="none" stroke="#000000" cx="72" cy="-594" rx="27" ry="18"/>
<text text-anchor="middle" x="72" y="-590.3" font-family="Times,serif" font-size="14.00" fill="#000000">p</text>
</a>
</g>
</g>
<!-- p&#45;&gt;g -->
<g id="edge28" class="edge">
<title>p&#45;&gt;g</title>
<path fill="none" stroke="#000000" d="M82.437,-577.3008C87.9235,-568.5224 94.7686,-557.5703 100.9163,-547.7339"/>
<polygon fill="#000000" stroke="#000000" points="103.9751,-549.4436 106.3071,-539.1086 98.0391,-545.7336 103.9751,-549.4436"/>
</g>
<!-- p&#45;&gt;v -->
<g id="edge29" class="edge">
<title>p&#45;&gt;v</title>
<path fill="none" stroke="#000000" d="M61.563,-577.3008C56.0765,-568.5224 49.2314,-557.5703 43.0837,-547.7339"/>
<polygon fill="#000000" stroke="#000000" points="45.9609,-545.7336 37.6929,-539.1086 40.0249,-549.4436 45.9609,-545.7336"/>
</g>
<!-- u -->
<g id="node25" class="node">
<title>u</title>
<g id="a_node25"><a xlink:title="u &#45; Reduce">
<ellipse fill="none" stroke="#000000" cx="297" cy="-522" rx="27" ry="18"/>
<text text-anchor="middle" x="297" y="-518.3" font-family="Times,serif" font-size="14.00" fill="#000000">u</text>
</a>
</g>
</g>
<!-- u&#45;&gt;k -->
<g id="edge30" class="edge">
<title>u&#45;&gt;k</title>
<path fill="none" stroke="#000000" d="M279.6471,-508.1177C266.2003,-497.3602 247.3761,-482.3009 232.259,-470.2072"/>
<polygon fill="#000000" stroke="#000000" points="234.2948,-467.3536 224.2996,-463.8397 229.9219,-472.8197 234.2948,-467.3536"/>
</g>
<!-- u&#45;&gt;u -->
<g id="edge31" class="edge">
<title>u&#45;&gt;u</title>
<path fill="none" stroke="#000000" d="M316.895,-534.4321C329.688,-537.6753 342,-533.5313 342,-522 342,-513.6218 335.5006,-509.1433 327.0395,-508.5644"/>
<polygon fill="#000000" stroke="#000000" points="326.5019,-505.1004 316.895,-509.5679 327.191,-512.0665 326.5019,-505.1004"/>
</g>
<!-- j -->
<g id="node26" class="node">
<title>j</title>
<g id="a_node26"><a xlink:title="j &#45; Create object">
<ellipse fill="none" stroke="#000000" cx="297" cy="-594" rx="27" ry="18"/>
<text text-anchor="middle" x="297" y="-590.3" font-family="Times,serif" font-size="14.00" fill="#000000">j</text>
</a>
</g>
</g>
<!-- j&#45;&gt;u -->
<g id="edge32" class="edge">
<title>j&#45;&gt;u</title>
<path fill="none" stroke="#000000" d="M297,-575.8314C297,-568.131 297,-558.9743 297,-550.4166"/>
<polygon fill="#000000" stroke="#000000" points="300.5001,-550.4132 297,-540.4133 293.5001,-550.4133 300.5001,-550.4132"/>
</g>
<!-- j&#45;&gt;j -->
<g id="edge33" class="edge">
<title>j&#45;&gt;j</title>
<path fill="none" stroke="#000000" d="M316.895,-606.4321C329.688,-609.6753 342,-605.5313 342,-594 342,-585.6218 335.5006,-581.1433 327.0395,-580.5644"/>
<polygon fill="#000000" stroke="#000000" points="326.5019,-577.1004 316.895,-581.5679 327.191,-584.0665 326.5019,-577.1004"/>
</g>
<!-- r -->
<g id="node27" class="node">
<title>r</title>
<g id="a_node27"><a xlink:title="r &#45; Curry">
<ellipse fill="none" stroke="#000000" cx="459" cy="-450" rx="27" ry="18"/>
<text text-anchor="middle" x="459" y="-446.3" font-family="Times,serif" font-size="14.00" fill="#000000">r</text>
</a>
</g>
</g>
<!-- r&#45;&gt;$ -->
<g id="edge35" class="edge">
<title>r&#45;&gt;$</title>
<path fill="none" stroke="#000000" d="M437.4377,-438.8545C432.7152,-436.516 427.7171,-434.1183 423,-432 388.75,-416.6195 348.7283,-400.883 321.2028,-390.396"/>
<polygon fill="#000000" stroke="#000000" points="322.2524,-387.0509 311.661,-386.7802 319.7719,-393.5967 322.2524,-387.0509"/>
</g>
<!-- r&#45;&gt;d -->
<g id="edge34" class="edge">
<title>r&#45;&gt;d</title>
<path fill="none" stroke="#000000" d="M456.7289,-431.8314C455.7664,-424.131 454.6218,-414.9743 453.5521,-406.4166"/>
<polygon fill="#000000" stroke="#000000" points="457.0151,-405.9019 452.3017,-396.4133 450.0691,-406.7702 457.0151,-405.9019"/>
</g>
<!-- r&#45;&gt;l -->
<g id="edge36" class="edge">
<title>r&#45;&gt;l</title>
<path fill="none" stroke="#000000" d="M472.6701,-434.3771C480.514,-425.4125 490.5574,-413.9344 499.5323,-403.6774"/>
<polygon fill="#000000" stroke="#000000" points="502.1819,-405.9643 506.1329,-396.1338 496.9138,-401.3548 502.1819,-405.9643"/>
</g>
<!-- r&#45;&gt;r -->
<g id="edge37" class="edge">
<title>r&#45;&gt;r</title>
<path fill="none" stroke="#000000" d="M478.895,-462.4321C491.688,-465.6753 504,-461.5313 504,-450 504,-441.6218 497.5006,-437.1433 489.0395,-436.5644"/>
<polygon fill="#000000" stroke="#000000" points="488.5019,-433.1004 478.895,-437.5679 489.191,-440.0665 488.5019,-433.1004"/>
</g>
<!-- h -->
<g id="node28" class="node">
<title>h</title>
<g id="a_node28"><a xlink:title="h &#45; Switch">
<ellipse fill="none" stroke="#000000" cx="387" cy="-522" rx="27" ry="18"/>
<text text-anchor="middle" x="387" y="-518.3" font-family="Times,serif" font-size="14.00" fill="#000000">h</text>
</a>
</g>
</g>
<!-- h&#45;&gt;k -->
<g id="edge38" class="edge">
<title>h&#45;&gt;k</title>
<path fill="none" stroke="#000000" d="M365.5289,-510.643C360.8008,-508.3177 355.7773,-505.9788 351,-504 304.255,-484.6376 289.745,-487.3624 243,-468 241.2085,-467.2579 239.3824,-466.4653 237.5502,-465.6416"/>
<polygon fill="#000000" stroke="#000000" points="239.0084,-462.4596 228.4711,-461.357 236.0208,-468.7901 239.0084,-462.4596"/>
</g>
<!-- h&#45;&gt;h -->
<g id="edge39" class="edge">
<title>h&#45;&gt;h</title>
<path fill="none" stroke="#000000" d="M406.895,-534.4321C419.688,-537.6753 432,-533.5313 432,-522 432,-513.6218 425.5006,-509.1433 417.0395,-508.5644"/>
<polygon fill="#000000" stroke="#000000" points="416.5019,-505.1004 406.895,-509.5679 417.191,-512.0665 416.5019,-505.1004"/>
</g>
</g>
<style>.node {
    pointer-events: all;
    cursor: default;
}

.node ellipse,
.node polygon {
    fill: transparent;
    -webkit-transition: fill 0.4s;
    -o-transition: fill 0.4s;
    transition: fill 0.4s;
}

.node.selected ellipse,
.node.selected polygon {
    -webkit-transition-duration: 0.2s;
    -o-transition-duration: 0.2s;
    transition-duration: 0.2s;
}

.node.selected.blue ellipse,
.node.selected.blue polygon {
    fill: #84b6c4 !important;
}

.node.selected.red ellipse,
.node.selected.red polygon {
    fill: #ff3856 !important;
}</style>
		<script id="graph-dependencies-script">
			var dependencies = new Map([["_", new Set([])],
["y", new Set([])],
["m", new Set([])],
["e", new Set([])],
["x", new Set([])],
["t", new Set(["y"])],
["q", new Set([])],
["$", new Set(["i","e","_","m","z","o","y","s","n"])],
["n", new Set([])],
["o", new Set(["n"])],
["z", new Set(["o","s","n","e"])],
["i", new Set(["_","m","z","o","y","s","n","e"])],
["w", new Set(["i","w","$","_","m","z","o","y","s","n","e"])],
["s", new Set(["o","e","n"])],
["a", new Set(["o","e","s","n"])],
["d", new Set(["e","a","o","s","n"])],
["c", new Set(["z","i","$","e","c","a","o","s","n","_","m","y"])],
["l", new Set(["o","n"])],
["b", new Set(["o","l","n"])],
["k", new Set(["_","i","$","e","x","m","z","o","y","s","n"])],
["g", new Set(["k","g","$","_","i","e","x","m","z","o","y","s","n"])],
["v", new Set(["y","k","$","v","_","i","e","x","m","z","o","s","n"])],
["f", new Set(["y","k","$","f","_","i","e","x","m","z","o","s","n"])],
["p", new Set(["g","v","k","$","_","i","e","x","m","z","o","y","s","n"])],
["u", new Set(["k","$","u","_","i","e","x","m","z","o","y","s","n"])],
["j", new Set(["k","$","u","j","_","i","e","x","m","z","o","y","s","n"])],
["r", new Set(["d","i","$","l","r","s","e","a","o","n","_","m","z","y"])],
["h", new Set(["i","$","k","h","_","m","z","o","y","s","n","e","x"])]]);
			var inverseDependencies = new Map([["_", new Set(["i","k","$","w","c","r","h","g","v","f","u","j","p"])],
["y", new Set(["t","i","v","f","$","w","c","k","r","h","g","u","j","p"])],
["m", new Set(["i","$","w","c","k","r","h","g","v","f","u","j","p"])],
["e", new Set(["$","s","a","d","c","k","w","g","v","f","u","j","r","h","p","z","i"])],
["x", new Set(["k","g","v","f","u","j","h","p"])],
["t", new Set([])],
["q", new Set([])],
["$", new Set(["w","c","k","g","v","f","u","j","r","h","p"])],
["i", new Set(["$","w","c","k","r","h","g","v","f","u","j","p"])],
["n", new Set(["o","z","i","s","a","l","b","c","$","w","k","r","h","g","v","f","u","j","p","d"])],
["o", new Set(["z","i","s","a","l","b","c","$","w","k","r","h","g","v","f","u","j","p","d"])],
["z", new Set(["i","c","$","w","k","r","h","g","v","f","u","j","p"])],
["s", new Set(["z","a","r","i","c","$","w","k","h","g","v","f","u","j","p","d"])],
["w", new Set(["w"])],
["a", new Set(["d","c","r"])],
["d", new Set(["r"])],
["c", new Set(["c"])],
["l", new Set(["b","r"])],
["b", new Set([])],
["k", new Set(["g","v","f","u","j","h","p"])],
["g", new Set(["g","p"])],
["v", new Set(["v","p"])],
["f", new Set(["f"])],
["p", new Set([])],
["u", new Set(["u","j"])],
["j", new Set(["j"])],
["r", new Set(["r"])],
["h", new Set(["h"])]]);
			var scriptElement = document.getElementById('graph-dependencies-script');
var nodeCollection = scriptElement.parentElement.querySelectorAll('.node');
var addClass = function (element, cls) {
	cls.split(/\s+/).forEach(function (c) {
		var currentClass = element.getAttribute('class');
		if (currentClass.indexOf(c) === -1) {
			element.setAttribute('class', currentClass + ' ' + c);
		}
	});
};
var removeClass = function (element, cls) {
	cls.split(/\s+/).forEach(function (c) {
		element.setAttribute('class', (element.getAttribute('class') || '').replace(new RegExp('\\s*' + c, 'g'), ''));
	});
};
var getNodeName = function (nodeElement) {
	return nodeElement.querySelector('text').innerHTML;
};
var getNodeByName = function (fnName) {
	var result = null;
	[].some.call(nodeCollection, function (nodeElement, i) {
		if (getNodeName(nodeElement) === fnName) {
			result = nodeElement;
		}

		return result !== null;
	});
	return result;
};
var highlightColors = {
	children: 'blue',
	parents: 'red'
};
var highlight = function (root, nodes, color) {
	if (root === false) {
		currentlyHighlighted.nodes.forEach(function (nodeElement) {
			removeClass(nodeElement, 'selected ' + Object.keys(highlightColors).map(function (key) {
				return highlightColors[key];
			}).join(' '));
		});
		currentlyHighlighted = null;
	} else {
		nodes.forEach(function (nodeElement) {
			addClass(nodeElement, 'selected ' + color);
		});
		currentlyHighlighted = {
			root: root,
			nodes: nodes
		};
	}
};
var isShiftPressed = false;
var currentlyHighlighted = null;
var nodeRelations = new Map();

document.onkeydown = function(e) {
	if (e.code === 'ShiftLeft') {
		isShiftPressed = true;
		if (currentlyHighlighted !== null) {
			var root = currentlyHighlighted.root;
			highlight(false);
			highlight(root, nodeRelations.get(root).inverseDependencies, highlightColors.parents);
		}
	}
};

document.onkeyup = function(e) {
	if (e.code === 'ShiftLeft') {
		isShiftPressed = false;
		if (currentlyHighlighted !== null) {
			var root = currentlyHighlighted.root;
			highlight(false);
			highlight(root, nodeRelations.get(root).dependencies, highlightColors.children);
		}
	}
};

[].forEach.call(nodeCollection, function (nodeElement) {
	var nodeName = getNodeName(nodeElement);
	var nodeDependencies = new Set([nodeElement]);
	var inverseNodeDependencies = new Set([nodeElement]);

	dependencies.get(nodeName).forEach(function (name) {
		nodeDependencies.add(getNodeByName(name));
	});
	inverseDependencies.get(nodeName).forEach(function (name) {
		inverseNodeDependencies.add(getNodeByName(name));
	});

	nodeRelations.set(nodeElement, {
		dependencies: nodeDependencies,
		inverseDependencies: inverseNodeDependencies
	});

	nodeElement.onmouseenter = function () {
		if (isShiftPressed) {
			highlight(nodeElement, inverseNodeDependencies, highlightColors.parents);
		} else {
			highlight(nodeElement, nodeDependencies, highlightColors.children);
		}

	};
	nodeElement.onmouseleave = function () {
		highlight(false);
	};
});
		</script>
		</svg>
