<?xml version="1.0" encoding="UTF-8" standalone="no"?>
<!DOCTYPE svg PUBLIC "-//W3C//DTD SVG 1.1//EN"
 "http://www.w3.org/Graphics/SVG/1.1/DTD/svg11.dtd">
<!-- Generated by graphviz version 2.40.1 (20161225.0304)
 -->
<!-- Pages: 1 -->
<svg width="647pt" height="620pt"
 viewBox="0.00 0.00 647.00 620.00" xmlns="http://www.w3.org/2000/svg" xmlns:xlink="http://www.w3.org/1999/xlink">
<g id="graph0" class="graph" transform="scale(1 1) rotate(0) translate(4 616)">
<polygon fill="#ffffff" stroke="transparent" points="-4,4 -4,-616 643,-616 643,4 -4,4"/>
<!-- _ -->
<g id="node1" class="node">
<title>_</title>
<g id="a_node1"><a xlink:title="_ &#45; Identity">
<ellipse fill="none" stroke="#000000" cx="257" cy="-234" rx="27" ry="18"/>
<text text-anchor="middle" x="257" y="-230.3" font-family="Times,serif" font-size="14.00" fill="#000000">_</text>
</a>
</g>
</g>
<!-- y -->
<g id="node2" class="node">
<title>y</title>
<g id="a_node2"><a xlink:title="y &#45; Create array">
<ellipse fill="none" stroke="#000000" cx="185" cy="-234" rx="27" ry="18"/>
<text text-anchor="middle" x="185" y="-230.3" font-family="Times,serif" font-size="14.00" fill="#000000">y</text>
</a>
</g>
</g>
<!-- m -->
<g id="node3" class="node">
<title>m</title>
<g id="a_node3"><a xlink:title="m &#45; Member">
<ellipse fill="none" stroke="#000000" cx="329" cy="-234" rx="27" ry="18"/>
<text text-anchor="middle" x="329" y="-230.3" font-family="Times,serif" font-size="14.00" fill="#000000">m</text>
</a>
</g>
</g>
<!-- e -->
<g id="node4" class="node">
<title>e</title>
<g id="a_node4"><a xlink:title="e &#45; Compare equal">
<polygon fill="none" stroke="#000000" points="478,-108 424,-108 424,-72 478,-72 478,-108"/>
<text text-anchor="middle" x="451" y="-86.3" font-family="Times,serif" font-size="14.00" fill="#000000">e</text>
</a>
</g>
</g>
<!-- x -->
<g id="node5" class="node">
<title>x</title>
<g id="a_node5"><a xlink:title="x &#45; Extract">
<ellipse fill="none" stroke="#000000" cx="207" cy="-378" rx="27" ry="18"/>
<text text-anchor="middle" x="207" y="-374.3" font-family="Times,serif" font-size="14.00" fill="#000000">x</text>
</a>
</g>
</g>
<!-- t -->
<g id="node6" class="node">
<title>t</title>
<g id="a_node6"><a xlink:title="t &#45; Concatenate">
<ellipse fill="none" stroke="#000000" cx="185" cy="-306" rx="27" ry="18"/>
<text text-anchor="middle" x="185" y="-302.3" font-family="Times,serif" font-size="14.00" fill="#000000">t</text>
</a>
</g>
</g>
<!-- t&#45;&gt;y -->
<g id="edge1" class="edge">
<title>t&#45;&gt;y</title>
<path fill="none" stroke="#000000" d="M185,-287.8314C185,-280.131 185,-270.9743 185,-262.4166"/>
<polygon fill="#000000" stroke="#000000" points="188.5001,-262.4132 185,-252.4133 181.5001,-262.4133 188.5001,-262.4132"/>
</g>
<!-- q -->
<g id="node7" class="node">
<title>q</title>
<g id="a_node7"><a xlink:title="q &#45; Dequeue">
<ellipse fill="none" stroke="#000000" cx="612" cy="-594" rx="27" ry="18"/>
<text text-anchor="middle" x="612" y="-590.3" font-family="Times,serif" font-size="14.00" fill="#000000">q</text>
</a>
</g>
</g>
<!-- $ -->
<g id="node8" class="node">
<title>$</title>
<g id="a_node8"><a xlink:title="$ &#45; Wrap">
<ellipse fill="none" stroke="#000000" cx="369" cy="-378" rx="27" ry="18"/>
<text text-anchor="middle" x="369" y="-374.3" font-family="Times,serif" font-size="14.00" fill="#000000">$</text>
</a>
</g>
</g>
<!-- i -->
<g id="node12" class="node">
<title>i</title>
<g id="a_node12"><a xlink:title="i &#45; If/else">
<ellipse fill="none" stroke="#000000" cx="304" cy="-306" rx="27" ry="18"/>
<text text-anchor="middle" x="304" y="-302.3" font-family="Times,serif" font-size="14.00" fill="#000000">i</text>
</a>
</g>
</g>
<!-- $&#45;&gt;i -->
<g id="edge2" class="edge">
<title>$&#45;&gt;i</title>
<path fill="none" stroke="#000000" d="M354.896,-362.3771C346.1227,-352.659 334.6827,-339.987 324.8714,-329.1191"/>
<polygon fill="#000000" stroke="#000000" points="327.3755,-326.6698 318.0765,-321.5924 322.1796,-331.3605 327.3755,-326.6698"/>
</g>
<!-- n -->
<g id="node9" class="node">
<title>n</title>
<g id="a_node9"><a xlink:title="n &#45; Logical NOR">
<polygon fill="none" stroke="#000000" points="550,-36 496,-36 496,0 550,0 550,-36"/>
<text text-anchor="middle" x="523" y="-14.3" font-family="Times,serif" font-size="14.00" fill="#000000">n</text>
</a>
</g>
</g>
<!-- o -->
<g id="node10" class="node">
<title>o</title>
<g id="a_node10"><a xlink:title="o &#45; Logical OR">
<ellipse fill="none" stroke="#000000" cx="523" cy="-90" rx="27" ry="18"/>
<text text-anchor="middle" x="523" y="-86.3" font-family="Times,serif" font-size="14.00" fill="#000000">o</text>
</a>
</g>
</g>
<!-- o&#45;&gt;n -->
<g id="edge3" class="edge">
<title>o&#45;&gt;n</title>
<path fill="none" stroke="#000000" d="M523,-71.8314C523,-64.131 523,-54.9743 523,-46.4166"/>
<polygon fill="#000000" stroke="#000000" points="526.5001,-46.4132 523,-36.4133 519.5001,-46.4133 526.5001,-46.4132"/>
</g>
<!-- z -->
<g id="node11" class="node">
<title>z</title>
<g id="a_node11"><a xlink:title="z &#45; Zero">
<ellipse fill="none" stroke="#000000" cx="401" cy="-234" rx="27" ry="18"/>
<text text-anchor="middle" x="401" y="-230.3" font-family="Times,serif" font-size="14.00" fill="#000000">z</text>
</a>
</g>
</g>
<!-- s -->
<g id="node14" class="node">
<title>s</title>
<g id="a_node14"><a xlink:title="s &#45; Subtract">
<polygon fill="none" stroke="#000000" points="480,-180 426,-180 426,-144 480,-144 480,-180"/>
<text text-anchor="middle" x="453" y="-158.3" font-family="Times,serif" font-size="14.00" fill="#000000">s</text>
</a>
</g>
</g>
<!-- z&#45;&gt;s -->
<g id="edge4" class="edge">
<title>z&#45;&gt;s</title>
<path fill="none" stroke="#000000" d="M412.7996,-217.6621C419.0572,-208.9978 426.8978,-198.1415 433.9891,-188.3227"/>
<polygon fill="#000000" stroke="#000000" points="436.9519,-190.1984 439.9694,-180.0423 431.2771,-186.0999 436.9519,-190.1984"/>
</g>
<!-- i&#45;&gt;_ -->
<g id="edge5" class="edge">
<title>i&#45;&gt;_</title>
<path fill="none" stroke="#000000" d="M293.0991,-289.3008C287.2264,-280.3043 279.8634,-269.0247 273.3213,-259.0029"/>
<polygon fill="#000000" stroke="#000000" points="276.2389,-257.0693 267.8418,-250.6087 270.3772,-260.8957 276.2389,-257.0693"/>
</g>
<!-- i&#45;&gt;y -->
<g id="edge8" class="edge">
<title>i&#45;&gt;y</title>
<path fill="none" stroke="#000000" d="M283.8133,-293.7862C264.666,-282.2013 235.6873,-264.6679 214.0563,-251.5803"/>
<polygon fill="#000000" stroke="#000000" points="215.6534,-248.4559 205.2858,-246.2737 212.0298,-254.445 215.6534,-248.4559"/>
</g>
<!-- i&#45;&gt;m -->
<g id="edge6" class="edge">
<title>i&#45;&gt;m</title>
<path fill="none" stroke="#000000" d="M310.1798,-288.2022C312.9953,-280.0936 316.3913,-270.3129 319.5191,-261.3049"/>
<polygon fill="#000000" stroke="#000000" points="322.9175,-262.1878 322.8913,-251.593 316.3048,-259.8917 322.9175,-262.1878"/>
</g>
<!-- i&#45;&gt;z -->
<g id="edge7" class="edge">
<title>i&#45;&gt;z</title>
<path fill="none" stroke="#000000" d="M322.245,-292.4574C337.0128,-281.4956 358.0118,-265.9088 374.6128,-253.5864"/>
<polygon fill="#000000" stroke="#000000" points="376.8932,-256.2526 382.8369,-247.4819 372.7211,-250.6318 376.8932,-256.2526"/>
</g>
<!-- w -->
<g id="node13" class="node">
<title>w</title>
<g id="a_node13"><a xlink:title="w &#45; While">
<ellipse fill="none" stroke="#000000" cx="279" cy="-378" rx="27" ry="18"/>
<text text-anchor="middle" x="279" y="-374.3" font-family="Times,serif" font-size="14.00" fill="#000000">w</text>
</a>
</g>
</g>
<!-- w&#45;&gt;i -->
<g id="edge9" class="edge">
<title>w&#45;&gt;i</title>
<path fill="none" stroke="#000000" d="M285.1798,-360.2022C287.9953,-352.0936 291.3913,-342.3129 294.5191,-333.3049"/>
<polygon fill="#000000" stroke="#000000" points="297.9175,-334.1878 297.8913,-323.593 291.3048,-331.8917 297.9175,-334.1878"/>
</g>
<!-- w&#45;&gt;w -->
<g id="edge10" class="edge">
<title>w&#45;&gt;w</title>
<path fill="none" stroke="#000000" d="M298.895,-390.4321C311.688,-393.6753 324,-389.5313 324,-378 324,-369.6218 317.5006,-365.1433 309.0395,-364.5644"/>
<polygon fill="#000000" stroke="#000000" points="308.5019,-361.1004 298.895,-365.5679 309.191,-368.0665 308.5019,-361.1004"/>
</g>
<!-- s&#45;&gt;e -->
<g id="edge11" class="edge">
<title>s&#45;&gt;e</title>
<path fill="none" stroke="#000000" d="M452.4953,-143.8314C452.2814,-136.131 452.0271,-126.9743 451.7894,-118.4166"/>
<polygon fill="#000000" stroke="#000000" points="455.2879,-118.3122 451.5115,-108.4133 448.2906,-118.5066 455.2879,-118.3122"/>
</g>
<!-- s&#45;&gt;o -->
<g id="edge12" class="edge">
<title>s&#45;&gt;o</title>
<path fill="none" stroke="#000000" d="M470.664,-143.8314C479.83,-134.4034 491.1183,-122.7926 500.8619,-112.7706"/>
<polygon fill="#000000" stroke="#000000" points="503.4897,-115.0887 507.951,-105.479 498.4707,-110.2092 503.4897,-115.0887"/>
</g>
<!-- a -->
<g id="node15" class="node">
<title>a</title>
<g id="a_node15"><a xlink:title="a &#45; Add">
<ellipse fill="none" stroke="#000000" cx="456" cy="-378" rx="27" ry="18"/>
<text text-anchor="middle" x="456" y="-374.3" font-family="Times,serif" font-size="14.00" fill="#000000">a</text>
</a>
</g>
</g>
<!-- a&#45;&gt;s -->
<g id="edge13" class="edge">
<title>a&#45;&gt;s</title>
<path fill="none" stroke="#000000" d="M455.7494,-359.9555C455.2277,-322.3938 454.0216,-235.5541 453.3946,-190.4103"/>
<polygon fill="#000000" stroke="#000000" points="456.8906,-190.0955 453.252,-180.1451 449.8913,-190.1927 456.8906,-190.0955"/>
</g>
<!-- d -->
<g id="node16" class="node">
<title>d</title>
<g id="a_node16"><a xlink:title="d &#45; Double">
<ellipse fill="none" stroke="#000000" cx="460" cy="-450" rx="27" ry="18"/>
<text text-anchor="middle" x="460" y="-446.3" font-family="Times,serif" font-size="14.00" fill="#000000">d</text>
</a>
</g>
</g>
<!-- d&#45;&gt;a -->
<g id="edge14" class="edge">
<title>d&#45;&gt;a</title>
<path fill="none" stroke="#000000" d="M458.9906,-431.8314C458.5628,-424.131 458.0541,-414.9743 457.5787,-406.4166"/>
<polygon fill="#000000" stroke="#000000" points="461.0724,-406.2037 457.023,-396.4133 454.0831,-406.592 461.0724,-406.2037"/>
</g>
<!-- c -->
<g id="node17" class="node">
<title>c</title>
<g id="a_node17"><a xlink:title="c &#45; Count">
<ellipse fill="none" stroke="#000000" cx="370" cy="-450" rx="27" ry="18"/>
<text text-anchor="middle" x="370" y="-446.3" font-family="Times,serif" font-size="14.00" fill="#000000">c</text>
</a>
</g>
</g>
<!-- c&#45;&gt;$ -->
<g id="edge15" class="edge">
<title>c&#45;&gt;$</title>
<path fill="none" stroke="#000000" d="M369.7477,-431.8314C369.6407,-424.131 369.5135,-414.9743 369.3947,-406.4166"/>
<polygon fill="#000000" stroke="#000000" points="372.8944,-406.3637 369.2557,-396.4133 365.8951,-406.4609 372.8944,-406.3637"/>
</g>
<!-- c&#45;&gt;a -->
<g id="edge17" class="edge">
<title>c&#45;&gt;a</title>
<path fill="none" stroke="#000000" d="M386.9908,-435.7751C399.5942,-425.2234 416.9728,-410.674 431.1368,-398.8157"/>
<polygon fill="#000000" stroke="#000000" points="433.6237,-401.2984 439.0445,-392.1953 429.1301,-395.9311 433.6237,-401.2984"/>
</g>
<!-- c&#45;&gt;c -->
<g id="edge16" class="edge">
<title>c&#45;&gt;c</title>
<path fill="none" stroke="#000000" d="M389.895,-462.4321C402.688,-465.6753 415,-461.5313 415,-450 415,-441.6218 408.5006,-437.1433 400.0395,-436.5644"/>
<polygon fill="#000000" stroke="#000000" points="399.5019,-433.1004 389.895,-437.5679 400.191,-440.0665 399.5019,-433.1004"/>
</g>
<!-- l -->
<g id="node18" class="node">
<title>l</title>
<g id="a_node18"><a xlink:title="l &#45; Compare less">
<polygon fill="none" stroke="#000000" points="550,-540 496,-540 496,-504 550,-504 550,-540"/>
<text text-anchor="middle" x="523" y="-518.3" font-family="Times,serif" font-size="14.00" fill="#000000">l</text>
</a>
</g>
</g>
<!-- l&#45;&gt;o -->
<g id="edge18" class="edge">
<title>l&#45;&gt;o</title>
<path fill="none" stroke="#000000" d="M523,-503.8146C523,-476.4983 523,-423.25 523,-378 523,-378 523,-378 523,-234 523,-193.876 523,-147.4631 523,-118.4177"/>
<polygon fill="#000000" stroke="#000000" points="526.5001,-118.1853 523,-108.1854 519.5001,-118.1854 526.5001,-118.1853"/>
</g>
<!-- b -->
<g id="node19" class="node">
<title>b</title>
<g id="a_node19"><a xlink:title="b &#45; Compare bigger">
<ellipse fill="none" stroke="#000000" cx="540" cy="-594" rx="27" ry="18"/>
<text text-anchor="middle" x="540" y="-590.3" font-family="Times,serif" font-size="14.00" fill="#000000">b</text>
</a>
</g>
</g>
<!-- b&#45;&gt;l -->
<g id="edge19" class="edge">
<title>b&#45;&gt;l</title>
<path fill="none" stroke="#000000" d="M535.7978,-576.2022C533.9321,-568.3005 531.6915,-558.811 529.6101,-549.9959"/>
<polygon fill="#000000" stroke="#000000" points="532.9763,-549.0212 527.272,-540.0931 526.1636,-550.6298 532.9763,-549.0212"/>
</g>
<!-- k -->
<g id="node20" class="node">
<title>k</title>
<g id="a_node20"><a xlink:title="k &#45; If/else not empty">
<ellipse fill="none" stroke="#000000" cx="207" cy="-450" rx="27" ry="18"/>
<text text-anchor="middle" x="207" y="-446.3" font-family="Times,serif" font-size="14.00" fill="#000000">k</text>
</a>
</g>
</g>
<!-- k&#45;&gt;x -->
<g id="edge21" class="edge">
<title>k&#45;&gt;x</title>
<path fill="none" stroke="#000000" d="M207,-431.8314C207,-424.131 207,-414.9743 207,-406.4166"/>
<polygon fill="#000000" stroke="#000000" points="210.5001,-406.4132 207,-396.4133 203.5001,-406.4133 210.5001,-406.4132"/>
</g>
<!-- k&#45;&gt;$ -->
<g id="edge20" class="edge">
<title>k&#45;&gt;$</title>
<path fill="none" stroke="#000000" d="M230.4038,-440.4531C255.8401,-429.965 297.5921,-412.4221 333,-396 334.7591,-395.1841 336.5598,-394.3336 338.3725,-393.4656"/>
<polygon fill="#000000" stroke="#000000" points="339.9478,-396.5915 347.398,-389.0585 336.8763,-390.3013 339.9478,-396.5915"/>
</g>
<!-- g -->
<g id="node21" class="node">
<title>g</title>
<g id="a_node21"><a xlink:title="g &#45; Compose">
<ellipse fill="none" stroke="#000000" cx="27" cy="-522" rx="27" ry="18"/>
<text text-anchor="middle" x="27" y="-518.3" font-family="Times,serif" font-size="14.00" fill="#000000">g</text>
</a>
</g>
</g>
<!-- g&#45;&gt;k -->
<g id="edge22" class="edge">
<title>g&#45;&gt;k</title>
<path fill="none" stroke="#000000" d="M50.1634,-512.7347C81.6687,-500.1325 138.2073,-477.5171 174.1018,-463.1593"/>
<polygon fill="#000000" stroke="#000000" points="175.6556,-466.3075 183.6404,-459.3438 173.0558,-459.8081 175.6556,-466.3075"/>
</g>
<!-- g&#45;&gt;g -->
<g id="edge23" class="edge">
<title>g&#45;&gt;g</title>
<path fill="none" stroke="#000000" d="M46.895,-534.4321C59.688,-537.6753 72,-533.5313 72,-522 72,-513.6218 65.5006,-509.1433 57.0395,-508.5644"/>
<polygon fill="#000000" stroke="#000000" points="56.5019,-505.1004 46.895,-509.5679 57.191,-512.0665 56.5019,-505.1004"/>
</g>
<!-- v -->
<g id="node22" class="node">
<title>v</title>
<g id="a_node22"><a xlink:title="v &#45; Reverse">
<ellipse fill="none" stroke="#000000" cx="117" cy="-522" rx="27" ry="18"/>
<text text-anchor="middle" x="117" y="-518.3" font-family="Times,serif" font-size="14.00" fill="#000000">v</text>
</a>
</g>
</g>
<!-- v&#45;&gt;k -->
<g id="edge24" class="edge">
<title>v&#45;&gt;k</title>
<path fill="none" stroke="#000000" d="M134.3529,-508.1177C147.7997,-497.3602 166.6239,-482.3009 181.741,-470.2072"/>
<polygon fill="#000000" stroke="#000000" points="184.0781,-472.8197 189.7004,-463.8397 179.7052,-467.3536 184.0781,-472.8197"/>
</g>
<!-- v&#45;&gt;v -->
<g id="edge25" class="edge">
<title>v&#45;&gt;v</title>
<path fill="none" stroke="#000000" d="M136.895,-534.4321C149.688,-537.6753 162,-533.5313 162,-522 162,-513.6218 155.5006,-509.1433 147.0395,-508.5644"/>
<polygon fill="#000000" stroke="#000000" points="146.5019,-505.1004 136.895,-509.5679 147.191,-512.0665 146.5019,-505.1004"/>
</g>
<!-- f -->
<g id="node23" class="node">
<title>f</title>
<g id="a_node23"><a xlink:title="f &#45; Transform">
<ellipse fill="none" stroke="#000000" cx="207" cy="-522" rx="27" ry="18"/>
<text text-anchor="middle" x="207" y="-518.3" font-family="Times,serif" font-size="14.00" fill="#000000">f</text>
</a>
</g>
</g>
<!-- f&#45;&gt;k -->
<g id="edge26" class="edge">
<title>f&#45;&gt;k</title>
<path fill="none" stroke="#000000" d="M207,-503.8314C207,-496.131 207,-486.9743 207,-478.4166"/>
<polygon fill="#000000" stroke="#000000" points="210.5001,-478.4132 207,-468.4133 203.5001,-478.4133 210.5001,-478.4132"/>
</g>
<!-- f&#45;&gt;f -->
<g id="edge27" class="edge">
<title>f&#45;&gt;f</title>
<path fill="none" stroke="#000000" d="M226.895,-534.4321C239.688,-537.6753 252,-533.5313 252,-522 252,-513.6218 245.5006,-509.1433 237.0395,-508.5644"/>
<polygon fill="#000000" stroke="#000000" points="236.5019,-505.1004 226.895,-509.5679 237.191,-512.0665 236.5019,-505.1004"/>
</g>
<!-- p -->
<g id="node24" class="node">
<title>p</title>
<g id="a_node24"><a xlink:title="p &#45; Pipe">
<ellipse fill="none" stroke="#000000" cx="72" cy="-594" rx="27" ry="18"/>
<text text-anchor="middle" x="72" y="-590.3" font-family="Times,serif" font-size="14.00" fill="#000000">p</text>
</a>
</g>
</g>
<!-- p&#45;&gt;g -->
<g id="edge28" class="edge">
<title>p&#45;&gt;g</title>
<path fill="none" stroke="#000000" d="M61.563,-577.3008C56.0765,-568.5224 49.2314,-557.5703 43.0837,-547.7339"/>
<polygon fill="#000000" stroke="#000000" points="45.9609,-545.7336 37.6929,-539.1086 40.0249,-549.4436 45.9609,-545.7336"/>
</g>
<!-- p&#45;&gt;v -->
<g id="edge29" class="edge">
<title>p&#45;&gt;v</title>
<path fill="none" stroke="#000000" d="M82.437,-577.3008C87.9235,-568.5224 94.7686,-557.5703 100.9163,-547.7339"/>
<polygon fill="#000000" stroke="#000000" points="103.9751,-549.4436 106.3071,-539.1086 98.0391,-545.7336 103.9751,-549.4436"/>
</g>
<!-- u -->
<g id="node25" class="node">
<title>u</title>
<g id="a_node25"><a xlink:title="u &#45; Reduce">
<ellipse fill="none" stroke="#000000" cx="297" cy="-522" rx="27" ry="18"/>
<text text-anchor="middle" x="297" y="-518.3" font-family="Times,serif" font-size="14.00" fill="#000000">u</text>
</a>
</g>
</g>
<!-- u&#45;&gt;k -->
<g id="edge30" class="edge">
<title>u&#45;&gt;k</title>
<path fill="none" stroke="#000000" d="M279.6471,-508.1177C266.2003,-497.3602 247.3761,-482.3009 232.259,-470.2072"/>
<polygon fill="#000000" stroke="#000000" points="234.2948,-467.3536 224.2996,-463.8397 229.9219,-472.8197 234.2948,-467.3536"/>
</g>
<!-- u&#45;&gt;u -->
<g id="edge31" class="edge">
<title>u&#45;&gt;u</title>
<path fill="none" stroke="#000000" d="M316.895,-534.4321C329.688,-537.6753 342,-533.5313 342,-522 342,-513.6218 335.5006,-509.1433 327.0395,-508.5644"/>
<polygon fill="#000000" stroke="#000000" points="326.5019,-505.1004 316.895,-509.5679 327.191,-512.0665 326.5019,-505.1004"/>
</g>
<!-- j -->
<g id="node26" class="node">
<title>j</title>
<g id="a_node26"><a xlink:title="j &#45; Create object">
<ellipse fill="none" stroke="#000000" cx="297" cy="-594" rx="27" ry="18"/>
<text text-anchor="middle" x="297" y="-590.3" font-family="Times,serif" font-size="14.00" fill="#000000">j</text>
</a>
</g>
</g>
<!-- j&#45;&gt;u -->
<g id="edge32" class="edge">
<title>j&#45;&gt;u</title>
<path fill="none" stroke="#000000" d="M297,-575.8314C297,-568.131 297,-558.9743 297,-550.4166"/>
<polygon fill="#000000" stroke="#000000" points="300.5001,-550.4132 297,-540.4133 293.5001,-550.4133 300.5001,-550.4132"/>
</g>
<!-- j&#45;&gt;j -->
<g id="edge33" class="edge">
<title>j&#45;&gt;j</title>
<path fill="none" stroke="#000000" d="M316.895,-606.4321C329.688,-609.6753 342,-605.5313 342,-594 342,-585.6218 335.5006,-581.1433 327.0395,-580.5644"/>
<polygon fill="#000000" stroke="#000000" points="326.5019,-577.1004 316.895,-581.5679 327.191,-584.0665 326.5019,-577.1004"/>
</g>
<!-- r -->
<g id="node27" class="node">
<title>r</title>
<g id="a_node27"><a xlink:title="r &#45; Curry">
<ellipse fill="none" stroke="#000000" cx="450" cy="-594" rx="27" ry="18"/>
<text text-anchor="middle" x="450" y="-590.3" font-family="Times,serif" font-size="14.00" fill="#000000">r</text>
</a>
</g>
</g>
<!-- r&#45;&gt;d -->
<g id="edge34" class="edge">
<title>r&#45;&gt;d</title>
<path fill="none" stroke="#000000" d="M451.2665,-575.7623C452.9721,-551.201 456.0245,-507.2474 458.031,-478.3541"/>
<polygon fill="#000000" stroke="#000000" points="461.5425,-478.3081 458.7438,-468.0896 454.5593,-477.8231 461.5425,-478.3081"/>
</g>
<!-- r&#45;&gt;l -->
<g id="edge35" class="edge">
<title>r&#45;&gt;l</title>
<path fill="none" stroke="#000000" d="M465.1256,-579.0816C474.4229,-569.9116 486.5769,-557.9241 497.3456,-547.3029"/>
<polygon fill="#000000" stroke="#000000" points="499.8655,-549.7336 504.5274,-540.2195 494.95,-544.7498 499.8655,-549.7336"/>
</g>
<!-- r&#45;&gt;u -->
<g id="edge36" class="edge">
<title>r&#45;&gt;u</title>
<path fill="none" stroke="#000000" d="M427.7525,-583.5306C401.5775,-571.213 357.9442,-550.6796 328.3497,-536.7528"/>
<polygon fill="#000000" stroke="#000000" points="329.8129,-533.5732 319.2744,-532.4821 326.8323,-539.907 329.8129,-533.5732"/>
</g>
<!-- r&#45;&gt;r -->
<g id="edge37" class="edge">
<title>r&#45;&gt;r</title>
<path fill="none" stroke="#000000" d="M469.895,-606.4321C482.688,-609.6753 495,-605.5313 495,-594 495,-585.6218 488.5006,-581.1433 480.0395,-580.5644"/>
<polygon fill="#000000" stroke="#000000" points="479.5019,-577.1004 469.895,-581.5679 480.191,-584.0665 479.5019,-577.1004"/>
</g>
<!-- h -->
<g id="node28" class="node">
<title>h</title>
<g id="a_node28"><a xlink:title="h &#45; Switch">
<ellipse fill="none" stroke="#000000" cx="387" cy="-522" rx="27" ry="18"/>
<text text-anchor="middle" x="387" y="-518.3" font-family="Times,serif" font-size="14.00" fill="#000000">h</text>
</a>
</g>
</g>
<!-- h&#45;&gt;k -->
<g id="edge38" class="edge">
<title>h&#45;&gt;k</title>
<path fill="none" stroke="#000000" d="M365.4722,-510.7766C360.7475,-508.4429 355.7399,-506.0669 351,-504 314.0009,-487.8658 270.4834,-471.9559 241.0487,-461.6317"/>
<polygon fill="#000000" stroke="#000000" points="241.8532,-458.2058 231.2584,-458.2217 239.5507,-464.8163 241.8532,-458.2058"/>
</g>
<!-- h&#45;&gt;h -->
<g id="edge39" class="edge">
<title>h&#45;&gt;h</title>
<path fill="none" stroke="#000000" d="M406.895,-534.4321C419.688,-537.6753 432,-533.5313 432,-522 432,-513.6218 425.5006,-509.1433 417.0395,-508.5644"/>
<polygon fill="#000000" stroke="#000000" points="416.5019,-505.1004 406.895,-509.5679 417.191,-512.0665 416.5019,-505.1004"/>
</g>
</g>
<style>.node {
    pointer-events: all;
    cursor: default;
}

.node ellipse,
.node polygon {
    fill: transparent;
    -webkit-transition: fill 0.4s;
    -o-transition: fill 0.4s;
    transition: fill 0.4s;
}

.node.selected ellipse,
.node.selected polygon {
    -webkit-transition-duration: 0.2s;
    -o-transition-duration: 0.2s;
    transition-duration: 0.2s;
}

.node.selected.blue ellipse,
.node.selected.blue polygon {
    fill: #84b6c4 !important;
}

.node.selected.red ellipse,
.node.selected.red polygon {
    fill: #ff3856 !important;
}</style>
		<script id="graph-dependencies-script">
			var dependencies = new Map([["_", new Set([])],
["y", new Set([])],
["m", new Set([])],
["e", new Set([])],
["x", new Set([])],
["t", new Set(["y"])],
["q", new Set([])],
["$", new Set(["i","e","_","m","z","o","y","s","n"])],
["n", new Set([])],
["o", new Set(["n"])],
["z", new Set(["o","s","n","e"])],
["i", new Set(["_","m","z","o","y","s","n","e"])],
["w", new Set(["i","w","_","m","z","o","y","s","n","e"])],
["s", new Set(["e","o","n"])],
["a", new Set(["o","e","s","n"])],
["d", new Set(["e","a","o","s","n"])],
["c", new Set(["z","i","$","e","c","a","o","s","n","_","m","y"])],
["l", new Set(["o","n"])],
["b", new Set(["o","l","n"])],
["k", new Set(["_","i","$","e","x","m","z","o","y","s","n"])],
["g", new Set(["k","g","$","_","i","e","x","m","z","o","y","s","n"])],
["v", new Set(["y","k","$","v","_","i","e","x","m","z","o","s","n"])],
["f", new Set(["y","k","$","f","_","i","e","x","m","z","o","s","n"])],
["p", new Set(["g","v","k","$","_","i","e","x","m","z","o","y","s","n"])],
["u", new Set(["k","$","u","_","i","e","x","m","z","o","y","s","n"])],
["j", new Set(["k","$","u","j","_","i","e","x","m","z","o","y","s","n"])],
["r", new Set(["d","i","$","l","u","r","s","e","a","o","n","_","m","z","y","k","x"])],
["h", new Set(["i","$","k","h","_","m","z","o","y","s","n","e","x"])]]);
			var inverseDependencies = new Map([["_", new Set(["i","k","$","w","c","r","h","g","v","f","u","j","p"])],
["y", new Set(["t","i","v","f","$","w","c","k","r","h","g","u","j","p"])],
["m", new Set(["i","$","w","c","k","r","h","g","v","f","u","j","p"])],
["e", new Set(["$","s","a","d","c","k","r","g","v","f","u","j","h","p","z","i","w"])],
["x", new Set(["k","g","v","f","u","j","h","p","r"])],
["t", new Set([])],
["q", new Set([])],
["$", new Set(["c","k","g","v","f","u","j","r","h","p"])],
["i", new Set(["$","w","c","k","r","h","g","v","f","u","j","p"])],
["n", new Set(["o","z","i","s","a","l","b","c","$","w","k","r","h","g","v","f","u","j","p","d"])],
["o", new Set(["z","i","s","a","l","b","c","$","w","k","r","h","g","v","f","u","j","p","d"])],
["z", new Set(["i","c","$","w","k","r","h","g","v","f","u","j","p"])],
["s", new Set(["z","a","r","i","c","$","w","k","h","g","v","f","u","j","p","d"])],
["w", new Set(["w"])],
["a", new Set(["d","c","r"])],
["d", new Set(["r"])],
["c", new Set(["c"])],
["l", new Set(["b","r"])],
["b", new Set([])],
["k", new Set(["g","v","f","u","j","h","p","r"])],
["g", new Set(["g","p"])],
["v", new Set(["v","p"])],
["f", new Set(["f"])],
["p", new Set([])],
["u", new Set(["u","j","r"])],
["j", new Set(["j"])],
["r", new Set(["r"])],
["h", new Set(["h"])]]);
			var scriptElement = document.getElementById('graph-dependencies-script');
var nodeCollection = scriptElement.parentElement.querySelectorAll('.node');
var addClass = function (element, cls) {
	cls.split(/\s+/).forEach(function (c) {
		var currentClass = element.getAttribute('class');
		if (currentClass.indexOf(c) === -1) {
			element.setAttribute('class', currentClass + ' ' + c);
		}
	});
};
var removeClass = function (element, cls) {
	cls.split(/\s+/).forEach(function (c) {
		element.setAttribute('class', (element.getAttribute('class') || '').replace(new RegExp('\\s*' + c, 'g'), ''));
	});
};
var getNodeName = function (nodeElement) {
	return nodeElement.querySelector('text').innerHTML;
};
var getNodeByName = function (fnName) {
	var result = null;
	[].some.call(nodeCollection, function (nodeElement, i) {
		if (getNodeName(nodeElement) === fnName) {
			result = nodeElement;
		}

		return result !== null;
	});
	return result;
};
var highlightColors = {
	children: 'blue',
	parents: 'red'
};
var highlight = function (root, nodes, color) {
	if (root === false) {
		currentlyHighlighted.nodes.forEach(function (nodeElement) {
			removeClass(nodeElement, 'selected ' + Object.keys(highlightColors).map(function (key) {
				return highlightColors[key];
			}).join(' '));
		});
		currentlyHighlighted = null;
	} else {
		nodes.forEach(function (nodeElement) {
			addClass(nodeElement, 'selected ' + color);
		});
		currentlyHighlighted = {
			root: root,
			nodes: nodes
		};
	}
};
var isShiftPressed = false;
var currentlyHighlighted = null;
var nodeRelations = new Map();

document.onkeydown = function(e) {
	if (e.code === 'ShiftLeft') {
		isShiftPressed = true;
		if (currentlyHighlighted !== null) {
			var root = currentlyHighlighted.root;
			highlight(false);
			highlight(root, nodeRelations.get(root).inverseDependencies, highlightColors.parents);
		}
	}
};

document.onkeyup = function(e) {
	if (e.code === 'ShiftLeft') {
		isShiftPressed = false;
		if (currentlyHighlighted !== null) {
			var root = currentlyHighlighted.root;
			highlight(false);
			highlight(root, nodeRelations.get(root).dependencies, highlightColors.children);
		}
	}
};

[].forEach.call(nodeCollection, function (nodeElement) {
	var nodeName = getNodeName(nodeElement);
	var nodeDependencies = new Set([nodeElement]);
	var inverseNodeDependencies = new Set([nodeElement]);

	dependencies.get(nodeName).forEach(function (name) {
		nodeDependencies.add(getNodeByName(name));
	});
	inverseDependencies.get(nodeName).forEach(function (name) {
		inverseNodeDependencies.add(getNodeByName(name));
	});

	nodeRelations.set(nodeElement, {
		dependencies: nodeDependencies,
		inverseDependencies: inverseNodeDependencies
	});

	nodeElement.onmouseenter = function () {
		if (isShiftPressed) {
			highlight(nodeElement, inverseNodeDependencies, highlightColors.parents);
		} else {
			highlight(nodeElement, nodeDependencies, highlightColors.children);
		}

	};
	nodeElement.onmouseleave = function () {
		highlight(false);
	};
});
		</script>
		</svg>
