<?xml version="1.0" encoding="UTF-8" standalone="no"?>
<!DOCTYPE svg PUBLIC "-//W3C//DTD SVG 1.1//EN"
 "http://www.w3.org/Graphics/SVG/1.1/DTD/svg11.dtd">
<!-- Generated by graphviz version 2.40.1 (20161225.0304)
 -->
<!-- Pages: 1 -->
<svg width="656pt" height="620pt"
 viewBox="0.00 0.00 656.00 620.00" xmlns="http://www.w3.org/2000/svg" xmlns:xlink="http://www.w3.org/1999/xlink">
<g id="graph0" class="graph" transform="scale(1 1) rotate(0) translate(4 616)">
<polygon fill="#ffffff" stroke="transparent" points="-4,4 -4,-616 652,-616 652,4 -4,4"/>
<!-- _ -->
<g id="node1" class="node">
<title>_</title>
<g id="a_node1"><a xlink:title="_ &#45; Identity">
<ellipse fill="none" stroke="#000000" cx="27" cy="-234" rx="27" ry="18"/>
<text text-anchor="middle" x="27" y="-230.3" font-family="Times,serif" font-size="14.00" fill="#000000">_</text>
</a>
</g>
</g>
<!-- y -->
<g id="node2" class="node">
<title>y</title>
<g id="a_node2"><a xlink:title="y &#45; Create array">
<ellipse fill="none" stroke="#000000" cx="342" cy="-18" rx="27" ry="18"/>
<text text-anchor="middle" x="342" y="-14.3" font-family="Times,serif" font-size="14.00" fill="#000000">y</text>
</a>
</g>
</g>
<!-- m -->
<g id="node3" class="node">
<title>m</title>
<g id="a_node3"><a xlink:title="m &#45; Member">
<ellipse fill="none" stroke="#000000" cx="99" cy="-234" rx="27" ry="18"/>
<text text-anchor="middle" x="99" y="-230.3" font-family="Times,serif" font-size="14.00" fill="#000000">m</text>
</a>
</g>
</g>
<!-- e -->
<g id="node4" class="node">
<title>e</title>
<g id="a_node4"><a xlink:title="e &#45; Compare equal">
<polygon fill="none" stroke="#000000" points="261,-108 207,-108 207,-72 261,-72 261,-108"/>
<text text-anchor="middle" x="234" y="-86.3" font-family="Times,serif" font-size="14.00" fill="#000000">e</text>
</a>
</g>
</g>
<!-- l -->
<g id="node5" class="node">
<title>l</title>
<g id="a_node5"><a xlink:title="l &#45; Compare less">
<polygon fill="none" stroke="#000000" points="405,-108 351,-108 351,-72 405,-72 405,-108"/>
<text text-anchor="middle" x="378" y="-86.3" font-family="Times,serif" font-size="14.00" fill="#000000">l</text>
</a>
</g>
</g>
<!-- l&#45;&gt;y -->
<g id="edge1" class="edge">
<title>l&#45;&gt;y</title>
<path fill="none" stroke="#000000" d="M368.9157,-71.8314C364.7726,-63.5451 359.7863,-53.5727 355.2374,-44.4748"/>
<polygon fill="#000000" stroke="#000000" points="358.3115,-42.7967 350.7089,-35.4177 352.0505,-45.9273 358.3115,-42.7967"/>
</g>
<!-- x -->
<g id="node6" class="node">
<title>x</title>
<g id="a_node6"><a xlink:title="x &#45; Extract">
<ellipse fill="none" stroke="#000000" cx="369" cy="-378" rx="27" ry="18"/>
<text text-anchor="middle" x="369" y="-374.3" font-family="Times,serif" font-size="14.00" fill="#000000">x</text>
</a>
</g>
</g>
<!-- t -->
<g id="node7" class="node">
<title>t</title>
<g id="a_node7"><a xlink:title="t &#45; Concatenate">
<ellipse fill="none" stroke="#000000" cx="306" cy="-90" rx="27" ry="18"/>
<text text-anchor="middle" x="306" y="-86.3" font-family="Times,serif" font-size="14.00" fill="#000000">t</text>
</a>
</g>
</g>
<!-- t&#45;&gt;y -->
<g id="edge2" class="edge">
<title>t&#45;&gt;y</title>
<path fill="none" stroke="#000000" d="M314.7146,-72.5708C318.9597,-64.0807 324.1536,-53.6929 328.8663,-44.2674"/>
<polygon fill="#000000" stroke="#000000" points="332.024,-45.7782 333.3657,-35.2687 325.763,-42.6477 332.024,-45.7782"/>
</g>
<!-- q -->
<g id="node8" class="node">
<title>q</title>
<g id="a_node8"><a xlink:title="q &#45; Dequeue">
<ellipse fill="none" stroke="#000000" cx="549" cy="-594" rx="27" ry="18"/>
<text text-anchor="middle" x="549" y="-590.3" font-family="Times,serif" font-size="14.00" fill="#000000">q</text>
</a>
</g>
</g>
<!-- $ -->
<g id="node9" class="node">
<title>$</title>
<g id="a_node9"><a xlink:title="$ &#45; Wrap">
<ellipse fill="none" stroke="#000000" cx="189" cy="-378" rx="27" ry="18"/>
<text text-anchor="middle" x="189" y="-374.3" font-family="Times,serif" font-size="14.00" fill="#000000">$</text>
</a>
</g>
</g>
<!-- i -->
<g id="node13" class="node">
<title>i</title>
<g id="a_node13"><a xlink:title="i &#45; If/else">
<ellipse fill="none" stroke="#000000" cx="171" cy="-306" rx="27" ry="18"/>
<text text-anchor="middle" x="171" y="-302.3" font-family="Times,serif" font-size="14.00" fill="#000000">i</text>
</a>
</g>
</g>
<!-- $&#45;&gt;i -->
<g id="edge3" class="edge">
<title>$&#45;&gt;i</title>
<path fill="none" stroke="#000000" d="M184.5506,-360.2022C182.5602,-352.2406 180.1668,-342.6671 177.9489,-333.7957"/>
<polygon fill="#000000" stroke="#000000" points="181.2816,-332.6951 175.4606,-323.8425 174.4906,-334.3929 181.2816,-332.6951"/>
</g>
<!-- o -->
<g id="node10" class="node">
<title>o</title>
<g id="a_node10"><a xlink:title="o &#45; Logical OR">
<polygon fill="none" stroke="#000000" points="648,-612 594,-612 594,-576 648,-576 648,-612"/>
<text text-anchor="middle" x="621" y="-590.3" font-family="Times,serif" font-size="14.00" fill="#000000">o</text>
</a>
</g>
</g>
<!-- n -->
<g id="node11" class="node">
<title>n</title>
<g id="a_node11"><a xlink:title="n &#45; Logical negation">
<polygon fill="none" stroke="#000000" points="198,-252 144,-252 144,-216 198,-216 198,-252"/>
<text text-anchor="middle" x="171" y="-230.3" font-family="Times,serif" font-size="14.00" fill="#000000">n</text>
</a>
</g>
</g>
<!-- z -->
<g id="node12" class="node">
<title>z</title>
<g id="a_node12"><a xlink:title="z &#45; Zero">
<ellipse fill="none" stroke="#000000" cx="243" cy="-234" rx="27" ry="18"/>
<text text-anchor="middle" x="243" y="-230.3" font-family="Times,serif" font-size="14.00" fill="#000000">z</text>
</a>
</g>
</g>
<!-- s -->
<g id="node15" class="node">
<title>s</title>
<g id="a_node15"><a xlink:title="s &#45; Subtract">
<polygon fill="none" stroke="#000000" points="297,-180 243,-180 243,-144 297,-144 297,-180"/>
<text text-anchor="middle" x="270" y="-158.3" font-family="Times,serif" font-size="14.00" fill="#000000">s</text>
</a>
</g>
</g>
<!-- z&#45;&gt;s -->
<g id="edge4" class="edge">
<title>z&#45;&gt;s</title>
<path fill="none" stroke="#000000" d="M249.6742,-216.2022C252.6695,-208.2146 256.2733,-198.6045 259.6092,-189.7087"/>
<polygon fill="#000000" stroke="#000000" points="262.9809,-190.6854 263.2151,-180.0931 256.4266,-188.2275 262.9809,-190.6854"/>
</g>
<!-- i&#45;&gt;_ -->
<g id="edge5" class="edge">
<title>i&#45;&gt;_</title>
<path fill="none" stroke="#000000" d="M149.1295,-295.0647C124.7778,-282.8889 85.238,-263.119 57.7715,-249.3858"/>
<polygon fill="#000000" stroke="#000000" points="59.114,-246.1439 48.6045,-244.8022 55.9835,-252.4049 59.114,-246.1439"/>
</g>
<!-- i&#45;&gt;m -->
<g id="edge6" class="edge">
<title>i&#45;&gt;m</title>
<path fill="none" stroke="#000000" d="M155.7307,-290.7307C145.803,-280.803 132.6847,-267.6847 121.5637,-256.5637"/>
<polygon fill="#000000" stroke="#000000" points="123.7933,-253.8436 114.2473,-249.2473 118.8436,-258.7933 123.7933,-253.8436"/>
</g>
<!-- i&#45;&gt;n -->
<g id="edge8" class="edge">
<title>i&#45;&gt;n</title>
<path fill="none" stroke="#000000" d="M171,-287.8314C171,-280.131 171,-270.9743 171,-262.4166"/>
<polygon fill="#000000" stroke="#000000" points="174.5001,-262.4132 171,-252.4133 167.5001,-262.4133 174.5001,-262.4132"/>
</g>
<!-- i&#45;&gt;z -->
<g id="edge7" class="edge">
<title>i&#45;&gt;z</title>
<path fill="none" stroke="#000000" d="M186.2693,-290.7307C196.197,-280.803 209.3153,-267.6847 220.4363,-256.5637"/>
<polygon fill="#000000" stroke="#000000" points="223.1564,-258.7933 227.7527,-249.2473 218.2067,-253.8436 223.1564,-258.7933"/>
</g>
<!-- w -->
<g id="node14" class="node">
<title>w</title>
<g id="a_node14"><a xlink:title="w &#45; While">
<ellipse fill="none" stroke="#000000" cx="189" cy="-450" rx="27" ry="18"/>
<text text-anchor="middle" x="189" y="-446.3" font-family="Times,serif" font-size="14.00" fill="#000000">w</text>
</a>
</g>
</g>
<!-- w&#45;&gt;$ -->
<g id="edge10" class="edge">
<title>w&#45;&gt;$</title>
<path fill="none" stroke="#000000" d="M189,-431.8314C189,-424.131 189,-414.9743 189,-406.4166"/>
<polygon fill="#000000" stroke="#000000" points="192.5001,-406.4132 189,-396.4133 185.5001,-406.4133 192.5001,-406.4132"/>
</g>
<!-- w&#45;&gt;w -->
<g id="edge9" class="edge">
<title>w&#45;&gt;w</title>
<path fill="none" stroke="#000000" d="M208.895,-462.4321C221.688,-465.6753 234,-461.5313 234,-450 234,-441.6218 227.5006,-437.1433 219.0395,-436.5644"/>
<polygon fill="#000000" stroke="#000000" points="218.5019,-433.1004 208.895,-437.5679 219.191,-440.0665 218.5019,-433.1004"/>
</g>
<!-- s&#45;&gt;e -->
<g id="edge12" class="edge">
<title>s&#45;&gt;e</title>
<path fill="none" stroke="#000000" d="M260.9157,-143.8314C256.9385,-135.8771 252.1845,-126.369 247.7861,-117.5723"/>
<polygon fill="#000000" stroke="#000000" points="250.8093,-115.7923 243.2066,-108.4133 244.5483,-118.9228 250.8093,-115.7923"/>
</g>
<!-- s&#45;&gt;l -->
<g id="edge11" class="edge">
<title>s&#45;&gt;l</title>
<path fill="none" stroke="#000000" d="M297.253,-143.8314C310.9389,-134.7074 327.6915,-123.539 342.3827,-113.7449"/>
<polygon fill="#000000" stroke="#000000" points="344.3767,-116.6221 350.7558,-108.1628 340.4938,-110.7977 344.3767,-116.6221"/>
</g>
<!-- a -->
<g id="node16" class="node">
<title>a</title>
<g id="a_node16"><a xlink:title="a &#45; Add">
<ellipse fill="none" stroke="#000000" cx="279" cy="-306" rx="27" ry="18"/>
<text text-anchor="middle" x="279" y="-302.3" font-family="Times,serif" font-size="14.00" fill="#000000">a</text>
</a>
</g>
</g>
<!-- a&#45;&gt;s -->
<g id="edge13" class="edge">
<title>a&#45;&gt;s</title>
<path fill="none" stroke="#000000" d="M279.8826,-287.692C280.5529,-269.4809 281.0491,-240.7591 279,-216 278.3055,-207.6085 277.0138,-198.5578 275.6214,-190.3092"/>
<polygon fill="#000000" stroke="#000000" points="279.0544,-189.6235 273.8413,-180.3999 272.1647,-190.8612 279.0544,-189.6235"/>
</g>
<!-- d -->
<g id="node17" class="node">
<title>d</title>
<g id="a_node17"><a xlink:title="d &#45; Double">
<ellipse fill="none" stroke="#000000" cx="279" cy="-378" rx="27" ry="18"/>
<text text-anchor="middle" x="279" y="-374.3" font-family="Times,serif" font-size="14.00" fill="#000000">d</text>
</a>
</g>
</g>
<!-- d&#45;&gt;a -->
<g id="edge14" class="edge">
<title>d&#45;&gt;a</title>
<path fill="none" stroke="#000000" d="M279,-359.8314C279,-352.131 279,-342.9743 279,-334.4166"/>
<polygon fill="#000000" stroke="#000000" points="282.5001,-334.4132 279,-324.4133 275.5001,-334.4133 282.5001,-334.4132"/>
</g>
<!-- c -->
<g id="node18" class="node">
<title>c</title>
<g id="a_node18"><a xlink:title="c &#45; Count">
<ellipse fill="none" stroke="#000000" cx="99" cy="-450" rx="27" ry="18"/>
<text text-anchor="middle" x="99" y="-446.3" font-family="Times,serif" font-size="14.00" fill="#000000">c</text>
</a>
</g>
</g>
<!-- c&#45;&gt;$ -->
<g id="edge15" class="edge">
<title>c&#45;&gt;$</title>
<path fill="none" stroke="#000000" d="M116.3529,-436.1177C129.7997,-425.3602 148.6239,-410.3009 163.741,-398.2072"/>
<polygon fill="#000000" stroke="#000000" points="166.0781,-400.8197 171.7004,-391.8397 161.7052,-395.3536 166.0781,-400.8197"/>
</g>
<!-- c&#45;&gt;a -->
<g id="edge17" class="edge">
<title>c&#45;&gt;a</title>
<path fill="none" stroke="#000000" d="M105.7295,-432.1859C114.0801,-412.2137 130.0749,-380.0111 153,-360 179.0734,-337.2407 216.183,-322.9134 243.3769,-314.7826"/>
<polygon fill="#000000" stroke="#000000" points="244.6112,-318.0703 253.2701,-311.9651 242.6938,-311.338 244.6112,-318.0703"/>
</g>
<!-- c&#45;&gt;c -->
<g id="edge16" class="edge">
<title>c&#45;&gt;c</title>
<path fill="none" stroke="#000000" d="M118.895,-462.4321C131.688,-465.6753 144,-461.5313 144,-450 144,-441.6218 137.5006,-437.1433 129.0395,-436.5644"/>
<polygon fill="#000000" stroke="#000000" points="128.5019,-433.1004 118.895,-437.5679 129.191,-440.0665 128.5019,-433.1004"/>
</g>
<!-- b -->
<g id="node19" class="node">
<title>b</title>
<g id="a_node19"><a xlink:title="b &#45; Compare bigger">
<ellipse fill="none" stroke="#000000" cx="378" cy="-162" rx="27" ry="18"/>
<text text-anchor="middle" x="378" y="-158.3" font-family="Times,serif" font-size="14.00" fill="#000000">b</text>
</a>
</g>
</g>
<!-- b&#45;&gt;l -->
<g id="edge18" class="edge">
<title>b&#45;&gt;l</title>
<path fill="none" stroke="#000000" d="M378,-143.8314C378,-136.131 378,-126.9743 378,-118.4166"/>
<polygon fill="#000000" stroke="#000000" points="381.5001,-118.4132 378,-108.4133 374.5001,-118.4133 381.5001,-118.4132"/>
</g>
<!-- k -->
<g id="node20" class="node">
<title>k</title>
<g id="a_node20"><a xlink:title="k &#45; If/else not empty">
<ellipse fill="none" stroke="#000000" cx="369" cy="-450" rx="27" ry="18"/>
<text text-anchor="middle" x="369" y="-446.3" font-family="Times,serif" font-size="14.00" fill="#000000">k</text>
</a>
</g>
</g>
<!-- k&#45;&gt;x -->
<g id="edge20" class="edge">
<title>k&#45;&gt;x</title>
<path fill="none" stroke="#000000" d="M369,-431.8314C369,-424.131 369,-414.9743 369,-406.4166"/>
<polygon fill="#000000" stroke="#000000" points="372.5001,-406.4132 369,-396.4133 365.5001,-406.4133 372.5001,-406.4132"/>
</g>
<!-- k&#45;&gt;$ -->
<g id="edge19" class="edge">
<title>k&#45;&gt;$</title>
<path fill="none" stroke="#000000" d="M347.4722,-438.7766C342.7475,-436.4429 337.7399,-434.0669 333,-432 296.0009,-415.8658 252.4834,-399.9559 223.0487,-389.6317"/>
<polygon fill="#000000" stroke="#000000" points="223.8532,-386.2058 213.2584,-386.2217 221.5507,-392.8163 223.8532,-386.2058"/>
</g>
<!-- g -->
<g id="node21" class="node">
<title>g</title>
<g id="a_node21"><a xlink:title="g &#45; Compose">
<ellipse fill="none" stroke="#000000" cx="279" cy="-522" rx="27" ry="18"/>
<text text-anchor="middle" x="279" y="-518.3" font-family="Times,serif" font-size="14.00" fill="#000000">g</text>
</a>
</g>
</g>
<!-- g&#45;&gt;k -->
<g id="edge21" class="edge">
<title>g&#45;&gt;k</title>
<path fill="none" stroke="#000000" d="M296.3529,-508.1177C309.7997,-497.3602 328.6239,-482.3009 343.741,-470.2072"/>
<polygon fill="#000000" stroke="#000000" points="346.0781,-472.8197 351.7004,-463.8397 341.7052,-467.3536 346.0781,-472.8197"/>
</g>
<!-- g&#45;&gt;g -->
<g id="edge22" class="edge">
<title>g&#45;&gt;g</title>
<path fill="none" stroke="#000000" d="M298.895,-534.4321C311.688,-537.6753 324,-533.5313 324,-522 324,-513.6218 317.5006,-509.1433 309.0395,-508.5644"/>
<polygon fill="#000000" stroke="#000000" points="308.5019,-505.1004 298.895,-509.5679 309.191,-512.0665 308.5019,-505.1004"/>
</g>
<!-- v -->
<g id="node22" class="node">
<title>v</title>
<g id="a_node22"><a xlink:title="v &#45; Reverse">
<ellipse fill="none" stroke="#000000" cx="189" cy="-522" rx="27" ry="18"/>
<text text-anchor="middle" x="189" y="-518.3" font-family="Times,serif" font-size="14.00" fill="#000000">v</text>
</a>
</g>
</g>
<!-- v&#45;&gt;k -->
<g id="edge23" class="edge">
<title>v&#45;&gt;k</title>
<path fill="none" stroke="#000000" d="M213.2584,-513.7783C242.131,-503.7927 291.6385,-486.0365 333,-468 334.7774,-467.2249 336.5926,-466.4064 338.4163,-465.5629"/>
<polygon fill="#000000" stroke="#000000" points="339.9666,-468.7011 347.4722,-461.2234 336.9416,-462.3885 339.9666,-468.7011"/>
</g>
<!-- v&#45;&gt;v -->
<g id="edge24" class="edge">
<title>v&#45;&gt;v</title>
<path fill="none" stroke="#000000" d="M208.895,-534.4321C221.688,-537.6753 234,-533.5313 234,-522 234,-513.6218 227.5006,-509.1433 219.0395,-508.5644"/>
<polygon fill="#000000" stroke="#000000" points="218.5019,-505.1004 208.895,-509.5679 219.191,-512.0665 218.5019,-505.1004"/>
</g>
<!-- f -->
<g id="node23" class="node">
<title>f</title>
<g id="a_node23"><a xlink:title="f &#45; Transform">
<ellipse fill="none" stroke="#000000" cx="369" cy="-522" rx="27" ry="18"/>
<text text-anchor="middle" x="369" y="-518.3" font-family="Times,serif" font-size="14.00" fill="#000000">f</text>
</a>
</g>
</g>
<!-- f&#45;&gt;k -->
<g id="edge25" class="edge">
<title>f&#45;&gt;k</title>
<path fill="none" stroke="#000000" d="M369,-503.8314C369,-496.131 369,-486.9743 369,-478.4166"/>
<polygon fill="#000000" stroke="#000000" points="372.5001,-478.4132 369,-468.4133 365.5001,-478.4133 372.5001,-478.4132"/>
</g>
<!-- f&#45;&gt;f -->
<g id="edge26" class="edge">
<title>f&#45;&gt;f</title>
<path fill="none" stroke="#000000" d="M388.895,-534.4321C401.688,-537.6753 414,-533.5313 414,-522 414,-513.6218 407.5006,-509.1433 399.0395,-508.5644"/>
<polygon fill="#000000" stroke="#000000" points="398.5019,-505.1004 388.895,-509.5679 399.191,-512.0665 398.5019,-505.1004"/>
</g>
<!-- p -->
<g id="node24" class="node">
<title>p</title>
<g id="a_node24"><a xlink:title="p &#45; Pipe">
<ellipse fill="none" stroke="#000000" cx="234" cy="-594" rx="27" ry="18"/>
<text text-anchor="middle" x="234" y="-590.3" font-family="Times,serif" font-size="14.00" fill="#000000">p</text>
</a>
</g>
</g>
<!-- p&#45;&gt;g -->
<g id="edge27" class="edge">
<title>p&#45;&gt;g</title>
<path fill="none" stroke="#000000" d="M244.437,-577.3008C249.9235,-568.5224 256.7686,-557.5703 262.9163,-547.7339"/>
<polygon fill="#000000" stroke="#000000" points="265.9751,-549.4436 268.3071,-539.1086 260.0391,-545.7336 265.9751,-549.4436"/>
</g>
<!-- p&#45;&gt;v -->
<g id="edge28" class="edge">
<title>p&#45;&gt;v</title>
<path fill="none" stroke="#000000" d="M223.563,-577.3008C218.0765,-568.5224 211.2314,-557.5703 205.0837,-547.7339"/>
<polygon fill="#000000" stroke="#000000" points="207.9609,-545.7336 199.6929,-539.1086 202.0249,-549.4436 207.9609,-545.7336"/>
</g>
<!-- u -->
<g id="node25" class="node">
<title>u</title>
<g id="a_node25"><a xlink:title="u &#45; Reduce">
<ellipse fill="none" stroke="#000000" cx="459" cy="-522" rx="27" ry="18"/>
<text text-anchor="middle" x="459" y="-518.3" font-family="Times,serif" font-size="14.00" fill="#000000">u</text>
</a>
</g>
</g>
<!-- u&#45;&gt;k -->
<g id="edge29" class="edge">
<title>u&#45;&gt;k</title>
<path fill="none" stroke="#000000" d="M441.6471,-508.1177C428.2003,-497.3602 409.3761,-482.3009 394.259,-470.2072"/>
<polygon fill="#000000" stroke="#000000" points="396.2948,-467.3536 386.2996,-463.8397 391.9219,-472.8197 396.2948,-467.3536"/>
</g>
<!-- u&#45;&gt;u -->
<g id="edge30" class="edge">
<title>u&#45;&gt;u</title>
<path fill="none" stroke="#000000" d="M478.895,-534.4321C491.688,-537.6753 504,-533.5313 504,-522 504,-513.6218 497.5006,-509.1433 489.0395,-508.5644"/>
<polygon fill="#000000" stroke="#000000" points="488.5019,-505.1004 478.895,-509.5679 489.191,-512.0665 488.5019,-505.1004"/>
</g>
<!-- j -->
<g id="node26" class="node">
<title>j</title>
<g id="a_node26"><a xlink:title="j &#45; Create object">
<ellipse fill="none" stroke="#000000" cx="459" cy="-594" rx="27" ry="18"/>
<text text-anchor="middle" x="459" y="-590.3" font-family="Times,serif" font-size="14.00" fill="#000000">j</text>
</a>
</g>
</g>
<!-- j&#45;&gt;u -->
<g id="edge31" class="edge">
<title>j&#45;&gt;u</title>
<path fill="none" stroke="#000000" d="M459,-575.8314C459,-568.131 459,-558.9743 459,-550.4166"/>
<polygon fill="#000000" stroke="#000000" points="462.5001,-550.4132 459,-540.4133 455.5001,-550.4133 462.5001,-550.4132"/>
</g>
<!-- j&#45;&gt;j -->
<g id="edge32" class="edge">
<title>j&#45;&gt;j</title>
<path fill="none" stroke="#000000" d="M478.895,-606.4321C491.688,-609.6753 504,-605.5313 504,-594 504,-585.6218 497.5006,-581.1433 489.0395,-580.5644"/>
<polygon fill="#000000" stroke="#000000" points="488.5019,-577.1004 478.895,-581.5679 489.191,-584.0665 488.5019,-577.1004"/>
</g>
<!-- r -->
<g id="node27" class="node">
<title>r</title>
<g id="a_node27"><a xlink:title="r &#45; Curry">
<ellipse fill="none" stroke="#000000" cx="279" cy="-450" rx="27" ry="18"/>
<text text-anchor="middle" x="279" y="-446.3" font-family="Times,serif" font-size="14.00" fill="#000000">r</text>
</a>
</g>
</g>
<!-- r&#45;&gt;$ -->
<g id="edge34" class="edge">
<title>r&#45;&gt;$</title>
<path fill="none" stroke="#000000" d="M261.6471,-436.1177C248.2003,-425.3602 229.3761,-410.3009 214.259,-398.2072"/>
<polygon fill="#000000" stroke="#000000" points="216.2948,-395.3536 206.2996,-391.8397 211.9219,-400.8197 216.2948,-395.3536"/>
</g>
<!-- r&#45;&gt;d -->
<g id="edge33" class="edge">
<title>r&#45;&gt;d</title>
<path fill="none" stroke="#000000" d="M279,-431.8314C279,-424.131 279,-414.9743 279,-406.4166"/>
<polygon fill="#000000" stroke="#000000" points="282.5001,-406.4132 279,-396.4133 275.5001,-406.4133 282.5001,-406.4132"/>
</g>
<!-- r&#45;&gt;r -->
<g id="edge35" class="edge">
<title>r&#45;&gt;r</title>
<path fill="none" stroke="#000000" d="M298.895,-462.4321C311.688,-465.6753 324,-461.5313 324,-450 324,-441.6218 317.5006,-437.1433 309.0395,-436.5644"/>
<polygon fill="#000000" stroke="#000000" points="308.5019,-433.1004 298.895,-437.5679 309.191,-440.0665 308.5019,-433.1004"/>
</g>
<!-- h -->
<g id="node28" class="node">
<title>h</title>
<g id="a_node28"><a xlink:title="h &#45; Switch">
<ellipse fill="none" stroke="#000000" cx="549" cy="-522" rx="27" ry="18"/>
<text text-anchor="middle" x="549" y="-518.3" font-family="Times,serif" font-size="14.00" fill="#000000">h</text>
</a>
</g>
</g>
<!-- h&#45;&gt;k -->
<g id="edge36" class="edge">
<title>h&#45;&gt;k</title>
<path fill="none" stroke="#000000" d="M527.4722,-510.7766C522.7475,-508.4429 517.7399,-506.0669 513,-504 476.0009,-487.8658 432.4834,-471.9559 403.0487,-461.6317"/>
<polygon fill="#000000" stroke="#000000" points="403.8532,-458.2058 393.2584,-458.2217 401.5507,-464.8163 403.8532,-458.2058"/>
</g>
<!-- h&#45;&gt;h -->
<g id="edge37" class="edge">
<title>h&#45;&gt;h</title>
<path fill="none" stroke="#000000" d="M568.895,-534.4321C581.688,-537.6753 594,-533.5313 594,-522 594,-513.6218 587.5006,-509.1433 579.0395,-508.5644"/>
<polygon fill="#000000" stroke="#000000" points="578.5019,-505.1004 568.895,-509.5679 579.191,-512.0665 578.5019,-505.1004"/>
</g>
</g>
<style>.node {
    pointer-events: all;
    cursor: default;
}

.node ellipse,
.node polygon {
    fill: transparent;
    -webkit-transition: fill 0.4s;
    -o-transition: fill 0.4s;
    transition: fill 0.4s;
}

.node.selected ellipse,
.node.selected polygon {
    -webkit-transition-duration: 0.2s;
    -o-transition-duration: 0.2s;
    transition-duration: 0.2s;
}

.node.selected.blue ellipse,
.node.selected.blue polygon {
    fill: #84b6c4 !important;
}

.node.selected.red ellipse,
.node.selected.red polygon {
    fill: #ff3856 !important;
}</style>
		<script id="graph-dependencies-script">
			var dependencies = new Map([["_", new Set([])],
["y", new Set([])],
["m", new Set([])],
["e", new Set([])],
["l", new Set(["y"])],
["x", new Set([])],
["t", new Set(["y"])],
["q", new Set([])],
["$", new Set(["i","e","_","m","z","n","y","l","s"])],
["o", new Set([])],
["n", new Set([])],
["z", new Set(["l","s","y","e"])],
["i", new Set(["_","m","z","n","y","l","s","e"])],
["w", new Set(["i","w","$","_","m","z","n","y","l","s","e"])],
["s", new Set(["l","e","y"])],
["a", new Set(["l","e","s","y"])],
["d", new Set(["e","a","l","s","y"])],
["c", new Set(["z","i","$","e","c","a","l","s","y","_","m","n"])],
["b", new Set(["l","y"])],
["k", new Set(["_","i","$","e","x","m","z","n","y","l","s"])],
["g", new Set(["k","g","$","_","i","e","x","m","z","n","y","l","s"])],
["v", new Set(["y","k","$","v","_","i","e","x","m","z","n","l","s"])],
["f", new Set(["y","k","$","f","_","i","e","x","m","z","n","l","s"])],
["p", new Set(["g","v","k","$","_","i","e","x","m","z","n","y","l","s"])],
["u", new Set(["k","$","u","_","i","e","x","m","z","n","y","l","s"])],
["j", new Set(["k","$","u","j","_","i","e","x","m","z","n","y","l","s"])],
["r", new Set(["d","i","$","l","r","s","e","a","y","_","m","z","n"])],
["h", new Set(["i","$","k","h","_","m","z","n","y","l","s","e","x"])]]);
			var inverseDependencies = new Map([["_", new Set(["i","k","$","w","c","r","h","g","v","f","u","j","p"])],
["y", new Set(["l","t","i","v","f","z","s","a","b","r","c","$","w","k","h","g","u","j","p","d"])],
["m", new Set(["i","$","w","c","k","r","h","g","v","f","u","j","p"])],
["e", new Set(["$","s","a","d","c","k","w","g","v","f","u","j","r","h","p","z","i"])],
["l", new Set(["z","s","a","b","r","i","c","$","w","k","h","g","v","f","u","j","p","d"])],
["x", new Set(["k","g","v","f","u","j","h","p"])],
["t", new Set([])],
["q", new Set([])],
["$", new Set(["w","c","k","g","v","f","u","j","r","h","p"])],
["i", new Set(["$","w","c","k","r","h","g","v","f","u","j","p"])],
["o", new Set([])],
["n", new Set(["i","$","w","c","k","r","h","g","v","f","u","j","p"])],
["z", new Set(["i","c","$","w","k","r","h","g","v","f","u","j","p"])],
["s", new Set(["z","a","r","i","c","$","w","k","h","g","v","f","u","j","p","d"])],
["w", new Set(["w"])],
["a", new Set(["d","c","r"])],
["d", new Set(["r"])],
["c", new Set(["c"])],
["b", new Set([])],
["k", new Set(["g","v","f","u","j","h","p"])],
["g", new Set(["g","p"])],
["v", new Set(["v","p"])],
["f", new Set(["f"])],
["p", new Set([])],
["u", new Set(["u","j"])],
["j", new Set(["j"])],
["r", new Set(["r"])],
["h", new Set(["h"])]]);
			var scriptElement = document.getElementById('graph-dependencies-script');
var nodeCollection = scriptElement.parentElement.querySelectorAll('.node');
var addClass = function (element, cls) {
	cls.split(/\s+/).forEach(function (c) {
		var currentClass = element.getAttribute('class');
		if (currentClass.indexOf(c) === -1) {
			element.setAttribute('class', currentClass + ' ' + c);
		}
	});
};
var removeClass = function (element, cls) {
	cls.split(/\s+/).forEach(function (c) {
		element.setAttribute('class', (element.getAttribute('class') || '').replace(new RegExp('\\s*' + c, 'g'), ''));
	});
};
var getNodeName = function (nodeElement) {
	return nodeElement.querySelector('text').innerHTML;
};
var getNodeByName = function (fnName) {
	var result = null;
	[].some.call(nodeCollection, function (nodeElement, i) {
		if (getNodeName(nodeElement) === fnName) {
			result = nodeElement;
		}

		return result !== null;
	});
	return result;
};
var highlightColors = {
	children: 'blue',
	parents: 'red'
};
var highlight = function (root, nodes, color) {
	if (root === false) {
		currentlyHighlighted.nodes.forEach(function (nodeElement) {
			removeClass(nodeElement, 'selected ' + Object.keys(highlightColors).map(function (key) {
				return highlightColors[key];
			}).join(' '));
		});
		currentlyHighlighted = null;
	} else {
		nodes.forEach(function (nodeElement) {
			addClass(nodeElement, 'selected ' + color);
		});
		currentlyHighlighted = {
			root: root,
			nodes: nodes
		};
	}
};
var isShiftPressed = false;
var currentlyHighlighted = null;
var nodeRelations = new Map();

document.onkeydown = function(e) {
	if (e.code === 'ShiftLeft') {
		isShiftPressed = true;
		if (currentlyHighlighted !== null) {
			var root = currentlyHighlighted.root;
			highlight(false);
			highlight(root, nodeRelations.get(root).inverseDependencies, highlightColors.parents);
		}
	}
};

document.onkeyup = function(e) {
	if (e.code === 'ShiftLeft') {
		isShiftPressed = false;
		if (currentlyHighlighted !== null) {
			var root = currentlyHighlighted.root;
			highlight(false);
			highlight(root, nodeRelations.get(root).dependencies, highlightColors.children);
		}
	}
};

[].forEach.call(nodeCollection, function (nodeElement) {
	var nodeName = getNodeName(nodeElement);
	var nodeDependencies = new Set([nodeElement]);
	var inverseNodeDependencies = new Set([nodeElement]);

	dependencies.get(nodeName).forEach(function (name) {
		nodeDependencies.add(getNodeByName(name));
	});
	inverseDependencies.get(nodeName).forEach(function (name) {
		inverseNodeDependencies.add(getNodeByName(name));
	});

	nodeRelations.set(nodeElement, {
		dependencies: nodeDependencies,
		inverseDependencies: inverseNodeDependencies
	});

	nodeElement.onmouseenter = function () {
		if (isShiftPressed) {
			highlight(nodeElement, inverseNodeDependencies, highlightColors.parents);
		} else {
			highlight(nodeElement, nodeDependencies, highlightColors.children);
		}

	};
	nodeElement.onmouseleave = function () {
		highlight(false);
	};
});
		</script>
		</svg>
