<?xml version="1.0" encoding="UTF-8" standalone="no"?>
<!DOCTYPE svg PUBLIC "-//W3C//DTD SVG 1.1//EN"
 "http://www.w3.org/Graphics/SVG/1.1/DTD/svg11.dtd">
<!-- Generated by graphviz version 2.40.1 (20161225.0304)
 -->
<!-- Pages: 1 -->
<svg width="513pt" height="620pt"
 viewBox="0.00 0.00 513.00 620.00" xmlns="http://www.w3.org/2000/svg" xmlns:xlink="http://www.w3.org/1999/xlink">
<g id="graph0" class="graph" transform="scale(1 1) rotate(0) translate(4 616)">
<polygon fill="#ffffff" stroke="transparent" points="-4,4 -4,-616 509,-616 509,4 -4,4"/>
<!-- _ -->
<g id="node1" class="node">
<title>_</title>
<g id="a_node1"><a xlink:title="_ &#45; Identity">
<ellipse fill="none" stroke="#000000" cx="234" cy="-234" rx="27" ry="18"/>
<text text-anchor="middle" x="234" y="-230.3" font-family="Times,serif" font-size="14.00" fill="#000000">_</text>
</a>
</g>
</g>
<!-- y -->
<g id="node2" class="node">
<title>y</title>
<g id="a_node2"><a xlink:title="y &#45; Create array">
<ellipse fill="none" stroke="#000000" cx="162" cy="-234" rx="27" ry="18"/>
<text text-anchor="middle" x="162" y="-230.3" font-family="Times,serif" font-size="14.00" fill="#000000">y</text>
</a>
</g>
</g>
<!-- m -->
<g id="node3" class="node">
<title>m</title>
<g id="a_node3"><a xlink:title="m &#45; Member">
<ellipse fill="none" stroke="#000000" cx="306" cy="-234" rx="27" ry="18"/>
<text text-anchor="middle" x="306" y="-230.3" font-family="Times,serif" font-size="14.00" fill="#000000">m</text>
</a>
</g>
</g>
<!-- e -->
<g id="node4" class="node">
<title>e</title>
<g id="a_node4"><a xlink:title="e &#45; Compare equal">
<polygon fill="none" stroke="#000000" points="126,-108 72,-108 72,-72 126,-72 126,-108"/>
<text text-anchor="middle" x="99" y="-86.3" font-family="Times,serif" font-size="14.00" fill="#000000">e</text>
</a>
</g>
</g>
<!-- x -->
<g id="node5" class="node">
<title>x</title>
<g id="a_node5"><a xlink:title="x &#45; Extract">
<ellipse fill="none" stroke="#000000" cx="281" cy="-378" rx="27" ry="18"/>
<text text-anchor="middle" x="281" y="-374.3" font-family="Times,serif" font-size="14.00" fill="#000000">x</text>
</a>
</g>
</g>
<!-- t -->
<g id="node6" class="node">
<title>t</title>
<g id="a_node6"><a xlink:title="t &#45; Concatenate">
<ellipse fill="none" stroke="#000000" cx="171" cy="-306" rx="27" ry="18"/>
<text text-anchor="middle" x="171" y="-302.3" font-family="Times,serif" font-size="14.00" fill="#000000">t</text>
</a>
</g>
</g>
<!-- t&#45;&gt;y -->
<g id="edge1" class="edge">
<title>t&#45;&gt;y</title>
<path fill="none" stroke="#000000" d="M168.7289,-287.8314C167.7664,-280.131 166.6218,-270.9743 165.5521,-262.4166"/>
<polygon fill="#000000" stroke="#000000" points="169.0151,-261.9019 164.3017,-252.4133 162.0691,-262.7702 169.0151,-261.9019"/>
</g>
<!-- q -->
<g id="node7" class="node">
<title>q</title>
<g id="a_node7"><a xlink:title="q &#45; Dequeue">
<ellipse fill="none" stroke="#000000" cx="460" cy="-594" rx="27" ry="18"/>
<text text-anchor="middle" x="460" y="-590.3" font-family="Times,serif" font-size="14.00" fill="#000000">q</text>
</a>
</g>
</g>
<!-- $ -->
<g id="node8" class="node">
<title>$</title>
<g id="a_node8"><a xlink:title="$ &#45; Wrap">
<ellipse fill="none" stroke="#000000" cx="209" cy="-378" rx="27" ry="18"/>
<text text-anchor="middle" x="209" y="-374.3" font-family="Times,serif" font-size="14.00" fill="#000000">$</text>
</a>
</g>
</g>
<!-- i -->
<g id="node12" class="node">
<title>i</title>
<g id="a_node12"><a xlink:title="i &#45; If/else">
<ellipse fill="none" stroke="#000000" cx="270" cy="-306" rx="27" ry="18"/>
<text text-anchor="middle" x="270" y="-302.3" font-family="Times,serif" font-size="14.00" fill="#000000">i</text>
</a>
</g>
</g>
<!-- $&#45;&gt;i -->
<g id="edge2" class="edge">
<title>$&#45;&gt;i</title>
<path fill="none" stroke="#000000" d="M222.5379,-362.0209C230.5933,-352.5128 240.9633,-340.2728 249.9544,-329.6604"/>
<polygon fill="#000000" stroke="#000000" points="252.7062,-331.8268 256.5,-321.9345 247.3653,-327.3019 252.7062,-331.8268"/>
</g>
<!-- n -->
<g id="node9" class="node">
<title>n</title>
<g id="a_node9"><a xlink:title="n &#45; Logical NOR">
<polygon fill="none" stroke="#000000" points="54,-36 0,-36 0,0 54,0 54,-36"/>
<text text-anchor="middle" x="27" y="-14.3" font-family="Times,serif" font-size="14.00" fill="#000000">n</text>
</a>
</g>
</g>
<!-- o -->
<g id="node10" class="node">
<title>o</title>
<g id="a_node10"><a xlink:title="o &#45; Logical OR">
<ellipse fill="none" stroke="#000000" cx="27" cy="-90" rx="27" ry="18"/>
<text text-anchor="middle" x="27" y="-86.3" font-family="Times,serif" font-size="14.00" fill="#000000">o</text>
</a>
</g>
</g>
<!-- o&#45;&gt;n -->
<g id="edge3" class="edge">
<title>o&#45;&gt;n</title>
<path fill="none" stroke="#000000" d="M27,-71.8314C27,-64.131 27,-54.9743 27,-46.4166"/>
<polygon fill="#000000" stroke="#000000" points="30.5001,-46.4132 27,-36.4133 23.5001,-46.4133 30.5001,-46.4132"/>
</g>
<!-- z -->
<g id="node11" class="node">
<title>z</title>
<g id="a_node11"><a xlink:title="z &#45; Zero">
<ellipse fill="none" stroke="#000000" cx="378" cy="-234" rx="27" ry="18"/>
<text text-anchor="middle" x="378" y="-230.3" font-family="Times,serif" font-size="14.00" fill="#000000">z</text>
</a>
</g>
</g>
<!-- s -->
<g id="node14" class="node">
<title>s</title>
<g id="a_node14"><a xlink:title="s &#45; Subtract">
<polygon fill="none" stroke="#000000" points="126,-180 72,-180 72,-144 126,-144 126,-180"/>
<text text-anchor="middle" x="99" y="-158.3" font-family="Times,serif" font-size="14.00" fill="#000000">s</text>
</a>
</g>
</g>
<!-- z&#45;&gt;s -->
<g id="edge4" class="edge">
<title>z&#45;&gt;s</title>
<path fill="none" stroke="#000000" d="M357.0573,-222.4527C352.2106,-220.0851 347.0046,-217.7768 342,-216 271.2383,-190.8767 184.5917,-174.9812 136.2196,-167.3606"/>
<polygon fill="#000000" stroke="#000000" points="136.628,-163.8823 126.2112,-165.8163 135.5605,-170.8004 136.628,-163.8823"/>
</g>
<!-- i&#45;&gt;_ -->
<g id="edge5" class="edge">
<title>i&#45;&gt;_</title>
<path fill="none" stroke="#000000" d="M261.2854,-288.5708C257.0403,-280.0807 251.8464,-269.6929 247.1337,-260.2674"/>
<polygon fill="#000000" stroke="#000000" points="250.237,-258.6477 242.6343,-251.2687 243.976,-261.7782 250.237,-258.6477"/>
</g>
<!-- i&#45;&gt;y -->
<g id="edge8" class="edge">
<title>i&#45;&gt;y</title>
<path fill="none" stroke="#000000" d="M250.6918,-293.1278C233.6445,-281.763 208.5981,-265.0654 189.4656,-252.3104"/>
<polygon fill="#000000" stroke="#000000" points="191.4031,-249.3956 181.1411,-246.7607 187.5201,-255.2199 191.4031,-249.3956"/>
</g>
<!-- i&#45;&gt;m -->
<g id="edge6" class="edge">
<title>i&#45;&gt;m</title>
<path fill="none" stroke="#000000" d="M278.7146,-288.5708C282.9597,-280.0807 288.1536,-269.6929 292.8663,-260.2674"/>
<polygon fill="#000000" stroke="#000000" points="296.024,-261.7782 297.3657,-251.2687 289.763,-258.6477 296.024,-261.7782"/>
</g>
<!-- i&#45;&gt;z -->
<g id="edge7" class="edge">
<title>i&#45;&gt;z</title>
<path fill="none" stroke="#000000" d="M289.3082,-293.1278C306.3555,-281.763 331.4019,-265.0654 350.5344,-252.3104"/>
<polygon fill="#000000" stroke="#000000" points="352.4799,-255.2199 358.8589,-246.7607 348.5969,-249.3956 352.4799,-255.2199"/>
</g>
<!-- w -->
<g id="node13" class="node">
<title>w</title>
<g id="a_node13"><a xlink:title="w &#45; While">
<polygon fill="none" stroke="#000000" points="380,-396 326,-396 326,-360 380,-360 380,-396"/>
<text text-anchor="middle" x="353" y="-374.3" font-family="Times,serif" font-size="14.00" fill="#000000">w</text>
</a>
</g>
</g>
<!-- w&#45;&gt;i -->
<g id="edge9" class="edge">
<title>w&#45;&gt;i</title>
<path fill="none" stroke="#000000" d="M332.0556,-359.8314C320.584,-349.8801 306.3088,-337.4968 294.3432,-327.117"/>
<polygon fill="#000000" stroke="#000000" points="296.3385,-324.2145 286.4912,-320.3056 291.7516,-329.5023 296.3385,-324.2145"/>
</g>
<!-- w&#45;&gt;w -->
<g id="edge10" class="edge">
<title>w&#45;&gt;w</title>
<path fill="none" stroke="#000000" d="M380.2408,-391.4868C390.0239,-391.7769 398,-387.2813 398,-378 398,-372.1992 394.8843,-368.2678 390.1591,-366.2058"/>
<polygon fill="#000000" stroke="#000000" points="390.6871,-362.7454 380.2408,-364.5132 389.5094,-369.6456 390.6871,-362.7454"/>
</g>
<!-- s&#45;&gt;e -->
<g id="edge12" class="edge">
<title>s&#45;&gt;e</title>
<path fill="none" stroke="#000000" d="M99,-143.8314C99,-136.131 99,-126.9743 99,-118.4166"/>
<polygon fill="#000000" stroke="#000000" points="102.5001,-118.4132 99,-108.4133 95.5001,-118.4133 102.5001,-118.4132"/>
</g>
<!-- s&#45;&gt;o -->
<g id="edge11" class="edge">
<title>s&#45;&gt;o</title>
<path fill="none" stroke="#000000" d="M80.8314,-143.8314C71.2706,-134.2706 59.4651,-122.4651 49.3481,-112.3481"/>
<polygon fill="#000000" stroke="#000000" points="51.5519,-109.6021 42.0059,-105.0059 46.6021,-114.5519 51.5519,-109.6021"/>
</g>
<!-- a -->
<g id="node15" class="node">
<title>a</title>
<g id="a_node15"><a xlink:title="a &#45; Add">
<ellipse fill="none" stroke="#000000" cx="99" cy="-306" rx="27" ry="18"/>
<text text-anchor="middle" x="99" y="-302.3" font-family="Times,serif" font-size="14.00" fill="#000000">a</text>
</a>
</g>
</g>
<!-- a&#45;&gt;s -->
<g id="edge13" class="edge">
<title>a&#45;&gt;s</title>
<path fill="none" stroke="#000000" d="M99,-287.7623C99,-263.201 99,-219.2474 99,-190.3541"/>
<polygon fill="#000000" stroke="#000000" points="102.5001,-190.0896 99,-180.0896 95.5001,-190.0897 102.5001,-190.0896"/>
</g>
<!-- d -->
<g id="node16" class="node">
<title>d</title>
<g id="a_node16"><a xlink:title="d &#45; Double">
<ellipse fill="none" stroke="#000000" cx="99" cy="-378" rx="27" ry="18"/>
<text text-anchor="middle" x="99" y="-374.3" font-family="Times,serif" font-size="14.00" fill="#000000">d</text>
</a>
</g>
</g>
<!-- d&#45;&gt;a -->
<g id="edge14" class="edge">
<title>d&#45;&gt;a</title>
<path fill="none" stroke="#000000" d="M99,-359.8314C99,-352.131 99,-342.9743 99,-334.4166"/>
<polygon fill="#000000" stroke="#000000" points="102.5001,-334.4132 99,-324.4133 95.5001,-334.4133 102.5001,-334.4132"/>
</g>
<!-- c -->
<g id="node17" class="node">
<title>c</title>
<g id="a_node17"><a xlink:title="c &#45; Count">
<ellipse fill="none" stroke="#000000" cx="190" cy="-450" rx="27" ry="18"/>
<text text-anchor="middle" x="190" y="-446.3" font-family="Times,serif" font-size="14.00" fill="#000000">c</text>
</a>
</g>
</g>
<!-- c&#45;&gt;$ -->
<g id="edge15" class="edge">
<title>c&#45;&gt;$</title>
<path fill="none" stroke="#000000" d="M194.6966,-432.2022C196.7976,-424.2406 199.324,-414.6671 201.665,-405.7957"/>
<polygon fill="#000000" stroke="#000000" points="205.1241,-406.4046 204.2916,-395.8425 198.3558,-404.6185 205.1241,-406.4046"/>
</g>
<!-- c&#45;&gt;a -->
<g id="edge17" class="edge">
<title>c&#45;&gt;a</title>
<path fill="none" stroke="#000000" d="M179.8581,-432.9571C168.9688,-414.7649 151.0636,-385.1568 135,-360 128.9058,-350.4561 122.0483,-340.0833 115.966,-331.0033"/>
<polygon fill="#000000" stroke="#000000" points="118.6856,-328.7755 110.1991,-322.4328 112.8779,-332.6834 118.6856,-328.7755"/>
</g>
<!-- c&#45;&gt;c -->
<g id="edge16" class="edge">
<title>c&#45;&gt;c</title>
<path fill="none" stroke="#000000" d="M209.895,-462.4321C222.688,-465.6753 235,-461.5313 235,-450 235,-441.6218 228.5006,-437.1433 220.0395,-436.5644"/>
<polygon fill="#000000" stroke="#000000" points="219.5019,-433.1004 209.895,-437.5679 220.191,-440.0665 219.5019,-433.1004"/>
</g>
<!-- l -->
<g id="node18" class="node">
<title>l</title>
<g id="a_node18"><a xlink:title="l &#45; Compare less">
<polygon fill="none" stroke="#000000" points="54,-396 0,-396 0,-360 54,-360 54,-396"/>
<text text-anchor="middle" x="27" y="-374.3" font-family="Times,serif" font-size="14.00" fill="#000000">l</text>
</a>
</g>
</g>
<!-- l&#45;&gt;o -->
<g id="edge18" class="edge">
<title>l&#45;&gt;o</title>
<path fill="none" stroke="#000000" d="M27,-359.9843C27,-311.2939 27,-176.7961 27,-118.0573"/>
<polygon fill="#000000" stroke="#000000" points="30.5001,-118.0088 27,-108.0089 23.5001,-118.0089 30.5001,-118.0088"/>
</g>
<!-- b -->
<g id="node19" class="node">
<title>b</title>
<g id="a_node19"><a xlink:title="b &#45; Compare bigger">
<ellipse fill="none" stroke="#000000" cx="27" cy="-450" rx="27" ry="18"/>
<text text-anchor="middle" x="27" y="-446.3" font-family="Times,serif" font-size="14.00" fill="#000000">b</text>
</a>
</g>
</g>
<!-- b&#45;&gt;l -->
<g id="edge19" class="edge">
<title>b&#45;&gt;l</title>
<path fill="none" stroke="#000000" d="M27,-431.8314C27,-424.131 27,-414.9743 27,-406.4166"/>
<polygon fill="#000000" stroke="#000000" points="30.5001,-406.4132 27,-396.4133 23.5001,-406.4133 30.5001,-406.4132"/>
</g>
<!-- k -->
<g id="node20" class="node">
<title>k</title>
<g id="a_node20"><a xlink:title="k &#45; If/else not empty">
<ellipse fill="none" stroke="#000000" cx="280" cy="-450" rx="27" ry="18"/>
<text text-anchor="middle" x="280" y="-446.3" font-family="Times,serif" font-size="14.00" fill="#000000">k</text>
</a>
</g>
</g>
<!-- k&#45;&gt;x -->
<g id="edge21" class="edge">
<title>k&#45;&gt;x</title>
<path fill="none" stroke="#000000" d="M280.2523,-431.8314C280.3593,-424.131 280.4865,-414.9743 280.6053,-406.4166"/>
<polygon fill="#000000" stroke="#000000" points="284.1049,-406.4609 280.7443,-396.4133 277.1056,-406.3637 284.1049,-406.4609"/>
</g>
<!-- k&#45;&gt;$ -->
<g id="edge20" class="edge">
<title>k&#45;&gt;$</title>
<path fill="none" stroke="#000000" d="M264.9427,-434.7307C255.153,-424.803 242.2169,-411.6847 231.2503,-400.5637"/>
<polygon fill="#000000" stroke="#000000" points="233.5492,-397.9102 224.0356,-393.2473 228.5649,-402.8252 233.5492,-397.9102"/>
</g>
<!-- g -->
<g id="node21" class="node">
<title>g</title>
<g id="a_node21"><a xlink:title="g &#45; Compose">
<ellipse fill="none" stroke="#000000" cx="190" cy="-522" rx="27" ry="18"/>
<text text-anchor="middle" x="190" y="-518.3" font-family="Times,serif" font-size="14.00" fill="#000000">g</text>
</a>
</g>
</g>
<!-- g&#45;&gt;k -->
<g id="edge22" class="edge">
<title>g&#45;&gt;k</title>
<path fill="none" stroke="#000000" d="M207.3529,-508.1177C220.7997,-497.3602 239.6239,-482.3009 254.741,-470.2072"/>
<polygon fill="#000000" stroke="#000000" points="257.0781,-472.8197 262.7004,-463.8397 252.7052,-467.3536 257.0781,-472.8197"/>
</g>
<!-- g&#45;&gt;g -->
<g id="edge23" class="edge">
<title>g&#45;&gt;g</title>
<path fill="none" stroke="#000000" d="M209.895,-534.4321C222.688,-537.6753 235,-533.5313 235,-522 235,-513.6218 228.5006,-509.1433 220.0395,-508.5644"/>
<polygon fill="#000000" stroke="#000000" points="219.5019,-505.1004 209.895,-509.5679 220.191,-512.0665 219.5019,-505.1004"/>
</g>
<!-- v -->
<g id="node22" class="node">
<title>v</title>
<g id="a_node22"><a xlink:title="v &#45; Reverse">
<ellipse fill="none" stroke="#000000" cx="100" cy="-522" rx="27" ry="18"/>
<text text-anchor="middle" x="100" y="-518.3" font-family="Times,serif" font-size="14.00" fill="#000000">v</text>
</a>
</g>
</g>
<!-- v&#45;&gt;k -->
<g id="edge24" class="edge">
<title>v&#45;&gt;k</title>
<path fill="none" stroke="#000000" d="M124.2584,-513.7783C153.131,-503.7927 202.6385,-486.0365 244,-468 245.7774,-467.2249 247.5926,-466.4064 249.4163,-465.5629"/>
<polygon fill="#000000" stroke="#000000" points="250.9666,-468.7011 258.4722,-461.2234 247.9416,-462.3885 250.9666,-468.7011"/>
</g>
<!-- v&#45;&gt;v -->
<g id="edge25" class="edge">
<title>v&#45;&gt;v</title>
<path fill="none" stroke="#000000" d="M119.895,-534.4321C132.688,-537.6753 145,-533.5313 145,-522 145,-513.6218 138.5006,-509.1433 130.0395,-508.5644"/>
<polygon fill="#000000" stroke="#000000" points="129.5019,-505.1004 119.895,-509.5679 130.191,-512.0665 129.5019,-505.1004"/>
</g>
<!-- f -->
<g id="node23" class="node">
<title>f</title>
<g id="a_node23"><a xlink:title="f &#45; Transform">
<ellipse fill="none" stroke="#000000" cx="280" cy="-522" rx="27" ry="18"/>
<text text-anchor="middle" x="280" y="-518.3" font-family="Times,serif" font-size="14.00" fill="#000000">f</text>
</a>
</g>
</g>
<!-- f&#45;&gt;k -->
<g id="edge26" class="edge">
<title>f&#45;&gt;k</title>
<path fill="none" stroke="#000000" d="M280,-503.8314C280,-496.131 280,-486.9743 280,-478.4166"/>
<polygon fill="#000000" stroke="#000000" points="283.5001,-478.4132 280,-468.4133 276.5001,-478.4133 283.5001,-478.4132"/>
</g>
<!-- f&#45;&gt;f -->
<g id="edge27" class="edge">
<title>f&#45;&gt;f</title>
<path fill="none" stroke="#000000" d="M299.895,-534.4321C312.688,-537.6753 325,-533.5313 325,-522 325,-513.6218 318.5006,-509.1433 310.0395,-508.5644"/>
<polygon fill="#000000" stroke="#000000" points="309.5019,-505.1004 299.895,-509.5679 310.191,-512.0665 309.5019,-505.1004"/>
</g>
<!-- p -->
<g id="node24" class="node">
<title>p</title>
<g id="a_node24"><a xlink:title="p &#45; Pipe">
<ellipse fill="none" stroke="#000000" cx="145" cy="-594" rx="27" ry="18"/>
<text text-anchor="middle" x="145" y="-590.3" font-family="Times,serif" font-size="14.00" fill="#000000">p</text>
</a>
</g>
</g>
<!-- p&#45;&gt;g -->
<g id="edge28" class="edge">
<title>p&#45;&gt;g</title>
<path fill="none" stroke="#000000" d="M155.437,-577.3008C160.9235,-568.5224 167.7686,-557.5703 173.9163,-547.7339"/>
<polygon fill="#000000" stroke="#000000" points="176.9751,-549.4436 179.3071,-539.1086 171.0391,-545.7336 176.9751,-549.4436"/>
</g>
<!-- p&#45;&gt;v -->
<g id="edge29" class="edge">
<title>p&#45;&gt;v</title>
<path fill="none" stroke="#000000" d="M134.563,-577.3008C129.0765,-568.5224 122.2314,-557.5703 116.0837,-547.7339"/>
<polygon fill="#000000" stroke="#000000" points="118.9609,-545.7336 110.6929,-539.1086 113.0249,-549.4436 118.9609,-545.7336"/>
</g>
<!-- u -->
<g id="node25" class="node">
<title>u</title>
<g id="a_node25"><a xlink:title="u &#45; Reduce">
<ellipse fill="none" stroke="#000000" cx="370" cy="-522" rx="27" ry="18"/>
<text text-anchor="middle" x="370" y="-518.3" font-family="Times,serif" font-size="14.00" fill="#000000">u</text>
</a>
</g>
</g>
<!-- u&#45;&gt;k -->
<g id="edge30" class="edge">
<title>u&#45;&gt;k</title>
<path fill="none" stroke="#000000" d="M352.6471,-508.1177C339.2003,-497.3602 320.3761,-482.3009 305.259,-470.2072"/>
<polygon fill="#000000" stroke="#000000" points="307.2948,-467.3536 297.2996,-463.8397 302.9219,-472.8197 307.2948,-467.3536"/>
</g>
<!-- u&#45;&gt;u -->
<g id="edge31" class="edge">
<title>u&#45;&gt;u</title>
<path fill="none" stroke="#000000" d="M389.895,-534.4321C402.688,-537.6753 415,-533.5313 415,-522 415,-513.6218 408.5006,-509.1433 400.0395,-508.5644"/>
<polygon fill="#000000" stroke="#000000" points="399.5019,-505.1004 389.895,-509.5679 400.191,-512.0665 399.5019,-505.1004"/>
</g>
<!-- j -->
<g id="node26" class="node">
<title>j</title>
<g id="a_node26"><a xlink:title="j &#45; Create object">
<ellipse fill="none" stroke="#000000" cx="370" cy="-594" rx="27" ry="18"/>
<text text-anchor="middle" x="370" y="-590.3" font-family="Times,serif" font-size="14.00" fill="#000000">j</text>
</a>
</g>
</g>
<!-- j&#45;&gt;u -->
<g id="edge32" class="edge">
<title>j&#45;&gt;u</title>
<path fill="none" stroke="#000000" d="M370,-575.8314C370,-568.131 370,-558.9743 370,-550.4166"/>
<polygon fill="#000000" stroke="#000000" points="373.5001,-550.4132 370,-540.4133 366.5001,-550.4133 373.5001,-550.4132"/>
</g>
<!-- j&#45;&gt;j -->
<g id="edge33" class="edge">
<title>j&#45;&gt;j</title>
<path fill="none" stroke="#000000" d="M389.895,-606.4321C402.688,-609.6753 415,-605.5313 415,-594 415,-585.6218 408.5006,-581.1433 400.0395,-580.5644"/>
<polygon fill="#000000" stroke="#000000" points="399.5019,-577.1004 389.895,-581.5679 400.191,-584.0665 399.5019,-577.1004"/>
</g>
<!-- r -->
<g id="node27" class="node">
<title>r</title>
<g id="a_node27"><a xlink:title="r &#45; Curry">
<ellipse fill="none" stroke="#000000" cx="99" cy="-450" rx="27" ry="18"/>
<text text-anchor="middle" x="99" y="-446.3" font-family="Times,serif" font-size="14.00" fill="#000000">r</text>
</a>
</g>
</g>
<!-- r&#45;&gt;$ -->
<g id="edge35" class="edge">
<title>r&#45;&gt;$</title>
<path fill="none" stroke="#000000" d="M118.4126,-437.2936C135.742,-425.9507 161.3318,-409.201 180.8972,-396.3946"/>
<polygon fill="#000000" stroke="#000000" points="182.9613,-399.2267 189.4115,-390.8216 179.1276,-393.3698 182.9613,-399.2267"/>
</g>
<!-- r&#45;&gt;d -->
<g id="edge34" class="edge">
<title>r&#45;&gt;d</title>
<path fill="none" stroke="#000000" d="M99,-431.8314C99,-424.131 99,-414.9743 99,-406.4166"/>
<polygon fill="#000000" stroke="#000000" points="102.5001,-406.4132 99,-396.4133 95.5001,-406.4133 102.5001,-406.4132"/>
</g>
<!-- r&#45;&gt;l -->
<g id="edge36" class="edge">
<title>r&#45;&gt;l</title>
<path fill="none" stroke="#000000" d="M83.7307,-434.7307C74.6292,-425.6292 62.8461,-413.8461 52.3788,-403.3788"/>
<polygon fill="#000000" stroke="#000000" points="54.5927,-400.6429 45.0467,-396.0467 49.6429,-405.5927 54.5927,-400.6429"/>
</g>
<!-- r&#45;&gt;r -->
<g id="edge37" class="edge">
<title>r&#45;&gt;r</title>
<path fill="none" stroke="#000000" d="M118.895,-462.4321C131.688,-465.6753 144,-461.5313 144,-450 144,-441.6218 137.5006,-437.1433 129.0395,-436.5644"/>
<polygon fill="#000000" stroke="#000000" points="128.5019,-433.1004 118.895,-437.5679 129.191,-440.0665 128.5019,-433.1004"/>
</g>
<!-- h -->
<g id="node28" class="node">
<title>h</title>
<g id="a_node28"><a xlink:title="h &#45; Switch">
<ellipse fill="none" stroke="#000000" cx="460" cy="-522" rx="27" ry="18"/>
<text text-anchor="middle" x="460" y="-518.3" font-family="Times,serif" font-size="14.00" fill="#000000">h</text>
</a>
</g>
</g>
<!-- h&#45;&gt;k -->
<g id="edge38" class="edge">
<title>h&#45;&gt;k</title>
<path fill="none" stroke="#000000" d="M438.4722,-510.7766C433.7475,-508.4429 428.7399,-506.0669 424,-504 387.0009,-487.8658 343.4834,-471.9559 314.0487,-461.6317"/>
<polygon fill="#000000" stroke="#000000" points="314.8532,-458.2058 304.2584,-458.2217 312.5507,-464.8163 314.8532,-458.2058"/>
</g>
<!-- h&#45;&gt;h -->
<g id="edge39" class="edge">
<title>h&#45;&gt;h</title>
<path fill="none" stroke="#000000" d="M479.895,-534.4321C492.688,-537.6753 505,-533.5313 505,-522 505,-513.6218 498.5006,-509.1433 490.0395,-508.5644"/>
<polygon fill="#000000" stroke="#000000" points="489.5019,-505.1004 479.895,-509.5679 490.191,-512.0665 489.5019,-505.1004"/>
</g>
</g>
<style>.node {
    pointer-events: all;
    cursor: default;
}

.node ellipse,
.node polygon {
    fill: transparent;
    -webkit-transition: fill 0.4s;
    -o-transition: fill 0.4s;
    transition: fill 0.4s;
}

.node.selected ellipse,
.node.selected polygon {
    -webkit-transition-duration: 0.2s;
    -o-transition-duration: 0.2s;
    transition-duration: 0.2s;
}

.node.selected.blue ellipse,
.node.selected.blue polygon {
    fill: #84b6c4 !important;
}

.node.selected.red ellipse,
.node.selected.red polygon {
    fill: #ff3856 !important;
}</style>
		<script id="graph-dependencies-script">
			var dependencies = new Map([["_", new Set([])],
["y", new Set([])],
["m", new Set([])],
["e", new Set([])],
["x", new Set([])],
["t", new Set(["y"])],
["q", new Set([])],
["$", new Set(["i","e","_","m","z","o","y","s","n"])],
["n", new Set([])],
["o", new Set(["n"])],
["z", new Set(["o","s","n","e"])],
["i", new Set(["_","m","z","o","y","s","n","e"])],
["w", new Set(["i","w","_","m","z","o","y","s","n","e"])],
["s", new Set(["o","e","n"])],
["a", new Set(["o","e","s","n"])],
["d", new Set(["e","a","o","s","n"])],
["c", new Set(["z","i","$","e","c","a","o","s","n","_","m","y"])],
["l", new Set(["o","n"])],
["b", new Set(["o","l","n"])],
["k", new Set(["_","i","$","e","x","m","z","o","y","s","n"])],
["g", new Set(["k","g","$","_","i","e","x","m","z","o","y","s","n"])],
["v", new Set(["y","k","$","v","_","i","e","x","m","z","o","s","n"])],
["f", new Set(["y","k","$","f","_","i","e","x","m","z","o","s","n"])],
["p", new Set(["g","v","k","$","_","i","e","x","m","z","o","y","s","n"])],
["u", new Set(["k","$","u","_","i","e","x","m","z","o","y","s","n"])],
["j", new Set(["k","$","u","j","_","i","e","x","m","z","o","y","s","n"])],
["r", new Set(["d","i","$","l","r","s","e","a","o","n","_","m","z","y"])],
["h", new Set(["i","$","k","h","_","m","z","o","y","s","n","e","x"])]]);
			var inverseDependencies = new Map([["_", new Set(["i","k","$","w","c","r","h","g","v","f","u","j","p"])],
["y", new Set(["t","i","v","f","$","w","c","k","r","h","g","u","j","p"])],
["m", new Set(["i","$","w","c","k","r","h","g","v","f","u","j","p"])],
["e", new Set(["$","s","a","d","c","k","g","v","f","u","j","r","h","p","z","i","w"])],
["x", new Set(["k","g","v","f","u","j","h","p"])],
["t", new Set([])],
["q", new Set([])],
["$", new Set(["c","k","g","v","f","u","j","r","h","p"])],
["i", new Set(["$","w","c","k","r","h","g","v","f","u","j","p"])],
["n", new Set(["o","z","i","s","a","l","b","c","$","w","k","r","h","g","v","f","u","j","p","d"])],
["o", new Set(["z","i","s","a","l","b","c","$","w","k","r","h","g","v","f","u","j","p","d"])],
["z", new Set(["i","c","$","w","k","r","h","g","v","f","u","j","p"])],
["s", new Set(["z","a","r","i","c","$","w","k","h","g","v","f","u","j","p","d"])],
["w", new Set(["w"])],
["a", new Set(["d","c","r"])],
["d", new Set(["r"])],
["c", new Set(["c"])],
["l", new Set(["b","r"])],
["b", new Set([])],
["k", new Set(["g","v","f","u","j","h","p"])],
["g", new Set(["g","p"])],
["v", new Set(["v","p"])],
["f", new Set(["f"])],
["p", new Set([])],
["u", new Set(["u","j"])],
["j", new Set(["j"])],
["r", new Set(["r"])],
["h", new Set(["h"])]]);
			var scriptElement = document.getElementById('graph-dependencies-script');
var nodeCollection = scriptElement.parentElement.querySelectorAll('.node');
var addClass = function (element, cls) {
	cls.split(/\s+/).forEach(function (c) {
		var currentClass = element.getAttribute('class');
		if (currentClass.indexOf(c) === -1) {
			element.setAttribute('class', currentClass + ' ' + c);
		}
	});
};
var removeClass = function (element, cls) {
	cls.split(/\s+/).forEach(function (c) {
		element.setAttribute('class', (element.getAttribute('class') || '').replace(new RegExp('\\s*' + c, 'g'), ''));
	});
};
var getNodeName = function (nodeElement) {
	return nodeElement.querySelector('text').innerHTML;
};
var getNodeByName = function (fnName) {
	var result = null;
	[].some.call(nodeCollection, function (nodeElement, i) {
		if (getNodeName(nodeElement) === fnName) {
			result = nodeElement;
		}

		return result !== null;
	});
	return result;
};
var highlightColors = {
	children: 'blue',
	parents: 'red'
};
var highlight = function (root, nodes, color) {
	if (root === false) {
		currentlyHighlighted.nodes.forEach(function (nodeElement) {
			removeClass(nodeElement, 'selected ' + Object.keys(highlightColors).map(function (key) {
				return highlightColors[key];
			}).join(' '));
		});
		currentlyHighlighted = null;
	} else {
		nodes.forEach(function (nodeElement) {
			addClass(nodeElement, 'selected ' + color);
		});
		currentlyHighlighted = {
			root: root,
			nodes: nodes
		};
	}
};
var isShiftPressed = false;
var currentlyHighlighted = null;
var nodeRelations = new Map();

document.onkeydown = function(e) {
	if (e.code === 'ShiftLeft') {
		isShiftPressed = true;
		if (currentlyHighlighted !== null) {
			var root = currentlyHighlighted.root;
			highlight(false);
			highlight(root, nodeRelations.get(root).inverseDependencies, highlightColors.parents);
		}
	}
};

document.onkeyup = function(e) {
	if (e.code === 'ShiftLeft') {
		isShiftPressed = false;
		if (currentlyHighlighted !== null) {
			var root = currentlyHighlighted.root;
			highlight(false);
			highlight(root, nodeRelations.get(root).dependencies, highlightColors.children);
		}
	}
};

[].forEach.call(nodeCollection, function (nodeElement) {
	var nodeName = getNodeName(nodeElement);
	var nodeDependencies = new Set([nodeElement]);
	var inverseNodeDependencies = new Set([nodeElement]);

	dependencies.get(nodeName).forEach(function (name) {
		nodeDependencies.add(getNodeByName(name));
	});
	inverseDependencies.get(nodeName).forEach(function (name) {
		inverseNodeDependencies.add(getNodeByName(name));
	});

	nodeRelations.set(nodeElement, {
		dependencies: nodeDependencies,
		inverseDependencies: inverseNodeDependencies
	});

	nodeElement.onmouseenter = function () {
		if (isShiftPressed) {
			highlight(nodeElement, inverseNodeDependencies, highlightColors.parents);
		} else {
			highlight(nodeElement, nodeDependencies, highlightColors.children);
		}

	};
	nodeElement.onmouseleave = function () {
		highlight(false);
	};
});
		</script>
		</svg>
